STARTFONT 2.1
FONT -Shinonome-Gothic-Bold-R-Normal--12-110-75-75-C-0-ISO10646-1
SIZE 12 75 75
FONTBOUNDINGBOX 12 12 0 -2
STARTPROPERTIES 19
FONTNAME_REGISTRY ""
FOUNDRY "Shinonome"
FAMILY_NAME "Gothic"
WEIGHT_NAME "Bold"
SLANT "R"
SETWIDTH_NAME "Normal"
ADD_STYLE_NAME ""
PIXEL_SIZE 12
POINT_SIZE 110
RESOLUTION_X 75
RESOLUTION_Y 75
SPACING "C"
AVERAGE_WIDTH 0
CHARSET_REGISTRY "ISO10646"
CHARSET_ENCODING "1"
COPYRIGHT "Public Domain"
DEFAULT_CHAR 8481
FONT_ASCENT 10
FONT_DESCENT 2
ENDPROPERTIES
CHARS 7127
STARTCHAR U0020
ENCODING 32
SWIDTH 960 0
DWIDTH 6 0
BBX 6 12 0 -2
BITMAP
00
00
00
00
00
00
00
00
00
00
00
00
ENDCHAR
STARTCHAR U0021
ENCODING 33
SWIDTH 960 0
DWIDTH 6 0
BBX 6 12 0 -2
BITMAP
00
30
30
30
30
30
30
30
00
30
00
00
ENDCHAR
STARTCHAR U0022
ENCODING 34
SWIDTH 960 0
DWIDTH 6 0
BBX 6 12 0 -2
BITMAP
00
68
68
68
00
00
00
00
00
00
00
00
ENDCHAR
STARTCHAR U0023
ENCODING 35
SWIDTH 960 0
DWIDTH 6 0
BBX 6 12 0 -2
BITMAP
00
68
68
fc
68
68
68
fc
68
68
00
00
ENDCHAR
STARTCHAR U0024
ENCODING 36
SWIDTH 960 0
DWIDTH 6 0
BBX 6 12 0 -2
BITMAP
00
30
78
d4
d4
70
38
34
d4
78
30
00
ENDCHAR
STARTCHAR U0025
ENCODING 37
SWIDTH 960 0
DWIDTH 6 0
BBX 6 12 0 -2
BITMAP
00
6c
d4
68
18
30
30
68
74
d8
c0
00
ENDCHAR
STARTCHAR U0026
ENCODING 38
SWIDTH 960 0
DWIDTH 6 0
BBX 6 12 0 -2
BITMAP
00
70
d8
d8
70
60
d4
d8
d8
74
00
00
ENDCHAR
STARTCHAR U0027
ENCODING 39
SWIDTH 960 0
DWIDTH 6 0
BBX 6 12 0 -2
BITMAP
00
38
18
30
00
00
00
00
00
00
00
00
ENDCHAR
STARTCHAR U0028
ENCODING 40
SWIDTH 960 0
DWIDTH 6 0
BBX 6 12 0 -2
BITMAP
00
0c
18
18
30
30
30
30
18
18
0c
00
ENDCHAR
STARTCHAR U0029
ENCODING 41
SWIDTH 960 0
DWIDTH 6 0
BBX 6 12 0 -2
BITMAP
00
c0
60
60
30
30
30
30
60
60
c0
00
ENDCHAR
STARTCHAR U002A
ENCODING 42
SWIDTH 960 0
DWIDTH 6 0
BBX 6 12 0 -2
BITMAP
00
00
00
30
d4
78
d4
30
00
00
00
00
ENDCHAR
STARTCHAR U002B
ENCODING 43
SWIDTH 960 0
DWIDTH 6 0
BBX 6 12 0 -2
BITMAP
00
00
00
30
30
fc
30
30
00
00
00
00
ENDCHAR
STARTCHAR U002C
ENCODING 44
SWIDTH 960 0
DWIDTH 6 0
BBX 6 12 0 -2
BITMAP
00
00
00
00
00
00
00
00
30
30
60
00
ENDCHAR
STARTCHAR U002D
ENCODING 45
SWIDTH 960 0
DWIDTH 6 0
BBX 6 12 0 -2
BITMAP
00
00
00
00
00
fc
00
00
00
00
00
00
ENDCHAR
STARTCHAR U002E
ENCODING 46
SWIDTH 960 0
DWIDTH 6 0
BBX 6 12 0 -2
BITMAP
00
00
00
00
00
00
00
00
30
00
00
00
ENDCHAR
STARTCHAR U002F
ENCODING 47
SWIDTH 960 0
DWIDTH 6 0
BBX 6 12 0 -2
BITMAP
00
0c
0c
18
18
30
30
60
60
c0
c0
00
ENDCHAR
STARTCHAR U0030
ENCODING 48
SWIDTH 960 0
DWIDTH 6 0
BBX 6 12 0 -2
BITMAP
00
38
6c
6c
6c
6c
6c
6c
6c
38
00
00
ENDCHAR
STARTCHAR U0031
ENCODING 49
SWIDTH 960 0
DWIDTH 6 0
BBX 6 12 0 -2
BITMAP
00
30
f0
30
30
30
30
30
30
30
00
00
ENDCHAR
STARTCHAR U0032
ENCODING 50
SWIDTH 960 0
DWIDTH 6 0
BBX 6 12 0 -2
BITMAP
00
78
cc
cc
0c
18
30
60
c0
fc
00
00
ENDCHAR
STARTCHAR U0033
ENCODING 51
SWIDTH 960 0
DWIDTH 6 0
BBX 6 12 0 -2
BITMAP
00
78
cc
0c
38
0c
0c
cc
cc
78
00
00
ENDCHAR
STARTCHAR U0034
ENCODING 52
SWIDTH 960 0
DWIDTH 6 0
BBX 6 12 0 -2
BITMAP
00
18
38
38
68
68
d8
fc
18
18
00
00
ENDCHAR
STARTCHAR U0035
ENCODING 53
SWIDTH 960 0
DWIDTH 6 0
BBX 6 12 0 -2
BITMAP
00
f8
c0
c0
f8
cc
0c
0c
cc
78
00
00
ENDCHAR
STARTCHAR U0036
ENCODING 54
SWIDTH 960 0
DWIDTH 6 0
BBX 6 12 0 -2
BITMAP
00
38
60
c0
f8
cc
cc
cc
cc
78
00
00
ENDCHAR
STARTCHAR U0037
ENCODING 55
SWIDTH 960 0
DWIDTH 6 0
BBX 6 12 0 -2
BITMAP
00
fc
0c
18
18
18
30
30
30
30
00
00
ENDCHAR
STARTCHAR U0038
ENCODING 56
SWIDTH 960 0
DWIDTH 6 0
BBX 6 12 0 -2
BITMAP
00
78
cc
cc
78
cc
cc
cc
cc
78
00
00
ENDCHAR
STARTCHAR U0039
ENCODING 57
SWIDTH 960 0
DWIDTH 6 0
BBX 6 12 0 -2
BITMAP
00
78
cc
cc
cc
7c
0c
0c
18
70
00
00
ENDCHAR
STARTCHAR U003A
ENCODING 58
SWIDTH 960 0
DWIDTH 6 0
BBX 6 12 0 -2
BITMAP
00
00
00
00
30
00
00
30
00
00
00
00
ENDCHAR
STARTCHAR U003B
ENCODING 59
SWIDTH 960 0
DWIDTH 6 0
BBX 6 12 0 -2
BITMAP
00
00
00
30
00
00
30
30
60
00
00
00
ENDCHAR
STARTCHAR U003C
ENCODING 60
SWIDTH 960 0
DWIDTH 6 0
BBX 6 12 0 -2
BITMAP
00
00
0c
18
30
60
30
18
0c
00
00
00
ENDCHAR
STARTCHAR U003D
ENCODING 61
SWIDTH 960 0
DWIDTH 6 0
BBX 6 12 0 -2
BITMAP
00
00
00
00
fc
00
fc
00
00
00
00
00
ENDCHAR
STARTCHAR U003E
ENCODING 62
SWIDTH 960 0
DWIDTH 6 0
BBX 6 12 0 -2
BITMAP
00
00
60
30
18
0c
18
30
60
00
00
00
ENDCHAR
STARTCHAR U003F
ENCODING 63
SWIDTH 960 0
DWIDTH 6 0
BBX 6 12 0 -2
BITMAP
00
78
cc
cc
18
18
30
30
00
30
00
00
ENDCHAR
STARTCHAR U0040
ENCODING 64
SWIDTH 960 0
DWIDTH 6 0
BBX 6 12 0 -2
BITMAP
00
78
cc
dc
d4
d4
d4
d8
cc
78
00
00
ENDCHAR
STARTCHAR U0041
ENCODING 65
SWIDTH 960 0
DWIDTH 6 0
BBX 6 12 0 -2
BITMAP
00
30
30
68
68
68
fc
cc
cc
cc
00
00
ENDCHAR
STARTCHAR U0042
ENCODING 66
SWIDTH 960 0
DWIDTH 6 0
BBX 6 12 0 -2
BITMAP
00
f8
cc
cc
d8
f8
cc
cc
cc
f8
00
00
ENDCHAR
STARTCHAR U0043
ENCODING 67
SWIDTH 960 0
DWIDTH 6 0
BBX 6 12 0 -2
BITMAP
00
38
6c
cc
c0
c0
c0
cc
6c
38
00
00
ENDCHAR
STARTCHAR U0044
ENCODING 68
SWIDTH 960 0
DWIDTH 6 0
BBX 6 12 0 -2
BITMAP
00
f0
d8
cc
cc
cc
cc
cc
d8
f0
00
00
ENDCHAR
STARTCHAR U0045
ENCODING 69
SWIDTH 960 0
DWIDTH 6 0
BBX 6 12 0 -2
BITMAP
00
fc
c0
c0
c0
f8
c0
c0
c0
fc
00
00
ENDCHAR
STARTCHAR U0046
ENCODING 70
SWIDTH 960 0
DWIDTH 6 0
BBX 6 12 0 -2
BITMAP
00
fc
c0
c0
c0
f8
c0
c0
c0
c0
00
00
ENDCHAR
STARTCHAR U0047
ENCODING 71
SWIDTH 960 0
DWIDTH 6 0
BBX 6 12 0 -2
BITMAP
00
38
6c
c0
c0
dc
cc
cc
6c
3c
00
00
ENDCHAR
STARTCHAR U0048
ENCODING 72
SWIDTH 960 0
DWIDTH 6 0
BBX 6 12 0 -2
BITMAP
00
cc
cc
cc
cc
fc
cc
cc
cc
cc
00
00
ENDCHAR
STARTCHAR U0049
ENCODING 73
SWIDTH 960 0
DWIDTH 6 0
BBX 6 12 0 -2
BITMAP
00
78
30
30
30
30
30
30
30
78
00
00
ENDCHAR
STARTCHAR U004A
ENCODING 74
SWIDTH 960 0
DWIDTH 6 0
BBX 6 12 0 -2
BITMAP
00
18
18
18
18
18
18
d8
d8
70
00
00
ENDCHAR
STARTCHAR U004B
ENCODING 75
SWIDTH 960 0
DWIDTH 6 0
BBX 6 12 0 -2
BITMAP
00
cc
d8
d0
e0
d0
d0
d8
d8
cc
00
00
ENDCHAR
STARTCHAR U004C
ENCODING 76
SWIDTH 960 0
DWIDTH 6 0
BBX 6 12 0 -2
BITMAP
00
c0
c0
c0
c0
c0
c0
c0
c0
fc
00
00
ENDCHAR
STARTCHAR U004D
ENCODING 77
SWIDTH 960 0
DWIDTH 6 0
BBX 6 12 0 -2
BITMAP
00
cc
cc
ec
ec
ec
d4
d4
d4
cc
00
00
ENDCHAR
STARTCHAR U004E
ENCODING 78
SWIDTH 960 0
DWIDTH 6 0
BBX 6 12 0 -2
BITMAP
00
cc
ec
ec
d4
d4
dc
dc
cc
cc
00
00
ENDCHAR
STARTCHAR U004F
ENCODING 79
SWIDTH 960 0
DWIDTH 6 0
BBX 6 12 0 -2
BITMAP
00
78
cc
cc
cc
cc
cc
cc
cc
78
00
00
ENDCHAR
STARTCHAR U0050
ENCODING 80
SWIDTH 960 0
DWIDTH 6 0
BBX 6 12 0 -2
BITMAP
00
f8
cc
cc
cc
f8
c0
c0
c0
c0
00
00
ENDCHAR
STARTCHAR U0051
ENCODING 81
SWIDTH 960 0
DWIDTH 6 0
BBX 6 12 0 -2
BITMAP
00
78
cc
cc
cc
cc
cc
d4
d8
74
00
00
ENDCHAR
STARTCHAR U0052
ENCODING 82
SWIDTH 960 0
DWIDTH 6 0
BBX 6 12 0 -2
BITMAP
00
f8
cc
cc
cc
f8
d8
cc
cc
cc
00
00
ENDCHAR
STARTCHAR U0053
ENCODING 83
SWIDTH 960 0
DWIDTH 6 0
BBX 6 12 0 -2
BITMAP
00
78
cc
c0
70
18
0c
cc
cc
78
00
00
ENDCHAR
STARTCHAR U0054
ENCODING 84
SWIDTH 960 0
DWIDTH 6 0
BBX 6 12 0 -2
BITMAP
00
fc
30
30
30
30
30
30
30
30
00
00
ENDCHAR
STARTCHAR U0055
ENCODING 85
SWIDTH 960 0
DWIDTH 6 0
BBX 6 12 0 -2
BITMAP
00
cc
cc
cc
cc
cc
cc
cc
cc
78
00
00
ENDCHAR
STARTCHAR U0056
ENCODING 86
SWIDTH 960 0
DWIDTH 6 0
BBX 6 12 0 -2
BITMAP
00
cc
cc
cc
cc
68
68
68
30
30
00
00
ENDCHAR
STARTCHAR U0057
ENCODING 87
SWIDTH 960 0
DWIDTH 6 0
BBX 6 12 0 -2
BITMAP
00
d4
d4
d4
d4
d4
d4
68
68
68
00
00
ENDCHAR
STARTCHAR U0058
ENCODING 88
SWIDTH 960 0
DWIDTH 6 0
BBX 6 12 0 -2
BITMAP
00
cc
cc
68
68
30
68
68
cc
cc
00
00
ENDCHAR
STARTCHAR U0059
ENCODING 89
SWIDTH 960 0
DWIDTH 6 0
BBX 6 12 0 -2
BITMAP
00
cc
cc
68
68
30
30
30
30
30
00
00
ENDCHAR
STARTCHAR U005A
ENCODING 90
SWIDTH 960 0
DWIDTH 6 0
BBX 6 12 0 -2
BITMAP
00
fc
0c
18
18
30
60
60
c0
fc
00
00
ENDCHAR
STARTCHAR U005B
ENCODING 91
SWIDTH 960 0
DWIDTH 6 0
BBX 6 12 0 -2
BITMAP
00
3c
30
30
30
30
30
30
30
30
30
3c
ENDCHAR
STARTCHAR U005C
ENCODING 92
SWIDTH 960 0
DWIDTH 6 0
BBX 6 12 0 -2
BITMAP
00
c0
c0
60
60
30
30
18
18
0c
0c
00
ENDCHAR
STARTCHAR U005D
ENCODING 93
SWIDTH 960 0
DWIDTH 6 0
BBX 6 12 0 -2
BITMAP
00
78
18
18
18
18
18
18
18
18
18
78
ENDCHAR
STARTCHAR U005E
ENCODING 94
SWIDTH 960 0
DWIDTH 6 0
BBX 6 12 0 -2
BITMAP
00
30
68
cc
00
00
00
00
00
00
00
00
ENDCHAR
STARTCHAR U005F
ENCODING 95
SWIDTH 960 0
DWIDTH 6 0
BBX 6 12 0 -2
BITMAP
00
00
00
00
00
00
00
00
00
fc
00
00
ENDCHAR
STARTCHAR U0060
ENCODING 96
SWIDTH 960 0
DWIDTH 6 0
BBX 6 12 0 -2
BITMAP
00
38
30
18
00
00
00
00
00
00
00
00
ENDCHAR
STARTCHAR U0061
ENCODING 97
SWIDTH 960 0
DWIDTH 6 0
BBX 6 12 0 -2
BITMAP
00
00
00
78
cc
1c
74
cc
dc
74
00
00
ENDCHAR
STARTCHAR U0062
ENCODING 98
SWIDTH 960 0
DWIDTH 6 0
BBX 6 12 0 -2
BITMAP
00
c0
c0
d8
ec
cc
cc
cc
ec
d8
00
00
ENDCHAR
STARTCHAR U0063
ENCODING 99
SWIDTH 960 0
DWIDTH 6 0
BBX 6 12 0 -2
BITMAP
00
00
00
78
cc
c0
c0
c0
cc
78
00
00
ENDCHAR
STARTCHAR U0064
ENCODING 100
SWIDTH 960 0
DWIDTH 6 0
BBX 6 12 0 -2
BITMAP
00
0c
0c
74
dc
cc
cc
cc
dc
74
00
00
ENDCHAR
STARTCHAR U0065
ENCODING 101
SWIDTH 960 0
DWIDTH 6 0
BBX 6 12 0 -2
BITMAP
00
00
00
78
cc
cc
fc
c0
cc
78
00
00
ENDCHAR
STARTCHAR U0066
ENCODING 102
SWIDTH 960 0
DWIDTH 6 0
BBX 6 12 0 -2
BITMAP
00
1c
30
78
30
30
30
30
30
30
00
00
ENDCHAR
STARTCHAR U0067
ENCODING 103
SWIDTH 960 0
DWIDTH 6 0
BBX 6 12 0 -2
BITMAP
00
00
00
7c
cc
cc
cc
dc
74
0c
cc
78
ENDCHAR
STARTCHAR U0068
ENCODING 104
SWIDTH 960 0
DWIDTH 6 0
BBX 6 12 0 -2
BITMAP
00
c0
c0
d8
ec
cc
cc
cc
cc
cc
00
00
ENDCHAR
STARTCHAR U0069
ENCODING 105
SWIDTH 960 0
DWIDTH 6 0
BBX 6 12 0 -2
BITMAP
00
30
00
30
30
30
30
30
30
30
00
00
ENDCHAR
STARTCHAR U006A
ENCODING 106
SWIDTH 960 0
DWIDTH 6 0
BBX 6 12 0 -2
BITMAP
00
30
00
30
30
30
30
30
30
30
30
60
ENDCHAR
STARTCHAR U006B
ENCODING 107
SWIDTH 960 0
DWIDTH 6 0
BBX 6 12 0 -2
BITMAP
00
c0
c0
c0
d8
d0
e0
d0
d8
cc
00
00
ENDCHAR
STARTCHAR U006C
ENCODING 108
SWIDTH 960 0
DWIDTH 6 0
BBX 6 12 0 -2
BITMAP
00
30
30
30
30
30
30
30
30
30
00
00
ENDCHAR
STARTCHAR U006D
ENCODING 109
SWIDTH 960 0
DWIDTH 6 0
BBX 6 12 0 -2
BITMAP
00
00
00
f8
d4
d4
d4
d4
d4
d4
00
00
ENDCHAR
STARTCHAR U006E
ENCODING 110
SWIDTH 960 0
DWIDTH 6 0
BBX 6 12 0 -2
BITMAP
00
00
00
d8
ec
cc
cc
cc
cc
cc
00
00
ENDCHAR
STARTCHAR U006F
ENCODING 111
SWIDTH 960 0
DWIDTH 6 0
BBX 6 12 0 -2
BITMAP
00
00
00
78
cc
cc
cc
cc
cc
78
00
00
ENDCHAR
STARTCHAR U0070
ENCODING 112
SWIDTH 960 0
DWIDTH 6 0
BBX 6 12 0 -2
BITMAP
00
00
00
d8
ec
cc
cc
cc
ec
d8
c0
c0
ENDCHAR
STARTCHAR U0071
ENCODING 113
SWIDTH 960 0
DWIDTH 6 0
BBX 6 12 0 -2
BITMAP
00
00
00
74
dc
cc
cc
cc
dc
74
0c
0c
ENDCHAR
STARTCHAR U0072
ENCODING 114
SWIDTH 960 0
DWIDTH 6 0
BBX 6 12 0 -2
BITMAP
00
00
00
6c
70
60
60
60
60
60
00
00
ENDCHAR
STARTCHAR U0073
ENCODING 115
SWIDTH 960 0
DWIDTH 6 0
BBX 6 12 0 -2
BITMAP
00
00
00
78
cc
60
38
0c
cc
78
00
00
ENDCHAR
STARTCHAR U0074
ENCODING 116
SWIDTH 960 0
DWIDTH 6 0
BBX 6 12 0 -2
BITMAP
00
60
60
f8
60
60
60
60
60
70
00
00
ENDCHAR
STARTCHAR U0075
ENCODING 117
SWIDTH 960 0
DWIDTH 6 0
BBX 6 12 0 -2
BITMAP
00
00
00
cc
cc
cc
cc
cc
dc
74
00
00
ENDCHAR
STARTCHAR U0076
ENCODING 118
SWIDTH 960 0
DWIDTH 6 0
BBX 6 12 0 -2
BITMAP
00
00
00
cc
cc
cc
68
68
30
30
00
00
ENDCHAR
STARTCHAR U0077
ENCODING 119
SWIDTH 960 0
DWIDTH 6 0
BBX 6 12 0 -2
BITMAP
00
00
00
cc
d4
d4
d4
d4
d4
68
00
00
ENDCHAR
STARTCHAR U0078
ENCODING 120
SWIDTH 960 0
DWIDTH 6 0
BBX 6 12 0 -2
BITMAP
00
00
00
cc
68
68
30
68
68
cc
00
00
ENDCHAR
STARTCHAR U0079
ENCODING 121
SWIDTH 960 0
DWIDTH 6 0
BBX 6 12 0 -2
BITMAP
00
00
00
cc
cc
6c
68
68
30
30
60
c0
ENDCHAR
STARTCHAR U007A
ENCODING 122
SWIDTH 960 0
DWIDTH 6 0
BBX 6 12 0 -2
BITMAP
00
00
00
fc
18
18
30
60
60
fc
00
00
ENDCHAR
STARTCHAR U007B
ENCODING 123
SWIDTH 960 0
DWIDTH 6 0
BBX 6 12 0 -2
BITMAP
00
0c
18
18
18
18
30
18
18
18
18
0c
ENDCHAR
STARTCHAR U007C
ENCODING 124
SWIDTH 960 0
DWIDTH 6 0
BBX 6 12 0 -2
BITMAP
00
30
30
30
30
30
30
30
30
30
30
30
ENDCHAR
STARTCHAR U007D
ENCODING 125
SWIDTH 960 0
DWIDTH 6 0
BBX 6 12 0 -2
BITMAP
00
60
30
30
30
30
18
30
30
30
30
60
ENDCHAR
STARTCHAR U007E
ENCODING 126
SWIDTH 960 0
DWIDTH 6 0
BBX 6 12 0 -2
BITMAP
00
00
00
6c
d8
00
00
00
00
00
00
00
ENDCHAR
STARTCHAR U00A0
ENCODING 160
SWIDTH 960 0
DWIDTH 6 0
BBX 6 12 0 -2
BITMAP
00
00
00
00
00
00
00
00
00
00
00
00
ENDCHAR
STARTCHAR U00A1
ENCODING 161
SWIDTH 960 0
DWIDTH 6 0
BBX 6 12 0 -2
BITMAP
00
30
00
30
30
30
30
30
30
30
00
00
ENDCHAR
STARTCHAR U00A2
ENCODING 162
SWIDTH 960 0
DWIDTH 6 0
BBX 6 12 0 -2
BITMAP
00
00
18
78
dc
d0
d0
d0
ec
78
60
00
ENDCHAR
STARTCHAR U00A3
ENCODING 163
SWIDTH 960 0
DWIDTH 6 0
BBX 6 12 0 -2
BITMAP
00
18
34
30
7c
30
30
30
74
d4
68
00
ENDCHAR
STARTCHAR U00A4
ENCODING 164
SWIDTH 960 0
DWIDTH 6 0
BBX 6 12 0 -2
BITMAP
00
00
00
cc
78
68
78
cc
00
00
00
00
ENDCHAR
STARTCHAR U00A5
ENCODING 165
SWIDTH 960 0
DWIDTH 6 0
BBX 6 12 0 -2
BITMAP
00
cc
cc
68
fc
30
fc
30
30
30
00
00
ENDCHAR
STARTCHAR U00A6
ENCODING 166
SWIDTH 960 0
DWIDTH 6 0
BBX 6 12 0 -2
BITMAP
00
30
30
30
30
00
00
30
30
30
30
00
ENDCHAR
STARTCHAR U00A7
ENCODING 167
SWIDTH 960 0
DWIDTH 6 0
BBX 6 12 0 -2
BITMAP
00
38
6c
60
38
6c
38
0c
6c
6c
38
00
ENDCHAR
STARTCHAR U00A8
ENCODING 168
SWIDTH 960 0
DWIDTH 6 0
BBX 6 12 0 -2
BITMAP
00
68
00
00
00
00
00
00
00
00
00
00
ENDCHAR
STARTCHAR U00A9
ENCODING 169
SWIDTH 960 0
DWIDTH 6 0
BBX 6 12 0 -2
BITMAP
00
78
cc
dc
ec
ec
dc
cc
78
00
00
00
ENDCHAR
STARTCHAR U00AA
ENCODING 170
SWIDTH 960 0
DWIDTH 6 0
BBX 6 12 0 -2
BITMAP
00
70
d0
d0
68
00
f8
00
00
00
00
00
ENDCHAR
STARTCHAR U00AB
ENCODING 171
SWIDTH 960 0
DWIDTH 6 0
BBX 6 12 0 -2
BITMAP
00
00
00
00
34
68
d0
68
34
00
00
00
ENDCHAR
STARTCHAR U00AC
ENCODING 172
SWIDTH 960 0
DWIDTH 6 0
BBX 6 12 0 -2
BITMAP
00
00
00
00
00
fc
0c
0c
00
00
00
00
ENDCHAR
STARTCHAR U00AD
ENCODING 173
SWIDTH 960 0
DWIDTH 6 0
BBX 6 12 0 -2
BITMAP
00
00
00
00
00
00
78
00
00
00
00
00
ENDCHAR
STARTCHAR U00AE
ENCODING 174
SWIDTH 960 0
DWIDTH 6 0
BBX 6 12 0 -2
BITMAP
00
7c
c6
da
d6
da
d6
d6
7c
00
00
00
ENDCHAR
STARTCHAR U00AF
ENCODING 175
SWIDTH 960 0
DWIDTH 6 0
BBX 6 12 0 -2
BITMAP
00
78
00
00
00
00
00
00
00
00
00
00
ENDCHAR
STARTCHAR U00B0
ENCODING 176
SWIDTH 960 0
DWIDTH 6 0
BBX 6 12 0 -2
BITMAP
38
6c
38
00
00
00
00
00
00
00
00
00
ENDCHAR
STARTCHAR U00B1
ENCODING 177
SWIDTH 960 0
DWIDTH 6 0
BBX 6 12 0 -2
BITMAP
00
00
00
30
30
fc
30
30
fc
00
00
00
ENDCHAR
STARTCHAR U00B2
ENCODING 178
SWIDTH 960 0
DWIDTH 6 0
BBX 6 12 0 -2
BITMAP
60
d0
30
60
f0
00
00
00
00
00
00
00
ENDCHAR
STARTCHAR U00B3
ENCODING 179
SWIDTH 960 0
DWIDTH 6 0
BBX 6 12 0 -2
BITMAP
e0
30
e0
30
e0
00
00
00
00
00
00
00
ENDCHAR
STARTCHAR U00B4
ENCODING 180
SWIDTH 960 0
DWIDTH 6 0
BBX 6 12 0 -2
BITMAP
38
60
00
00
00
00
00
00
00
00
00
00
ENDCHAR
STARTCHAR U00B5
ENCODING 181
SWIDTH 960 0
DWIDTH 6 0
BBX 6 12 0 -2
BITMAP
00
00
00
00
6c
6c
6c
6c
7a
60
60
c0
ENDCHAR
STARTCHAR U00B6
ENCODING 182
SWIDTH 960 0
DWIDTH 6 0
BBX 6 12 0 -2
BITMAP
00
3c
74
74
34
34
34
34
34
34
34
00
ENDCHAR
STARTCHAR U00B7
ENCODING 183
SWIDTH 960 0
DWIDTH 6 0
BBX 6 12 0 -2
BITMAP
00
00
00
00
00
38
38
00
00
00
00
00
ENDCHAR
STARTCHAR U00B8
ENCODING 184
SWIDTH 960 0
DWIDTH 6 0
BBX 6 12 0 -2
BITMAP
00
00
00
00
00
00
00
00
60
70
18
70
ENDCHAR
STARTCHAR U00B9
ENCODING 185
SWIDTH 960 0
DWIDTH 6 0
BBX 6 12 0 -2
BITMAP
60
e0
60
60
60
00
00
00
00
00
00
00
ENDCHAR
STARTCHAR U00BA
ENCODING 186
SWIDTH 960 0
DWIDTH 6 0
BBX 6 12 0 -2
BITMAP
00
70
d8
d8
70
00
f8
00
00
00
00
00
ENDCHAR
STARTCHAR U00BB
ENCODING 187
SWIDTH 960 0
DWIDTH 6 0
BBX 6 12 0 -2
BITMAP
00
00
00
d0
68
34
68
d0
00
00
00
00
ENDCHAR
STARTCHAR U00BC
ENCODING 188
SWIDTH 960 0
DWIDTH 6 0
BBX 6 12 0 -2
BITMAP
c0
d8
d0
68
d8
3c
18
00
00
00
00
00
ENDCHAR
STARTCHAR U00BD
ENCODING 189
SWIDTH 960 0
DWIDTH 6 0
BBX 6 12 0 -2
BITMAP
c0
d8
d0
6c
cc
18
3c
00
00
00
00
00
ENDCHAR
STARTCHAR U00BE
ENCODING 190
SWIDTH 960 0
DWIDTH 6 0
BBX 6 12 0 -2
BITMAP
e0
30
f0
34
ec
34
3e
0c
00
00
00
00
ENDCHAR
STARTCHAR U00BF
ENCODING 191
SWIDTH 960 0
DWIDTH 6 0
BBX 6 12 0 -2
BITMAP
00
30
00
30
30
60
60
cc
cc
78
00
00
ENDCHAR
STARTCHAR U00C0
ENCODING 192
SWIDTH 960 0
DWIDTH 6 0
BBX 6 12 0 -2
BITMAP
30
18
30
30
68
68
cc
fc
cc
cc
00
00
ENDCHAR
STARTCHAR U00C1
ENCODING 193
SWIDTH 960 0
DWIDTH 6 0
BBX 6 12 0 -2
BITMAP
30
60
30
30
68
68
cc
fc
cc
cc
00
00
ENDCHAR
STARTCHAR U00C2
ENCODING 194
SWIDTH 960 0
DWIDTH 6 0
BBX 6 12 0 -2
BITMAP
30
68
30
30
68
68
cc
fc
cc
cc
00
00
ENDCHAR
STARTCHAR U00C3
ENCODING 195
SWIDTH 960 0
DWIDTH 6 0
BBX 6 12 0 -2
BITMAP
68
d0
30
30
68
68
cc
fc
cc
cc
00
00
ENDCHAR
STARTCHAR U00C4
ENCODING 196
SWIDTH 960 0
DWIDTH 6 0
BBX 6 12 0 -2
BITMAP
68
00
30
30
68
68
cc
fc
cc
cc
00
00
ENDCHAR
STARTCHAR U00C5
ENCODING 197
SWIDTH 960 0
DWIDTH 6 0
BBX 6 12 0 -2
BITMAP
30
68
30
30
68
68
cc
fc
cc
cc
00
00
ENDCHAR
STARTCHAR U00C6
ENCODING 198
SWIDTH 960 0
DWIDTH 6 0
BBX 6 12 0 -2
BITMAP
00
7c
70
d0
d0
fc
d0
d0
d0
dc
00
00
ENDCHAR
STARTCHAR U00C7
ENCODING 199
SWIDTH 960 0
DWIDTH 6 0
BBX 6 12 0 -2
BITMAP
00
38
6c
c0
c0
c0
c0
6c
38
18
70
00
ENDCHAR
STARTCHAR U00C8
ENCODING 200
SWIDTH 960 0
DWIDTH 6 0
BBX 6 12 0 -2
BITMAP
60
30
fc
c0
c0
f8
c0
c0
c0
fc
00
00
ENDCHAR
STARTCHAR U00C9
ENCODING 201
SWIDTH 960 0
DWIDTH 6 0
BBX 6 12 0 -2
BITMAP
18
30
fc
c0
c0
f8
c0
c0
c0
fc
00
00
ENDCHAR
STARTCHAR U00CA
ENCODING 202
SWIDTH 960 0
DWIDTH 6 0
BBX 6 12 0 -2
BITMAP
30
68
fc
c0
c0
f8
c0
c0
c0
fc
00
00
ENDCHAR
STARTCHAR U00CB
ENCODING 203
SWIDTH 960 0
DWIDTH 6 0
BBX 6 12 0 -2
BITMAP
68
00
fc
c0
c0
f8
c0
c0
c0
fc
00
00
ENDCHAR
STARTCHAR U00CC
ENCODING 204
SWIDTH 960 0
DWIDTH 6 0
BBX 6 12 0 -2
BITMAP
60
30
78
30
30
30
30
30
30
78
00
00
ENDCHAR
STARTCHAR U00CD
ENCODING 205
SWIDTH 960 0
DWIDTH 6 0
BBX 6 12 0 -2
BITMAP
18
30
78
30
30
30
30
30
30
78
00
00
ENDCHAR
STARTCHAR U00CE
ENCODING 206
SWIDTH 960 0
DWIDTH 6 0
BBX 6 12 0 -2
BITMAP
30
68
00
78
30
30
30
30
30
78
00
00
ENDCHAR
STARTCHAR U00CF
ENCODING 207
SWIDTH 960 0
DWIDTH 6 0
BBX 6 12 0 -2
BITMAP
68
00
78
30
30
30
30
30
30
78
00
00
ENDCHAR
STARTCHAR U00D0
ENCODING 208
SWIDTH 960 0
DWIDTH 6 0
BBX 6 12 0 -2
BITMAP
00
f0
d8
cc
cc
ec
cc
cc
d8
f0
00
00
ENDCHAR
STARTCHAR U00D1
ENCODING 209
SWIDTH 960 0
DWIDTH 6 0
BBX 6 12 0 -2
BITMAP
68
d0
cc
ec
d4
d4
dc
dc
cc
cc
00
00
ENDCHAR
STARTCHAR U00D2
ENCODING 210
SWIDTH 960 0
DWIDTH 6 0
BBX 6 12 0 -2
BITMAP
60
30
78
cc
cc
cc
cc
cc
cc
78
00
00
ENDCHAR
STARTCHAR U00D3
ENCODING 211
SWIDTH 960 0
DWIDTH 6 0
BBX 6 12 0 -2
BITMAP
18
30
78
cc
cc
cc
cc
cc
cc
78
00
00
ENDCHAR
STARTCHAR U00D4
ENCODING 212
SWIDTH 960 0
DWIDTH 6 0
BBX 6 12 0 -2
BITMAP
30
68
78
cc
cc
cc
cc
cc
cc
78
00
00
ENDCHAR
STARTCHAR U00D5
ENCODING 213
SWIDTH 960 0
DWIDTH 6 0
BBX 6 12 0 -2
BITMAP
34
68
78
cc
cc
cc
cc
cc
cc
78
00
00
ENDCHAR
STARTCHAR U00D6
ENCODING 214
SWIDTH 960 0
DWIDTH 6 0
BBX 6 12 0 -2
BITMAP
68
00
78
cc
cc
cc
cc
cc
cc
78
00
00
ENDCHAR
STARTCHAR U00D7
ENCODING 215
SWIDTH 960 0
DWIDTH 6 0
BBX 6 12 0 -2
BITMAP
00
00
00
cc
68
30
68
cc
00
00
00
00
ENDCHAR
STARTCHAR U00D8
ENCODING 216
SWIDTH 960 0
DWIDTH 6 0
BBX 6 12 0 -2
BITMAP
00
3a
6e
6c
6c
74
74
6c
ec
d8
00
00
ENDCHAR
STARTCHAR U00D9
ENCODING 217
SWIDTH 960 0
DWIDTH 6 0
BBX 6 12 0 -2
BITMAP
60
30
cc
cc
cc
cc
cc
cc
cc
78
00
00
ENDCHAR
STARTCHAR U00DA
ENCODING 218
SWIDTH 960 0
DWIDTH 6 0
BBX 6 12 0 -2
BITMAP
18
30
cc
cc
cc
cc
cc
cc
cc
78
00
00
ENDCHAR
STARTCHAR U00DB
ENCODING 219
SWIDTH 960 0
DWIDTH 6 0
BBX 6 12 0 -2
BITMAP
30
68
00
cc
cc
cc
cc
cc
cc
78
00
00
ENDCHAR
STARTCHAR U00DC
ENCODING 220
SWIDTH 960 0
DWIDTH 6 0
BBX 6 12 0 -2
BITMAP
68
d0
00
cc
cc
cc
cc
cc
cc
78
00
00
ENDCHAR
STARTCHAR U00DD
ENCODING 221
SWIDTH 960 0
DWIDTH 6 0
BBX 6 12 0 -2
BITMAP
18
30
cc
cc
68
68
30
30
30
30
00
00
ENDCHAR
STARTCHAR U00DE
ENCODING 222
SWIDTH 960 0
DWIDTH 6 0
BBX 6 12 0 -2
BITMAP
00
60
60
78
6c
6c
6c
6c
78
60
60
00
ENDCHAR
STARTCHAR U00DF
ENCODING 223
SWIDTH 960 0
DWIDTH 6 0
BBX 6 12 0 -2
BITMAP
00
38
6c
6c
6c
78
6c
6c
6c
68
60
60
ENDCHAR
STARTCHAR U00E0
ENCODING 224
SWIDTH 960 0
DWIDTH 6 0
BBX 6 12 0 -2
BITMAP
60
30
00
78
cc
1c
74
cc
dc
74
00
00
ENDCHAR
STARTCHAR U00E1
ENCODING 225
SWIDTH 960 0
DWIDTH 6 0
BBX 6 12 0 -2
BITMAP
18
30
00
78
cc
1c
74
cc
dc
74
00
00
ENDCHAR
STARTCHAR U00E2
ENCODING 226
SWIDTH 960 0
DWIDTH 6 0
BBX 6 12 0 -2
BITMAP
30
68
00
78
cc
1c
74
cc
dc
74
00
00
ENDCHAR
STARTCHAR U00E3
ENCODING 227
SWIDTH 960 0
DWIDTH 6 0
BBX 6 12 0 -2
BITMAP
68
d0
00
78
cc
1c
74
cc
dc
74
00
00
ENDCHAR
STARTCHAR U00E4
ENCODING 228
SWIDTH 960 0
DWIDTH 6 0
BBX 6 12 0 -2
BITMAP
00
68
00
78
cc
1c
74
cc
dc
74
00
00
ENDCHAR
STARTCHAR U00E5
ENCODING 229
SWIDTH 960 0
DWIDTH 6 0
BBX 6 12 0 -2
BITMAP
30
68
30
78
cc
1c
74
cc
dc
74
00
00
ENDCHAR
STARTCHAR U00E6
ENCODING 230
SWIDTH 960 0
DWIDTH 6 0
BBX 6 12 0 -2
BITMAP
00
00
00
68
d4
34
7c
d0
d4
78
00
00
ENDCHAR
STARTCHAR U00E7
ENCODING 231
SWIDTH 960 0
DWIDTH 6 0
BBX 6 12 0 -2
BITMAP
00
00
00
78
cc
c0
c0
cc
78
18
70
00
ENDCHAR
STARTCHAR U00E8
ENCODING 232
SWIDTH 960 0
DWIDTH 6 0
BBX 6 12 0 -2
BITMAP
60
30
00
78
cc
cc
fc
c0
cc
78
00
00
ENDCHAR
STARTCHAR U00E9
ENCODING 233
SWIDTH 960 0
DWIDTH 6 0
BBX 6 12 0 -2
BITMAP
18
30
00
78
cc
cc
fc
c0
cc
78
00
00
ENDCHAR
STARTCHAR U00EA
ENCODING 234
SWIDTH 960 0
DWIDTH 6 0
BBX 6 12 0 -2
BITMAP
30
68
00
78
cc
cc
fc
c0
cc
78
00
00
ENDCHAR
STARTCHAR U00EB
ENCODING 235
SWIDTH 960 0
DWIDTH 6 0
BBX 6 12 0 -2
BITMAP
00
68
00
78
cc
cc
fc
c0
cc
78
00
00
ENDCHAR
STARTCHAR U00EC
ENCODING 236
SWIDTH 960 0
DWIDTH 6 0
BBX 6 12 0 -2
BITMAP
60
30
00
00
30
30
30
30
30
30
00
00
ENDCHAR
STARTCHAR U00ED
ENCODING 237
SWIDTH 960 0
DWIDTH 6 0
BBX 6 12 0 -2
BITMAP
18
30
00
00
30
30
30
30
30
30
00
00
ENDCHAR
STARTCHAR U00EE
ENCODING 238
SWIDTH 960 0
DWIDTH 6 0
BBX 6 12 0 -2
BITMAP
30
68
00
00
30
30
30
30
30
30
00
00
ENDCHAR
STARTCHAR U00EF
ENCODING 239
SWIDTH 960 0
DWIDTH 6 0
BBX 6 12 0 -2
BITMAP
00
68
00
00
30
30
30
30
30
30
00
00
ENDCHAR
STARTCHAR U00F0
ENCODING 240
SWIDTH 960 0
DWIDTH 6 0
BBX 6 12 0 -2
BITMAP
d0
60
d0
18
78
cc
cc
cc
cc
78
00
00
ENDCHAR
STARTCHAR U00F1
ENCODING 241
SWIDTH 960 0
DWIDTH 6 0
BBX 6 12 0 -2
BITMAP
68
d0
00
00
d8
ec
cc
cc
cc
cc
00
00
ENDCHAR
STARTCHAR U00F2
ENCODING 242
SWIDTH 960 0
DWIDTH 6 0
BBX 6 12 0 -2
BITMAP
60
30
00
78
cc
cc
cc
cc
cc
78
00
00
ENDCHAR
STARTCHAR U00F3
ENCODING 243
SWIDTH 960 0
DWIDTH 6 0
BBX 6 12 0 -2
BITMAP
18
30
00
78
cc
cc
cc
cc
cc
78
00
00
ENDCHAR
STARTCHAR U00F4
ENCODING 244
SWIDTH 960 0
DWIDTH 6 0
BBX 6 12 0 -2
BITMAP
30
68
00
78
cc
cc
cc
cc
cc
78
00
00
ENDCHAR
STARTCHAR U00F5
ENCODING 245
SWIDTH 960 0
DWIDTH 6 0
BBX 6 12 0 -2
BITMAP
68
d0
00
78
cc
cc
cc
cc
cc
78
00
00
ENDCHAR
STARTCHAR U00F6
ENCODING 246
SWIDTH 960 0
DWIDTH 6 0
BBX 6 12 0 -2
BITMAP
00
68
00
78
cc
cc
cc
cc
cc
78
00
00
ENDCHAR
STARTCHAR U00F7
ENCODING 247
SWIDTH 960 0
DWIDTH 6 0
BBX 6 12 0 -2
BITMAP
00
00
00
30
00
fc
00
30
00
00
00
00
ENDCHAR
STARTCHAR U00F8
ENCODING 248
SWIDTH 960 0
DWIDTH 6 0
BBX 6 12 0 -2
BITMAP
00
00
00
3a
6c
6c
74
6c
ec
38
00
00
ENDCHAR
STARTCHAR U00F9
ENCODING 249
SWIDTH 960 0
DWIDTH 6 0
BBX 6 12 0 -2
BITMAP
60
30
00
cc
cc
cc
cc
cc
dc
74
00
00
ENDCHAR
STARTCHAR U00FA
ENCODING 250
SWIDTH 960 0
DWIDTH 6 0
BBX 6 12 0 -2
BITMAP
18
30
00
cc
cc
cc
cc
cc
dc
74
00
00
ENDCHAR
STARTCHAR U00FB
ENCODING 251
SWIDTH 960 0
DWIDTH 6 0
BBX 6 12 0 -2
BITMAP
30
68
00
cc
cc
cc
cc
cc
dc
74
00
00
ENDCHAR
STARTCHAR U00FC
ENCODING 252
SWIDTH 960 0
DWIDTH 6 0
BBX 6 12 0 -2
BITMAP
00
68
00
cc
cc
cc
cc
cc
dc
74
00
00
ENDCHAR
STARTCHAR U00FD
ENCODING 253
SWIDTH 960 0
DWIDTH 6 0
BBX 6 12 0 -2
BITMAP
18
30
00
cc
cc
6c
68
68
30
30
60
c0
ENDCHAR
STARTCHAR U00FE
ENCODING 254
SWIDTH 960 0
DWIDTH 6 0
BBX 6 12 0 -2
BITMAP
00
00
60
60
78
6c
6c
6c
6c
78
60
60
ENDCHAR
STARTCHAR U00FF
ENCODING 255
SWIDTH 960 0
DWIDTH 6 0
BBX 6 12 0 -2
BITMAP
00
68
00
cc
cc
6c
68
68
30
30
60
c0
ENDCHAR
STARTCHAR U0391
ENCODING 913
SWIDTH 960 0
DWIDTH 12 0
BBX 12 12 0 -2
BITMAP
0000
0600
0600
0d00
0d00
1980
1980
1f80
30c0
30c0
79e0
0000
ENDCHAR
STARTCHAR U0392
ENCODING 914
SWIDTH 960 0
DWIDTH 12 0
BBX 12 12 0 -2
BITMAP
0000
3f00
1980
18c0
1980
1f00
1980
18c0
18c0
1980
3f00
0000
ENDCHAR
STARTCHAR U0393
ENCODING 915
SWIDTH 960 0
DWIDTH 12 0
BBX 12 12 0 -2
BITMAP
0000
3f80
1980
18c0
1800
1800
1800
1800
1800
1800
3c00
0000
ENDCHAR
STARTCHAR U0394
ENCODING 916
SWIDTH 960 0
DWIDTH 12 0
BBX 12 12 0 -2
BITMAP
0000
0600
0600
0600
0d00
0d00
1980
1980
30c0
30c0
7fe0
0000
ENDCHAR
STARTCHAR U0395
ENCODING 917
SWIDTH 960 0
DWIDTH 12 0
BBX 12 12 0 -2
BITMAP
0000
3fc0
1860
1800
1980
1f80
1980
1800
1860
1860
3fc0
0000
ENDCHAR
STARTCHAR U0396
ENCODING 918
SWIDTH 960 0
DWIDTH 12 0
BBX 12 12 0 -2
BITMAP
0000
3fe0
30c0
6180
0300
0600
0600
0c00
1860
3060
7fe0
0000
ENDCHAR
STARTCHAR U0397
ENCODING 919
SWIDTH 960 0
DWIDTH 12 0
BBX 12 12 0 -2
BITMAP
0000
79e0
30c0
30c0
30c0
3fc0
30c0
30c0
30c0
30c0
79e0
0000
ENDCHAR
STARTCHAR U0398
ENCODING 920
SWIDTH 960 0
DWIDTH 12 0
BBX 12 12 0 -2
BITMAP
0000
0f00
1980
30c0
69a0
6fa0
69a0
6060
30c0
1980
0f00
0000
ENDCHAR
STARTCHAR U0399
ENCODING 921
SWIDTH 960 0
DWIDTH 12 0
BBX 12 12 0 -2
BITMAP
0000
0f00
0600
0600
0600
0600
0600
0600
0600
0600
0f00
0000
ENDCHAR
STARTCHAR U039A
ENCODING 922
SWIDTH 960 0
DWIDTH 12 0
BBX 12 12 0 -2
BITMAP
0000
3dc0
1980
1b00
1a00
1c00
1a00
1b00
1980
18c0
3de0
0000
ENDCHAR
STARTCHAR U039B
ENCODING 923
SWIDTH 960 0
DWIDTH 12 0
BBX 12 12 0 -2
BITMAP
0000
0600
0600
0d00
0d00
1980
1980
1980
30c0
30c0
79e0
0000
ENDCHAR
STARTCHAR U039C
ENCODING 924
SWIDTH 960 0
DWIDTH 12 0
BBX 12 12 0 -2
BITMAP
0000
e070
6060
70e0
70e0
69a0
69a0
6d60
6d60
6660
f6f0
0000
ENDCHAR
STARTCHAR U039D
ENCODING 925
SWIDTH 960 0
DWIDTH 12 0
BBX 12 12 0 -2
BITMAP
0000
39e0
1cc0
1ac0
1ac0
1b40
1b40
19c0
19c0
18c0
3cc0
0000
ENDCHAR
STARTCHAR U039E
ENCODING 926
SWIDTH 960 0
DWIDTH 12 0
BBX 12 12 0 -2
BITMAP
0000
3fe0
3060
0000
18c0
1fc0
18c0
0000
0000
3060
3fe0
0000
ENDCHAR
STARTCHAR U039F
ENCODING 927
SWIDTH 960 0
DWIDTH 12 0
BBX 12 12 0 -2
BITMAP
0000
0f00
1980
30c0
6060
6060
6060
6060
30c0
1980
0f00
0000
ENDCHAR
STARTCHAR U03A0
ENCODING 928
SWIDTH 960 0
DWIDTH 12 0
BBX 12 12 0 -2
BITMAP
0000
7fe0
30c0
30c0
30c0
30c0
30c0
30c0
30c0
30c0
79e0
0000
ENDCHAR
STARTCHAR U03A1
ENCODING 929
SWIDTH 960 0
DWIDTH 12 0
BBX 12 12 0 -2
BITMAP
0000
3f00
1980
18c0
18c0
1980
1f00
1800
1800
1800
3c00
0000
ENDCHAR
STARTCHAR U03A3
ENCODING 931
SWIDTH 960 0
DWIDTH 12 0
BBX 12 12 0 -2
BITMAP
0000
7f80
3180
18c0
0c00
0600
0600
0c00
1860
3060
7fc0
0000
ENDCHAR
STARTCHAR U03A4
ENCODING 932
SWIDTH 960 0
DWIDTH 12 0
BBX 12 12 0 -2
BITMAP
0000
7fe0
6660
6660
0600
0600
0600
0600
0600
0600
0f00
0000
ENDCHAR
STARTCHAR U03A5
ENCODING 933
SWIDTH 960 0
DWIDTH 12 0
BBX 12 12 0 -2
BITMAP
0000
3dc0
6660
6660
0600
0600
0600
0600
0600
0600
0f00
0000
ENDCHAR
STARTCHAR U03A6
ENCODING 934
SWIDTH 960 0
DWIDTH 12 0
BBX 12 12 0 -2
BITMAP
0000
0f00
0600
1f80
36c0
36c0
36c0
1f80
0600
0600
0f00
0000
ENDCHAR
STARTCHAR U03A7
ENCODING 935
SWIDTH 960 0
DWIDTH 12 0
BBX 12 12 0 -2
BITMAP
0000
79e0
30c0
1980
0d00
0600
0600
0d00
1980
30c0
79e0
0000
ENDCHAR
STARTCHAR U03A8
ENCODING 936
SWIDTH 960 0
DWIDTH 12 0
BBX 12 12 0 -2
BITMAP
0000
0f00
6660
36c0
36c0
36c0
1a80
0f00
0600
0600
0f00
0000
ENDCHAR
STARTCHAR U03A9
ENCODING 937
SWIDTH 960 0
DWIDTH 12 0
BBX 12 12 0 -2
BITMAP
0000
0f00
1980
30c0
30c0
30c0
30c0
1980
6d60
6d60
7de0
0000
ENDCHAR
STARTCHAR U03B1
ENCODING 945
SWIDTH 960 0
DWIDTH 12 0
BBX 12 12 0 -2
BITMAP
0000
0000
0000
0000
0ec0
1b40
3380
3300
3600
3700
1dc0
0000
ENDCHAR
STARTCHAR U03B2
ENCODING 946
SWIDTH 960 0
DWIDTH 12 0
BBX 12 12 0 -2
BITMAP
0000
0380
06c0
06c0
0d80
0d00
1980
1980
3b00
3600
6000
6000
ENDCHAR
STARTCHAR U03B3
ENCODING 947
SWIDTH 960 0
DWIDTH 12 0
BBX 12 12 0 -2
BITMAP
0000
0000
0000
1ce0
3680
0300
0600
0600
0c00
0c00
1800
0000
ENDCHAR
STARTCHAR U03B4
ENCODING 948
SWIDTH 960 0
DWIDTH 12 0
BBX 12 12 0 -2
BITMAP
0000
0700
0dc0
0600
0300
0700
0d80
1980
3180
3300
1e00
0000
ENDCHAR
STARTCHAR U03B5
ENCODING 949
SWIDTH 960 0
DWIDTH 12 0
BBX 12 12 0 -2
BITMAP
0000
0000
0000
0f00
1980
1800
0e00
1800
3180
3300
1e00
0000
ENDCHAR
STARTCHAR U03B6
ENCODING 950
SWIDTH 960 0
DWIDTH 12 0
BBX 12 12 0 -2
BITMAP
0000
0c00
0dc0
0780
0600
0c00
1800
1800
1800
0e00
3300
1e00
ENDCHAR
STARTCHAR U03B7
ENCODING 951
SWIDTH 960 0
DWIDTH 12 0
BBX 12 12 0 -2
BITMAP
0000
0000
0000
0000
1b80
36c0
0cc0
1980
1980
3300
0300
0300
ENDCHAR
STARTCHAR U03B8
ENCODING 952
SWIDTH 960 0
DWIDTH 12 0
BBX 12 12 0 -2
BITMAP
0000
0380
06c0
0cc0
18c0
1fc0
3180
3180
3300
3600
1c00
0000
ENDCHAR
STARTCHAR U03B9
ENCODING 953
SWIDTH 960 0
DWIDTH 12 0
BBX 12 12 0 -2
BITMAP
0000
0000
0000
0300
0600
0c00
0c00
1800
18c0
1b80
0e00
0000
ENDCHAR
STARTCHAR U03BA
ENCODING 954
SWIDTH 960 0
DWIDTH 12 0
BBX 12 12 0 -2
BITMAP
0000
0000
0000
18c0
0d80
0d00
1e00
1a00
36c0
36c0
6380
0000
ENDCHAR
STARTCHAR U03BB
ENCODING 955
SWIDTH 960 0
DWIDTH 12 0
BBX 12 12 0 -2
BITMAP
0000
0000
0e00
0300
0300
0300
0700
0d00
1980
3180
30e0
0000
ENDCHAR
STARTCHAR U03BC
ENCODING 956
SWIDTH 960 0
DWIDTH 12 0
BBX 12 12 0 -2
BITMAP
0000
0000
0000
0cc0
0cc0
18c0
1980
3180
3b80
36e0
6000
6000
ENDCHAR
STARTCHAR U03BD
ENCODING 957
SWIDTH 960 0
DWIDTH 12 0
BBX 12 12 0 -2
BITMAP
0000
0000
0000
0000
18c0
0cc0
0d80
1980
1b00
1a00
3c00
0000
ENDCHAR
STARTCHAR U03BE
ENCODING 958
SWIDTH 960 0
DWIDTH 12 0
BBX 12 12 0 -2
BITMAP
0000
0600
03c0
0600
0c00
0700
0c00
1800
0f00
0180
1980
0f00
ENDCHAR
STARTCHAR U03BF
ENCODING 959
SWIDTH 960 0
DWIDTH 12 0
BBX 12 12 0 -2
BITMAP
0000
0000
0000
0000
0f00
1980
3180
3180
3180
3300
1e00
0000
ENDCHAR
STARTCHAR U03C0
ENCODING 960
SWIDTH 960 0
DWIDTH 12 0
BBX 12 12 0 -2
BITMAP
0000
0000
0000
0060
1fc0
3580
0d00
1b00
1a00
36c0
6380
0000
ENDCHAR
STARTCHAR U03C1
ENCODING 961
SWIDTH 960 0
DWIDTH 12 0
BBX 12 12 0 -2
BITMAP
0000
0000
0000
0780
0cc0
18c0
18c0
1d80
1b00
3000
3000
3000
ENDCHAR
STARTCHAR U03C3
ENCODING 963
SWIDTH 960 0
DWIDTH 12 0
BBX 12 12 0 -2
BITMAP
0000
0000
0000
0060
07c0
1d00
3180
3180
3180
1b00
0e00
0000
ENDCHAR
STARTCHAR U03C4
ENCODING 964
SWIDTH 960 0
DWIDTH 12 0
BBX 12 12 0 -2
BITMAP
0000
0000
00c0
1f80
3600
0600
0c00
0c00
1800
1b00
0e00
0000
ENDCHAR
STARTCHAR U03C5
ENCODING 965
SWIDTH 960 0
DWIDTH 12 0
BBX 12 12 0 -2
BITMAP
0000
0000
0000
0000
3180
68c0
18c0
1980
3180
3700
1c00
0000
ENDCHAR
STARTCHAR U03C6
ENCODING 966
SWIDTH 960 0
DWIDTH 12 0
BBX 12 12 0 -2
BITMAP
0000
0180
0180
0300
0f80
1b40
3360
3660
36c0
1f80
0c00
0c00
ENDCHAR
STARTCHAR U03C7
ENCODING 967
SWIDTH 960 0
DWIDTH 12 0
BBX 12 12 0 -2
BITMAP
0000
0000
00c0
18c0
3580
3700
0600
0e00
1a00
3340
3180
0000
ENDCHAR
STARTCHAR U03C8
ENCODING 968
SWIDTH 960 0
DWIDTH 12 0
BBX 12 12 0 -2
BITMAP
0000
0180
0180
3340
1b60
1b60
3660
36c0
1f80
0c00
0c00
0c00
ENDCHAR
STARTCHAR U03C9
ENCODING 969
SWIDTH 960 0
DWIDTH 12 0
BBX 12 12 0 -2
BITMAP
0000
0000
0000
0000
18c0
3060
3060
6660
6660
6ec0
3b80
0000
ENDCHAR
STARTCHAR U0401
ENCODING 1025
SWIDTH 960 0
DWIDTH 12 0
BBX 12 12 0 -2
BITMAP
1dc0
0000
3fc0
1860
1800
1980
1f80
1980
1860
1860
3fc0
0000
ENDCHAR
STARTCHAR U0410
ENCODING 1040
SWIDTH 960 0
DWIDTH 12 0
BBX 12 12 0 -2
BITMAP
0000
0600
0600
0d00
0d00
1980
1980
1f80
30c0
30c0
79e0
0000
ENDCHAR
STARTCHAR U0411
ENCODING 1041
SWIDTH 960 0
DWIDTH 12 0
BBX 12 12 0 -2
BITMAP
0000
3fc0
18c0
1800
1800
1f00
1980
18c0
18c0
1980
3f00
0000
ENDCHAR
STARTCHAR U0412
ENCODING 1042
SWIDTH 960 0
DWIDTH 12 0
BBX 12 12 0 -2
BITMAP
0000
3f00
1980
18c0
1980
1f00
1980
18c0
18c0
1980
3f00
0000
ENDCHAR
STARTCHAR U0413
ENCODING 1043
SWIDTH 960 0
DWIDTH 12 0
BBX 12 12 0 -2
BITMAP
0000
3f80
1980
18c0
1800
1800
1800
1800
1800
1800
3c00
0000
ENDCHAR
STARTCHAR U0414
ENCODING 1044
SWIDTH 960 0
DWIDTH 12 0
BBX 12 12 0 -2
BITMAP
0000
1fe0
0d80
0d80
0d80
0d80
0d80
1980
1980
3180
7fe0
6060
ENDCHAR
STARTCHAR U0415
ENCODING 1045
SWIDTH 960 0
DWIDTH 12 0
BBX 12 12 0 -2
BITMAP
0000
3fc0
1860
1800
1980
1f80
1980
1800
1860
1860
3fc0
0000
ENDCHAR
STARTCHAR U0416
ENCODING 1046
SWIDTH 960 0
DWIDTH 12 0
BBX 12 12 0 -2
BITMAP
0000
6f60
36c0
36c0
1a80
0f00
1a80
3680
36c0
36c0
7760
0000
ENDCHAR
STARTCHAR U0417
ENCODING 1047
SWIDTH 960 0
DWIDTH 12 0
BBX 12 12 0 -2
BITMAP
0000
0f00
1980
3180
0180
0700
0180
00c0
30c0
3980
3700
0000
ENDCHAR
STARTCHAR U0418
ENCODING 1048
SWIDTH 960 0
DWIDTH 12 0
BBX 12 12 0 -2
BITMAP
0000
3ce0
19c0
1b40
1b40
1ac0
1ac0
1cc0
1cc0
18c0
3de0
0000
ENDCHAR
STARTCHAR U0419
ENCODING 1049
SWIDTH 960 0
DWIDTH 12 0
BBX 12 12 0 -2
BITMAP
0d80
0700
3ce0
19c0
1b40
1b40
1ac0
1cc0
1cc0
18c0
3de0
0000
ENDCHAR
STARTCHAR U041A
ENCODING 1050
SWIDTH 960 0
DWIDTH 12 0
BBX 12 12 0 -2
BITMAP
0000
3cc0
19a0
1b00
1a00
1c00
1a00
1b00
1980
18c0
3de0
0000
ENDCHAR
STARTCHAR U041B
ENCODING 1051
SWIDTH 960 0
DWIDTH 12 0
BBX 12 12 0 -2
BITMAP
0000
1fe0
06c0
06c0
06c0
06c0
0cc0
0cc0
0cc0
68c0
31e0
0000
ENDCHAR
STARTCHAR U041C
ENCODING 1052
SWIDTH 960 0
DWIDTH 12 0
BBX 12 12 0 -2
BITMAP
0000
70e0
30c0
39c0
39c0
3540
3540
6660
6660
6660
f0f0
0000
ENDCHAR
STARTCHAR U041D
ENCODING 1053
SWIDTH 960 0
DWIDTH 12 0
BBX 12 12 0 -2
BITMAP
0000
79e0
30c0
30c0
30c0
3fc0
30c0
30c0
30c0
30c0
79e0
0000
ENDCHAR
STARTCHAR U041E
ENCODING 1054
SWIDTH 960 0
DWIDTH 12 0
BBX 12 12 0 -2
BITMAP
0000
0f00
1980
30c0
6060
6060
6060
6060
30c0
1980
0f00
0000
ENDCHAR
STARTCHAR U041F
ENCODING 1055
SWIDTH 960 0
DWIDTH 12 0
BBX 12 12 0 -2
BITMAP
0000
7fc0
3180
3180
3180
3180
3180
3180
3180
3180
7bc0
0000
ENDCHAR
STARTCHAR U0420
ENCODING 1056
SWIDTH 960 0
DWIDTH 12 0
BBX 12 12 0 -2
BITMAP
0000
3f00
1980
18c0
18c0
1980
1f00
1800
1800
1800
3c00
0000
ENDCHAR
STARTCHAR U0421
ENCODING 1057
SWIDTH 960 0
DWIDTH 12 0
BBX 12 12 0 -2
BITMAP
0000
07a0
0ce0
1860
3000
3000
3000
3000
1860
0cc0
0780
0000
ENDCHAR
STARTCHAR U0422
ENCODING 1058
SWIDTH 960 0
DWIDTH 12 0
BBX 12 12 0 -2
BITMAP
0000
7fe0
6660
6660
0600
0600
0600
0600
0600
0600
0f00
0000
ENDCHAR
STARTCHAR U0423
ENCODING 1059
SWIDTH 960 0
DWIDTH 12 0
BBX 12 12 0 -2
BITMAP
0000
79e0
30c0
1980
1980
0d00
0d00
0600
0600
3600
1c00
0000
ENDCHAR
STARTCHAR U0424
ENCODING 1060
SWIDTH 960 0
DWIDTH 12 0
BBX 12 12 0 -2
BITMAP
0000
0f00
0600
1f80
36c0
6660
6660
36c0
1f80
0600
0f00
0000
ENDCHAR
STARTCHAR U0425
ENCODING 1061
SWIDTH 960 0
DWIDTH 12 0
BBX 12 12 0 -2
BITMAP
0000
79e0
30c0
1980
0d00
0600
0600
0d00
1980
30c0
79e0
0000
ENDCHAR
STARTCHAR U0426
ENCODING 1062
SWIDTH 960 0
DWIDTH 12 0
BBX 12 12 0 -2
BITMAP
0000
7bc0
3180
3180
3180
3180
3180
3180
3180
3180
7fe0
0060
ENDCHAR
STARTCHAR U0427
ENCODING 1063
SWIDTH 960 0
DWIDTH 12 0
BBX 12 12 0 -2
BITMAP
0000
7bc0
3180
3180
3180
3180
1b80
0e80
0180
0180
03c0
0000
ENDCHAR
STARTCHAR U0428
ENCODING 1064
SWIDTH 960 0
DWIDTH 12 0
BBX 12 12 0 -2
BITMAP
0000
f770
6660
6660
6660
6660
6660
6660
6660
6660
fff0
0000
ENDCHAR
STARTCHAR U0429
ENCODING 1065
SWIDTH 960 0
DWIDTH 12 0
BBX 12 12 0 -2
BITMAP
0000
f770
6660
6660
6660
6660
6660
6660
6660
6660
fff8
0018
ENDCHAR
STARTCHAR U042A
ENCODING 1066
SWIDTH 960 0
DWIDTH 12 0
BBX 12 12 0 -2
BITMAP
0000
3c00
6c00
0c00
0c00
0f80
0cc0
0c60
0c60
0cc0
1f80
0000
ENDCHAR
STARTCHAR U042B
ENCODING 1067
SWIDTH 960 0
DWIDTH 12 0
BBX 12 12 0 -2
BITMAP
0000
71e0
30c0
30c0
30c0
3cc0
36c0
3340
3340
36c0
7de0
0000
ENDCHAR
STARTCHAR U042C
ENCODING 1068
SWIDTH 960 0
DWIDTH 12 0
BBX 12 12 0 -2
BITMAP
0000
3800
1800
1800
1f00
1980
18c0
18c0
18c0
1980
1f00
0000
ENDCHAR
STARTCHAR U042D
ENCODING 1069
SWIDTH 960 0
DWIDTH 12 0
BBX 12 12 0 -2
BITMAP
0000
3700
3980
30c0
00c0
0ec0
1bc0
00c0
30c0
1980
0f00
0000
ENDCHAR
STARTCHAR U042E
ENCODING 1070
SWIDTH 960 0
DWIDTH 12 0
BBX 12 12 0 -2
BITMAP
0000
f380
66c0
6c60
6c60
7c60
6c60
6c60
6c60
66c0
f380
0000
ENDCHAR
STARTCHAR U042F
ENCODING 1071
SWIDTH 960 0
DWIDTH 12 0
BBX 12 12 0 -2
BITMAP
0000
0fe0
18c0
30c0
18c0
0fc0
0340
06c0
0cc0
18c0
79e0
0000
ENDCHAR
STARTCHAR U0430
ENCODING 1072
SWIDTH 960 0
DWIDTH 12 0
BBX 12 12 0 -2
BITMAP
0000
0000
0000
0000
0700
0d80
0780
0d80
1980
1b00
0ec0
0000
ENDCHAR
STARTCHAR U0431
ENCODING 1073
SWIDTH 960 0
DWIDTH 12 0
BBX 12 12 0 -2
BITMAP
0000
0380
0e00
1800
3000
3600
3b00
3180
3180
1b00
0e00
0000
ENDCHAR
STARTCHAR U0432
ENCODING 1074
SWIDTH 960 0
DWIDTH 12 0
BBX 12 12 0 -2
BITMAP
0000
0000
0000
0000
3f00
1980
1980
1f00
1980
1980
3f00
0000
ENDCHAR
STARTCHAR U0433
ENCODING 1075
SWIDTH 960 0
DWIDTH 12 0
BBX 12 12 0 -2
BITMAP
0000
0000
0000
0000
3f00
1980
1800
1800
1800
1800
3c00
0000
ENDCHAR
STARTCHAR U0434
ENCODING 1076
SWIDTH 960 0
DWIDTH 12 0
BBX 12 12 0 -2
BITMAP
0000
0000
0000
0000
1fc0
0d80
0d80
0d80
1980
1980
7fc0
60c0
ENDCHAR
STARTCHAR U0435
ENCODING 1077
SWIDTH 960 0
DWIDTH 12 0
BBX 12 12 0 -2
BITMAP
0000
0000
0000
0000
0e00
1b00
3180
3f80
3000
1980
0f00
0000
ENDCHAR
STARTCHAR U0436
ENCODING 1078
SWIDTH 960 0
DWIDTH 12 0
BBX 12 12 0 -2
BITMAP
0000
0000
0000
0000
7760
1a80
1a80
0f00
1a80
36c0
7760
0000
ENDCHAR
STARTCHAR U0437
ENCODING 1079
SWIDTH 960 0
DWIDTH 12 0
BBX 12 12 0 -2
BITMAP
0000
0000
0000
0000
0780
1cc0
00c0
0780
00c0
18c0
0f80
0000
ENDCHAR
STARTCHAR U0438
ENCODING 1080
SWIDTH 960 0
DWIDTH 12 0
BBX 12 12 0 -2
BITMAP
0000
0000
0000
0000
3de0
19c0
1b40
1ac0
1cc0
18c0
3de0
0000
ENDCHAR
STARTCHAR U0439
ENCODING 1081
SWIDTH 960 0
DWIDTH 12 0
BBX 12 12 0 -2
BITMAP
0000
0d80
0700
0000
3de0
19c0
1b40
1ac0
1cc0
18c0
3de0
0000
ENDCHAR
STARTCHAR U043A
ENCODING 1082
SWIDTH 960 0
DWIDTH 12 0
BBX 12 12 0 -2
BITMAP
0000
0000
0000
0000
3d80
1b40
1a00
1c00
1a00
1b00
3dc0
0000
ENDCHAR
STARTCHAR U043B
ENCODING 1083
SWIDTH 960 0
DWIDTH 12 0
BBX 12 12 0 -2
BITMAP
0000
0000
0000
0000
1f80
0d00
0d00
0d00
1b00
6b00
3780
0000
ENDCHAR
STARTCHAR U043C
ENCODING 1084
SWIDTH 960 0
DWIDTH 12 0
BBX 12 12 0 -2
BITMAP
0000
0000
0000
0000
70e0
39c0
39c0
3540
3540
36c0
7ae0
0000
ENDCHAR
STARTCHAR U043D
ENCODING 1085
SWIDTH 960 0
DWIDTH 12 0
BBX 12 12 0 -2
BITMAP
0000
0000
0000
0000
3dc0
1980
1980
1f80
1980
1980
3dc0
0000
ENDCHAR
STARTCHAR U043E
ENCODING 1086
SWIDTH 960 0
DWIDTH 12 0
BBX 12 12 0 -2
BITMAP
0000
0000
0000
0000
0f00
1980
30c0
30c0
30c0
1980
0f00
0000
ENDCHAR
STARTCHAR U043F
ENCODING 1087
SWIDTH 960 0
DWIDTH 12 0
BBX 12 12 0 -2
BITMAP
0000
0000
0000
0000
3fc0
1980
1980
1980
1980
1980
3dc0
0000
ENDCHAR
STARTCHAR U0440
ENCODING 1088
SWIDTH 960 0
DWIDTH 12 0
BBX 12 12 0 -2
BITMAP
0000
0000
0000
0000
3b00
1d80
18c0
18c0
1d80
1b00
1800
3c00
ENDCHAR
STARTCHAR U0441
ENCODING 1089
SWIDTH 960 0
DWIDTH 12 0
BBX 12 12 0 -2
BITMAP
0000
0000
0000
0000
0f00
1980
3000
3000
3000
1980
0f00
0000
ENDCHAR
STARTCHAR U0442
ENCODING 1090
SWIDTH 960 0
DWIDTH 12 0
BBX 12 12 0 -2
BITMAP
0000
0000
0000
0000
3fc0
36c0
0600
0600
0600
0600
0f00
0000
ENDCHAR
STARTCHAR U0443
ENCODING 1091
SWIDTH 960 0
DWIDTH 12 0
BBX 12 12 0 -2
BITMAP
0000
0000
0000
3de0
18c0
0cc0
0680
0380
0300
0600
3600
1c00
ENDCHAR
STARTCHAR U0444
ENCODING 1092
SWIDTH 960 0
DWIDTH 12 0
BBX 12 12 0 -2
BITMAP
0000
0f00
0600
1a80
3740
6660
6660
6660
3740
1a80
0600
0f00
ENDCHAR
STARTCHAR U0445
ENCODING 1093
SWIDTH 960 0
DWIDTH 12 0
BBX 12 12 0 -2
BITMAP
0000
0000
0000
0000
3dc0
1980
0d00
0600
0d00
1980
3dc0
0000
ENDCHAR
STARTCHAR U0446
ENCODING 1094
SWIDTH 960 0
DWIDTH 12 0
BBX 12 12 0 -2
BITMAP
0000
0000
0000
0000
3dc0
1980
1980
1980
1980
1980
3fc0
00c0
ENDCHAR
STARTCHAR U0447
ENCODING 1095
SWIDTH 960 0
DWIDTH 12 0
BBX 12 12 0 -2
BITMAP
0000
0000
0000
0000
3dc0
1980
1980
0f80
0180
0180
03c0
0000
ENDCHAR
STARTCHAR U0448
ENCODING 1096
SWIDTH 960 0
DWIDTH 12 0
BBX 12 12 0 -2
BITMAP
0000
0000
0000
0000
36c0
36c0
36c0
36c0
36c0
36c0
3fc0
0000
ENDCHAR
STARTCHAR U0449
ENCODING 1097
SWIDTH 960 0
DWIDTH 12 0
BBX 12 12 0 -2
BITMAP
0000
0000
0000
0000
6d80
6d80
6d80
6d80
6d80
6d80
7fe0
0060
ENDCHAR
STARTCHAR U044A
ENCODING 1098
SWIDTH 960 0
DWIDTH 12 0
BBX 12 12 0 -2
BITMAP
0000
0000
0000
0000
3800
6800
1f00
1980
1980
1980
3f00
0000
ENDCHAR
STARTCHAR U044B
ENCODING 1099
SWIDTH 960 0
DWIDTH 12 0
BBX 12 12 0 -2
BITMAP
0000
0000
0000
0000
7bc0
3180
3180
3d80
3680
3680
7dc0
0000
ENDCHAR
STARTCHAR U044C
ENCODING 1100
SWIDTH 960 0
DWIDTH 12 0
BBX 12 12 0 -2
BITMAP
0000
0000
0000
0000
3c00
1800
1f00
1980
1980
1980
3f00
0000
ENDCHAR
STARTCHAR U044D
ENCODING 1101
SWIDTH 960 0
DWIDTH 12 0
BBX 12 12 0 -2
BITMAP
0000
0000
0000
0000
1f00
3180
0d80
1a80
0180
3180
1f00
0000
ENDCHAR
STARTCHAR U044E
ENCODING 1102
SWIDTH 960 0
DWIDTH 12 0
BBX 12 12 0 -2
BITMAP
0000
0000
0000
0000
7b80
36c0
3460
3c60
3460
36c0
7b80
0000
ENDCHAR
STARTCHAR U044F
ENCODING 1103
SWIDTH 960 0
DWIDTH 12 0
BBX 12 12 0 -2
BITMAP
0000
0000
0000
0000
0fc0
1980
1980
0f80
0d80
1980
3dc0
0000
ENDCHAR
STARTCHAR U0451
ENCODING 1105
SWIDTH 960 0
DWIDTH 12 0
BBX 12 12 0 -2
BITMAP
0000
0000
1b00
0000
0e00
1b00
3180
3f80
3000
1980
0f00
0000
ENDCHAR
STARTCHAR U2010
ENCODING 8208
SWIDTH 960 0
DWIDTH 12 0
BBX 12 12 0 -2
BITMAP
0000
0000
0000
0000
0000
0000
0f80
0000
0000
0000
0000
0000
ENDCHAR
STARTCHAR U2015
ENCODING 8213
SWIDTH 960 0
DWIDTH 12 0
BBX 12 12 0 -2
BITMAP
0000
0000
0000
0000
0000
0000
fff8
0000
0000
0000
0000
0000
ENDCHAR
STARTCHAR U2018
ENCODING 8216
SWIDTH 960 0
DWIDTH 12 0
BBX 12 12 0 -2
BITMAP
0030
0060
0060
0070
0000
0000
0000
0000
0000
0000
0000
0000
ENDCHAR
STARTCHAR U2019
ENCODING 8217
SWIDTH 960 0
DWIDTH 12 0
BBX 12 12 0 -2
BITMAP
3800
1800
1800
3000
0000
0000
0000
0000
0000
0000
0000
0000
ENDCHAR
STARTCHAR U201C
ENCODING 8220
SWIDTH 960 0
DWIDTH 12 0
BBX 12 12 0 -2
BITMAP
01b0
0360
0360
03b0
0000
0000
0000
0000
0000
0000
0000
0000
ENDCHAR
STARTCHAR U201D
ENCODING 8221
SWIDTH 960 0
DWIDTH 12 0
BBX 12 12 0 -2
BITMAP
7600
3600
3600
6c00
0000
0000
0000
0000
0000
0000
0000
0000
ENDCHAR
STARTCHAR U2020
ENCODING 8224
SWIDTH 960 0
DWIDTH 12 0
BBX 12 12 0 -2
BITMAP
0600
0f00
36c0
7fe0
36c0
0f00
0f00
0600
0600
0600
0600
0600
ENDCHAR
STARTCHAR U2021
ENCODING 8225
SWIDTH 960 0
DWIDTH 12 0
BBX 12 12 0 -2
BITMAP
0f00
0f00
36c0
7fe0
36c0
0600
0600
36c0
7fe0
36c0
0f00
0f00
ENDCHAR
STARTCHAR U2025
ENCODING 8229
SWIDTH 960 0
DWIDTH 12 0
BBX 12 12 0 -2
BITMAP
0000
0000
0000
0000
0000
30c0
30c0
0000
0000
0000
0000
0000
ENDCHAR
STARTCHAR U2026
ENCODING 8230
SWIDTH 960 0
DWIDTH 12 0
BBX 12 12 0 -2
BITMAP
0000
0000
0000
0000
0000
6660
6660
0000
0000
0000
0000
0000
ENDCHAR
STARTCHAR U2030
ENCODING 8240
SWIDTH 960 0
DWIDTH 12 0
BBX 12 12 0 -2
BITMAP
3980
6d80
6d00
6e00
3a00
0c00
1800
1a60
3550
6d50
6660
0000
ENDCHAR
STARTCHAR U2032
ENCODING 8242
SWIDTH 960 0
DWIDTH 12 0
BBX 12 12 0 -2
BITMAP
1c00
0c00
0c00
1800
0000
0000
0000
0000
0000
0000
0000
0000
ENDCHAR
STARTCHAR U2033
ENCODING 8243
SWIDTH 960 0
DWIDTH 12 0
BBX 12 12 0 -2
BITMAP
3b00
1b00
1b00
3600
0000
0000
0000
0000
0000
0000
0000
0000
ENDCHAR
STARTCHAR U203B
ENCODING 8251
SWIDTH 960 0
DWIDTH 12 0
BBX 12 12 0 -2
BITMAP
0000
6730
3760
18c0
0d80
7770
7770
0d80
18c0
3760
6730
0000
ENDCHAR
STARTCHAR U203E
ENCODING 8254
SWIDTH 960 0
DWIDTH 6 0
BBX 6 12 0 -2
BITMAP
fe
00
00
00
00
00
00
00
00
00
00
00
ENDCHAR
STARTCHAR U2103
ENCODING 8451
SWIDTH 960 0
DWIDTH 12 0
BBX 12 12 0 -2
BITMAP
0000
33a0
6ae0
3460
1800
1800
1800
1800
1860
0cc0
0780
0000
ENDCHAR
STARTCHAR U212B
ENCODING 8491
SWIDTH 960 0
DWIDTH 12 0
BBX 12 12 0 -2
BITMAP
0600
0d00
0d00
0600
0d00
0d00
1980
1f80
30c0
30c0
79e0
0000
ENDCHAR
STARTCHAR U2190
ENCODING 8592
SWIDTH 960 0
DWIDTH 12 0
BBX 12 12 0 -2
BITMAP
0000
0000
0000
0e00
3800
fff8
3800
0e00
0000
0000
0000
0000
ENDCHAR
STARTCHAR U2191
ENCODING 8593
SWIDTH 960 0
DWIDTH 12 0
BBX 12 12 0 -2
BITMAP
0300
0300
0780
0780
0d40
0d40
0300
0300
0300
0300
0300
0300
ENDCHAR
STARTCHAR U2192
ENCODING 8594
SWIDTH 960 0
DWIDTH 12 0
BBX 12 12 0 -2
BITMAP
0000
0000
0000
0380
00e0
fff8
00e0
0380
0000
0000
0000
0000
ENDCHAR
STARTCHAR U2193
ENCODING 8595
SWIDTH 960 0
DWIDTH 12 0
BBX 12 12 0 -2
BITMAP
0300
0300
0300
0300
0300
0300
0d40
0d40
0780
0780
0300
0300
ENDCHAR
STARTCHAR U21D2
ENCODING 8658
SWIDTH 960 0
DWIDTH 12 0
BBX 12 12 0 -2
BITMAP
0000
0000
00c0
0060
fff0
0018
fff0
0060
00c0
0000
0000
0000
ENDCHAR
STARTCHAR U21D4
ENCODING 8660
SWIDTH 960 0
DWIDTH 12 0
BBX 12 12 0 -2
BITMAP
0000
0000
18c0
3060
7ff0
c018
7ff0
3060
18c0
0000
0000
0000
ENDCHAR
STARTCHAR U2200
ENCODING 8704
SWIDTH 960 0
DWIDTH 12 0
BBX 12 12 0 -2
BITMAP
0000
6060
6060
30c0
3fc0
1980
1980
0d00
0d00
0600
0600
0000
ENDCHAR
STARTCHAR U2202
ENCODING 8706
SWIDTH 960 0
DWIDTH 12 0
BBX 12 12 0 -2
BITMAP
0000
0780
0cc0
00c0
0740
0dc0
19c0
3980
3b80
1b00
0e00
0000
ENDCHAR
STARTCHAR U2203
ENCODING 8707
SWIDTH 960 0
DWIDTH 12 0
BBX 12 12 0 -2
BITMAP
0000
3fe0
0060
0060
0060
3fe0
0060
0060
0060
3fe0
0000
0000
ENDCHAR
STARTCHAR U2207
ENCODING 8711
SWIDTH 960 0
DWIDTH 12 0
BBX 12 12 0 -2
BITMAP
0000
fff0
7fe0
7060
30c0
38c0
1980
1d80
0d00
0f00
0600
0600
ENDCHAR
STARTCHAR U2208
ENCODING 8712
SWIDTH 960 0
DWIDTH 12 0
BBX 12 12 0 -2
BITMAP
0000
0000
0fe0
1800
3000
3fe0
3000
1800
0fe0
0000
0000
0000
ENDCHAR
STARTCHAR U220B
ENCODING 8715
SWIDTH 960 0
DWIDTH 12 0
BBX 12 12 0 -2
BITMAP
0000
0000
3f80
00c0
0060
3fe0
0060
00c0
3f80
0000
0000
0000
ENDCHAR
STARTCHAR U221A
ENCODING 8730
SWIDTH 960 0
DWIDTH 12 0
BBX 12 12 0 -2
BITMAP
03f8
0300
0300
0600
0600
0600
0c00
6c00
f400
3800
1800
0000
ENDCHAR
STARTCHAR U221D
ENCODING 8733
SWIDTH 960 0
DWIDTH 12 0
BBX 12 12 0 -2
BITMAP
0000
0000
0000
1ce0
36b0
6300
6300
36b0
1ce0
0000
0000
0000
ENDCHAR
STARTCHAR U221E
ENCODING 8734
SWIDTH 960 0
DWIDTH 12 0
BBX 12 12 0 -2
BITMAP
0000
0000
0000
39c0
6d60
c630
c630
6d60
39c0
0000
0000
0000
ENDCHAR
STARTCHAR U2220
ENCODING 8736
SWIDTH 960 0
DWIDTH 12 0
BBX 12 12 0 -2
BITMAP
0000
0060
00c0
0180
0300
0600
0c00
1800
3000
7ff0
0000
0000
ENDCHAR
STARTCHAR U2225
ENCODING 8741
SWIDTH 960 0
DWIDTH 12 0
BBX 12 12 0 -2
BITMAP
0d80
0d80
0d80
0d80
0d80
0d80
0d80
0d80
0d80
0d80
0d80
0d80
ENDCHAR
STARTCHAR U2227
ENCODING 8743
SWIDTH 960 0
DWIDTH 12 0
BBX 12 12 0 -2
BITMAP
0000
0600
0600
0d00
0d00
1980
1980
30c0
30c0
6060
6060
0000
ENDCHAR
STARTCHAR U2228
ENCODING 8744
SWIDTH 960 0
DWIDTH 12 0
BBX 12 12 0 -2
BITMAP
0000
6060
6060
30c0
30c0
1980
1980
0d00
0d00
0600
0600
0000
ENDCHAR
STARTCHAR U2229
ENCODING 8745
SWIDTH 960 0
DWIDTH 12 0
BBX 12 12 0 -2
BITMAP
0000
1f00
3180
60c0
60c0
60c0
60c0
60c0
60c0
60c0
60c0
0000
ENDCHAR
STARTCHAR U222A
ENCODING 8746
SWIDTH 960 0
DWIDTH 12 0
BBX 12 12 0 -2
BITMAP
0000
60c0
60c0
60c0
60c0
60c0
60c0
60c0
60c0
3180
1f00
0000
ENDCHAR
STARTCHAR U222B
ENCODING 8747
SWIDTH 960 0
DWIDTH 12 0
BBX 12 12 0 -2
BITMAP
00e0
0180
0300
0300
0380
0380
0180
01c0
01c0
00c0
0180
0700
ENDCHAR
STARTCHAR U222C
ENCODING 8748
SWIDTH 960 0
DWIDTH 12 0
BBX 12 12 0 -2
BITMAP
0770
0cc0
1980
1980
1dc0
1dc0
0cc0
0ee0
0ee0
0660
0cc0
3b80
ENDCHAR
STARTCHAR U2234
ENCODING 8756
SWIDTH 960 0
DWIDTH 12 0
BBX 12 12 0 -2
BITMAP
0000
0000
0700
0700
0000
0000
0000
0000
38e0
38e0
0000
0000
ENDCHAR
STARTCHAR U2235
ENCODING 8757
SWIDTH 960 0
DWIDTH 12 0
BBX 12 12 0 -2
BITMAP
0000
0000
71c0
71c0
0000
0000
0000
0000
0e00
0e00
0000
0000
ENDCHAR
STARTCHAR U223D
ENCODING 8765
SWIDTH 960 0
DWIDTH 12 0
BBX 12 12 0 -2
BITMAP
0000
0000
0000
1dc0
3360
6330
6630
3660
1dc0
0000
0000
0000
ENDCHAR
STARTCHAR U2252
ENCODING 8786
SWIDTH 960 0
DWIDTH 12 0
BBX 12 12 0 -2
BITMAP
0000
1c00
1c00
0000
7ff0
0000
0000
7ff0
0000
01c0
01c0
0000
ENDCHAR
STARTCHAR U2260
ENCODING 8800
SWIDTH 960 0
DWIDTH 12 0
BBX 12 12 0 -2
BITMAP
0000
0180
0180
0300
7fe0
0600
0600
7fe0
0c00
1800
1800
0000
ENDCHAR
STARTCHAR U2261
ENCODING 8801
SWIDTH 960 0
DWIDTH 12 0
BBX 12 12 0 -2
BITMAP
0000
0000
0000
7ff0
0000
0000
7ff0
0000
0000
7ff0
0000
0000
ENDCHAR
STARTCHAR U2266
ENCODING 8806
SWIDTH 960 0
DWIDTH 12 0
BBX 12 12 0 -2
BITMAP
0000
0070
03c0
1e00
7000
1e00
03c0
0070
7ff0
0000
7ff0
0000
ENDCHAR
STARTCHAR U2267
ENCODING 8807
SWIDTH 960 0
DWIDTH 12 0
BBX 12 12 0 -2
BITMAP
0000
7000
1e00
03c0
0070
03c0
1e00
7000
7ff0
0000
7ff0
0000
ENDCHAR
STARTCHAR U226A
ENCODING 8810
SWIDTH 960 0
DWIDTH 12 0
BBX 12 12 0 -2
BITMAP
0000
0000
0660
0cc0
1980
3300
6600
3300
1980
0cc0
0660
0000
ENDCHAR
STARTCHAR U226B
ENCODING 8811
SWIDTH 960 0
DWIDTH 12 0
BBX 12 12 0 -2
BITMAP
0000
0000
6600
3300
1980
0cc0
0660
0cc0
1980
3300
6600
0000
ENDCHAR
STARTCHAR U2282
ENCODING 8834
SWIDTH 960 0
DWIDTH 12 0
BBX 12 12 0 -2
BITMAP
0000
0000
1ff0
3000
6000
6000
6000
6000
3000
1ff0
0000
0000
ENDCHAR
STARTCHAR U2283
ENCODING 8835
SWIDTH 960 0
DWIDTH 12 0
BBX 12 12 0 -2
BITMAP
0000
0000
7fc0
0060
0030
0030
0030
0030
0060
7fc0
0000
0000
ENDCHAR
STARTCHAR U2286
ENCODING 8838
SWIDTH 960 0
DWIDTH 12 0
BBX 12 12 0 -2
BITMAP
0000
0000
1ff0
3000
6000
6000
3000
1ff0
0000
0000
3ff0
0000
ENDCHAR
STARTCHAR U2287
ENCODING 8839
SWIDTH 960 0
DWIDTH 12 0
BBX 12 12 0 -2
BITMAP
0000
0000
7fc0
0060
0030
0030
0060
7fc0
0000
0000
7fe0
0000
ENDCHAR
STARTCHAR U22A5
ENCODING 8869
SWIDTH 960 0
DWIDTH 12 0
BBX 12 12 0 -2
BITMAP
0000
0600
0600
0600
0600
0600
0600
0600
0600
7ff0
0000
0000
ENDCHAR
STARTCHAR U2312
ENCODING 8978
SWIDTH 960 0
DWIDTH 12 0
BBX 12 12 0 -2
BITMAP
0f80
38e0
6030
0000
0000
0000
0000
0000
0000
0000
0000
0000
ENDCHAR
STARTCHAR U2500
ENCODING 9472
SWIDTH 960 0
DWIDTH 12 0
BBX 12 12 0 -2
BITMAP
0000
0000
0000
0000
0000
fff8
0000
0000
0000
0000
0000
0000
ENDCHAR
STARTCHAR U2501
ENCODING 9473
SWIDTH 960 0
DWIDTH 12 0
BBX 12 12 0 -2
BITMAP
0000
0000
0000
0000
0000
fff8
fff8
0000
0000
0000
0000
0000
ENDCHAR
STARTCHAR U2502
ENCODING 9474
SWIDTH 960 0
DWIDTH 12 0
BBX 12 12 0 -2
BITMAP
0600
0600
0600
0600
0600
0600
0600
0600
0600
0600
0600
0600
ENDCHAR
STARTCHAR U2503
ENCODING 9475
SWIDTH 960 0
DWIDTH 12 0
BBX 12 12 0 -2
BITMAP
0700
0700
0700
0700
0700
0700
0700
0700
0700
0700
0700
0700
ENDCHAR
STARTCHAR U250C
ENCODING 9484
SWIDTH 960 0
DWIDTH 12 0
BBX 12 12 0 -2
BITMAP
0000
0000
0000
0000
0000
07f8
0600
0600
0600
0600
0600
0600
ENDCHAR
STARTCHAR U250F
ENCODING 9487
SWIDTH 960 0
DWIDTH 12 0
BBX 12 12 0 -2
BITMAP
0000
0000
0000
0000
0000
07f8
07f8
0700
0700
0700
0700
0700
ENDCHAR
STARTCHAR U2510
ENCODING 9488
SWIDTH 960 0
DWIDTH 12 0
BBX 12 12 0 -2
BITMAP
0000
0000
0000
0000
0000
fe00
0600
0600
0600
0600
0600
0600
ENDCHAR
STARTCHAR U2513
ENCODING 9491
SWIDTH 960 0
DWIDTH 12 0
BBX 12 12 0 -2
BITMAP
0000
0000
0000
0000
0000
ff00
ff00
0700
0700
0700
0700
0700
ENDCHAR
STARTCHAR U2514
ENCODING 9492
SWIDTH 960 0
DWIDTH 12 0
BBX 12 12 0 -2
BITMAP
0600
0600
0600
0600
0600
07f8
0000
0000
0000
0000
0000
0000
ENDCHAR
STARTCHAR U2517
ENCODING 9495
SWIDTH 960 0
DWIDTH 12 0
BBX 12 12 0 -2
BITMAP
0700
0700
0700
0700
0700
07f8
07f8
0000
0000
0000
0000
0000
ENDCHAR
STARTCHAR U2518
ENCODING 9496
SWIDTH 960 0
DWIDTH 12 0
BBX 12 12 0 -2
BITMAP
0600
0600
0600
0600
0600
fe00
0000
0000
0000
0000
0000
0000
ENDCHAR
STARTCHAR U251B
ENCODING 9499
SWIDTH 960 0
DWIDTH 12 0
BBX 12 12 0 -2
BITMAP
0700
0700
0700
0700
0700
ff00
ff00
0000
0000
0000
0000
0000
ENDCHAR
STARTCHAR U251C
ENCODING 9500
SWIDTH 960 0
DWIDTH 12 0
BBX 12 12 0 -2
BITMAP
0600
0600
0600
0600
0600
07f8
0600
0600
0600
0600
0600
0600
ENDCHAR
STARTCHAR U251D
ENCODING 9501
SWIDTH 960 0
DWIDTH 12 0
BBX 12 12 0 -2
BITMAP
0600
0600
0600
0600
0600
07f8
07f8
0600
0600
0600
0600
0600
ENDCHAR
STARTCHAR U2520
ENCODING 9504
SWIDTH 960 0
DWIDTH 12 0
BBX 12 12 0 -2
BITMAP
0700
0700
0700
0700
0700
07f8
0700
0700
0700
0700
0700
0700
ENDCHAR
STARTCHAR U2523
ENCODING 9507
SWIDTH 960 0
DWIDTH 12 0
BBX 12 12 0 -2
BITMAP
0700
0700
0700
0700
0700
07f8
07f8
0700
0700
0700
0700
0700
ENDCHAR
STARTCHAR U2524
ENCODING 9508
SWIDTH 960 0
DWIDTH 12 0
BBX 12 12 0 -2
BITMAP
0600
0600
0600
0600
0600
fe00
0600
0600
0600
0600
0600
0600
ENDCHAR
STARTCHAR U2525
ENCODING 9509
SWIDTH 960 0
DWIDTH 12 0
BBX 12 12 0 -2
BITMAP
0600
0600
0600
0600
0600
fe00
fe00
0600
0600
0600
0600
0600
ENDCHAR
STARTCHAR U2528
ENCODING 9512
SWIDTH 960 0
DWIDTH 12 0
BBX 12 12 0 -2
BITMAP
0700
0700
0700
0700
0700
ff00
0700
0700
0700
0700
0700
0700
ENDCHAR
STARTCHAR U252B
ENCODING 9515
SWIDTH 960 0
DWIDTH 12 0
BBX 12 12 0 -2
BITMAP
0700
0700
0700
0700
0700
ff00
ff00
0700
0700
0700
0700
0700
ENDCHAR
STARTCHAR U252C
ENCODING 9516
SWIDTH 960 0
DWIDTH 12 0
BBX 12 12 0 -2
BITMAP
0000
0000
0000
0000
0000
fff8
0600
0600
0600
0600
0600
0600
ENDCHAR
STARTCHAR U252F
ENCODING 9519
SWIDTH 960 0
DWIDTH 12 0
BBX 12 12 0 -2
BITMAP
0000
0000
0000
0000
0000
fff8
fff8
0600
0600
0600
0600
0600
ENDCHAR
STARTCHAR U2530
ENCODING 9520
SWIDTH 960 0
DWIDTH 12 0
BBX 12 12 0 -2
BITMAP
0000
0000
0000
0000
0000
fff8
0700
0700
0700
0700
0700
0700
ENDCHAR
STARTCHAR U2533
ENCODING 9523
SWIDTH 960 0
DWIDTH 12 0
BBX 12 12 0 -2
BITMAP
0000
0000
0000
0000
0000
fff8
fff8
0700
0700
0700
0700
0700
ENDCHAR
STARTCHAR U2534
ENCODING 9524
SWIDTH 960 0
DWIDTH 12 0
BBX 12 12 0 -2
BITMAP
0600
0600
0600
0600
0600
fff8
0000
0000
0000
0000
0000
0000
ENDCHAR
STARTCHAR U2537
ENCODING 9527
SWIDTH 960 0
DWIDTH 12 0
BBX 12 12 0 -2
BITMAP
0600
0600
0600
0600
0600
fff8
fff8
0000
0000
0000
0000
0000
ENDCHAR
STARTCHAR U2538
ENCODING 9528
SWIDTH 960 0
DWIDTH 12 0
BBX 12 12 0 -2
BITMAP
0700
0700
0700
0700
0700
fff8
0000
0000
0000
0000
0000
0000
ENDCHAR
STARTCHAR U253B
ENCODING 9531
SWIDTH 960 0
DWIDTH 12 0
BBX 12 12 0 -2
BITMAP
0700
0700
0700
0700
0700
fff8
fff8
0000
0000
0000
0000
0000
ENDCHAR
STARTCHAR U253C
ENCODING 9532
SWIDTH 960 0
DWIDTH 12 0
BBX 12 12 0 -2
BITMAP
0600
0600
0600
0600
0600
fff8
0600
0600
0600
0600
0600
0600
ENDCHAR
STARTCHAR U253F
ENCODING 9535
SWIDTH 960 0
DWIDTH 12 0
BBX 12 12 0 -2
BITMAP
0600
0600
0600
0600
0600
fff8
fff8
0600
0600
0600
0600
0600
ENDCHAR
STARTCHAR U2542
ENCODING 9538
SWIDTH 960 0
DWIDTH 12 0
BBX 12 12 0 -2
BITMAP
0700
0700
0700
0700
0700
fff8
0700
0700
0700
0700
0700
0700
ENDCHAR
STARTCHAR U254B
ENCODING 9547
SWIDTH 960 0
DWIDTH 12 0
BBX 12 12 0 -2
BITMAP
0700
0700
0700
0700
0700
fff8
fff8
0700
0700
0700
0700
0700
ENDCHAR
STARTCHAR U25A0
ENCODING 9632
SWIDTH 960 0
DWIDTH 12 0
BBX 12 12 0 -2
BITMAP
0000
fff0
fff0
fff0
fff0
fff0
fff0
fff0
fff0
fff0
fff0
fff0
ENDCHAR
STARTCHAR U25A1
ENCODING 9633
SWIDTH 960 0
DWIDTH 12 0
BBX 12 12 0 -2
BITMAP
0000
fff0
c030
c030
c030
c030
c030
c030
c030
c030
c030
fff0
ENDCHAR
STARTCHAR U25B2
ENCODING 9650
SWIDTH 960 0
DWIDTH 12 0
BBX 12 12 0 -2
BITMAP
0600
0600
0f00
0f00
1f80
1f80
3fc0
3fc0
7fe0
7fe0
fff0
0000
ENDCHAR
STARTCHAR U25B3
ENCODING 9651
SWIDTH 960 0
DWIDTH 12 0
BBX 12 12 0 -2
BITMAP
0600
0600
0d00
0d00
1980
1980
30c0
30c0
6060
6060
fff0
0000
ENDCHAR
STARTCHAR U25BC
ENCODING 9660
SWIDTH 960 0
DWIDTH 12 0
BBX 12 12 0 -2
BITMAP
0000
fff0
7fe0
7fe0
3fc0
3fc0
1f80
1f80
0f00
0f00
0600
0600
ENDCHAR
STARTCHAR U25BD
ENCODING 9661
SWIDTH 960 0
DWIDTH 12 0
BBX 12 12 0 -2
BITMAP
0000
fff0
6060
6060
30c0
30c0
1980
1980
0d00
0d00
0600
0600
ENDCHAR
STARTCHAR U25C6
ENCODING 9670
SWIDTH 960 0
DWIDTH 12 0
BBX 12 12 0 -2
BITMAP
0000
0600
0f00
1f80
3fc0
7fe0
fff0
7fe0
3fc0
1f80
0f00
0600
ENDCHAR
STARTCHAR U25C7
ENCODING 9671
SWIDTH 960 0
DWIDTH 12 0
BBX 12 12 0 -2
BITMAP
0000
0600
0d00
1980
30c0
6060
c030
6060
30c0
1980
0d00
0600
ENDCHAR
STARTCHAR U25CB
ENCODING 9675
SWIDTH 960 0
DWIDTH 12 0
BBX 12 12 0 -2
BITMAP
0000
0f00
39c0
6060
6060
c030
c030
c030
6060
6060
39c0
0f00
ENDCHAR
STARTCHAR U25CE
ENCODING 9678
SWIDTH 960 0
DWIDTH 12 0
BBX 12 12 0 -2
BITMAP
0000
0f00
39c0
6f60
69a0
d0d0
d0d0
d0d0
69a0
6f60
39c0
0f00
ENDCHAR
STARTCHAR U25CF
ENCODING 9679
SWIDTH 960 0
DWIDTH 12 0
BBX 12 12 0 -2
BITMAP
0000
0f00
3fc0
7fe0
7fe0
fff0
fff0
fff0
7fe0
7fe0
3fc0
0f00
ENDCHAR
STARTCHAR U25EF
ENCODING 9711
SWIDTH 960 0
DWIDTH 12 0
BBX 12 12 0 -2
BITMAP
0f80
38e0
6030
6030
c018
c018
c018
c018
6030
6030
38e0
0f80
ENDCHAR
STARTCHAR U2605
ENCODING 9733
SWIDTH 960 0
DWIDTH 12 0
BBX 12 12 0 -2
BITMAP
0000
0600
0600
0f00
fff0
7fe0
3fc0
1f80
3fc0
3dc0
70e0
0000
ENDCHAR
STARTCHAR U2606
ENCODING 9734
SWIDTH 960 0
DWIDTH 12 0
BBX 12 12 0 -2
BITMAP
0000
0600
0600
0d00
fdf0
6060
30c0
1980
36c0
3dc0
70e0
0000
ENDCHAR
STARTCHAR U2640
ENCODING 9792
SWIDTH 960 0
DWIDTH 12 0
BBX 12 12 0 -2
BITMAP
0000
0f00
1980
1980
1980
0f00
0600
0600
3fc0
0600
0600
0600
ENDCHAR
STARTCHAR U2642
ENCODING 9794
SWIDTH 960 0
DWIDTH 12 0
BBX 12 12 0 -2
BITMAP
0000
03f0
0070
00d0
01b0
0330
3e00
6600
6600
6600
3c00
0000
ENDCHAR
STARTCHAR U266A
ENCODING 9834
SWIDTH 960 0
DWIDTH 12 0
BBX 12 12 0 -2
BITMAP
0300
0380
03c0
0360
0360
0360
0340
0300
1f00
3f00
1e00
0000
ENDCHAR
STARTCHAR U266D
ENCODING 9837
SWIDTH 960 0
DWIDTH 12 0
BBX 12 12 0 -2
BITMAP
0c00
0c00
0c00
0c00
0c00
0d80
0ec0
0dc0
0d80
0d00
0e00
0000
ENDCHAR
STARTCHAR U266F
ENCODING 9839
SWIDTH 960 0
DWIDTH 12 0
BBX 12 12 0 -2
BITMAP
0180
0180
0de0
0fe0
3f80
3d80
0de0
0fe0
3f80
3d80
0c00
0c00
ENDCHAR
STARTCHAR U3000
ENCODING 12288
SWIDTH 960 0
DWIDTH 12 0
BBX 12 12 0 -2
BITMAP
0000
0000
0000
0000
0000
0000
0000
0000
0000
0000
0000
0000
ENDCHAR
STARTCHAR U3001
ENCODING 12289
SWIDTH 960 0
DWIDTH 12 0
BBX 12 12 0 -2
BITMAP
0000
0000
0000
0000
0000
0000
0000
0000
0000
6000
3000
3000
ENDCHAR
STARTCHAR U3002
ENCODING 12290
SWIDTH 960 0
DWIDTH 12 0
BBX 12 12 0 -2
BITMAP
0000
0000
0000
0000
0000
0000
0000
0000
0000
3800
6c00
3800
ENDCHAR
STARTCHAR U3003
ENCODING 12291
SWIDTH 960 0
DWIDTH 12 0
BBX 12 12 0 -2
BITMAP
0000
0000
0000
0d80
0d80
0d80
1b00
1b00
3600
0000
0000
0000
ENDCHAR
STARTCHAR U3005
ENCODING 12293
SWIDTH 960 0
DWIDTH 12 0
BBX 12 12 0 -2
BITMAP
0000
0000
0c00
0fc0
0cc0
1980
3180
6d00
0700
0180
00c0
0000
ENDCHAR
STARTCHAR U3006
ENCODING 12294
SWIDTH 960 0
DWIDTH 12 0
BBX 12 12 0 -2
BITMAP
0000
0060
0060
00c0
0180
1d00
3700
6d80
6800
7000
0000
0000
ENDCHAR
STARTCHAR U3007
ENCODING 12295
SWIDTH 960 0
DWIDTH 12 0
BBX 12 12 0 -2
BITMAP
0000
0f00
39c0
6060
6060
c030
c030
c030
6060
6060
39c0
0f00
ENDCHAR
STARTCHAR U3008
ENCODING 12296
SWIDTH 960 0
DWIDTH 12 0
BBX 12 12 0 -2
BITMAP
0060
00c0
00c0
0180
0180
0300
0300
0180
0180
00c0
00c0
0060
ENDCHAR
STARTCHAR U3009
ENCODING 12297
SWIDTH 960 0
DWIDTH 12 0
BBX 12 12 0 -2
BITMAP
3000
1800
1800
0c00
0c00
0600
0600
0c00
0c00
1800
1800
3000
ENDCHAR
STARTCHAR U300A
ENCODING 12298
SWIDTH 960 0
DWIDTH 12 0
BBX 12 12 0 -2
BITMAP
0360
06c0
06c0
0d80
0d80
1b00
1b00
0d80
0d80
06c0
06c0
0360
ENDCHAR
STARTCHAR U300B
ENCODING 12299
SWIDTH 960 0
DWIDTH 12 0
BBX 12 12 0 -2
BITMAP
3600
1b00
1b00
0d80
0d80
06c0
06c0
0d80
0d80
1b00
1b00
3600
ENDCHAR
STARTCHAR U300C
ENCODING 12300
SWIDTH 960 0
DWIDTH 12 0
BBX 12 12 0 -2
BITMAP
03e0
0300
0300
0300
0300
0300
0300
0300
0000
0000
0000
0000
ENDCHAR
STARTCHAR U300D
ENCODING 12301
SWIDTH 960 0
DWIDTH 12 0
BBX 12 12 0 -2
BITMAP
0000
0000
0000
0000
0600
0600
0600
0600
0600
0600
0600
3e00
ENDCHAR
STARTCHAR U300E
ENCODING 12302
SWIDTH 960 0
DWIDTH 12 0
BBX 12 12 0 -2
BITMAP
07e0
0660
06e0
0680
0680
0680
0680
0780
0000
0000
0000
0000
ENDCHAR
STARTCHAR U300F
ENCODING 12303
SWIDTH 960 0
DWIDTH 12 0
BBX 12 12 0 -2
BITMAP
0000
0000
0000
0000
0f00
0d00
0d00
0d00
0d00
3d00
3300
3f00
ENDCHAR
STARTCHAR U3010
ENCODING 12304
SWIDTH 960 0
DWIDTH 12 0
BBX 12 12 0 -2
BITMAP
03e0
03c0
03c0
0380
0380
0380
0380
0380
0380
03c0
03c0
03e0
ENDCHAR
STARTCHAR U3011
ENCODING 12305
SWIDTH 960 0
DWIDTH 12 0
BBX 12 12 0 -2
BITMAP
3e00
1e00
1e00
0e00
0e00
0e00
0e00
0e00
0e00
1e00
1e00
3e00
ENDCHAR
STARTCHAR U3012
ENCODING 12306
SWIDTH 960 0
DWIDTH 12 0
BBX 12 12 0 -2
BITMAP
0000
7ff0
7ff0
0000
fff8
fff8
0700
0700
0700
0700
0700
0700
ENDCHAR
STARTCHAR U3013
ENCODING 12307
SWIDTH 960 0
DWIDTH 12 0
BBX 12 12 0 -2
BITMAP
0000
0000
0000
fff8
fff8
0000
0000
fff8
fff8
0000
0000
0000
ENDCHAR
STARTCHAR U3014
ENCODING 12308
SWIDTH 960 0
DWIDTH 12 0
BBX 12 12 0 -2
BITMAP
00e0
0380
0300
0300
0300
0300
0300
0300
0300
0300
0380
00e0
ENDCHAR
STARTCHAR U3015
ENCODING 12309
SWIDTH 960 0
DWIDTH 12 0
BBX 12 12 0 -2
BITMAP
3800
0e00
0600
0600
0600
0600
0600
0600
0600
0600
0e00
3800
ENDCHAR
STARTCHAR U301C
ENCODING 12316
SWIDTH 960 0
DWIDTH 12 0
BBX 12 12 0 -2
BITMAP
0000
0000
0000
0000
3c00
6600
0330
01e0
0000
0000
0000
0000
ENDCHAR
STARTCHAR U3041
ENCODING 12353
SWIDTH 960 0
DWIDTH 12 0
BBX 12 12 0 -2
BITMAP
0000
0000
0000
0000
0c00
1f00
0d00
1f80
1ec0
34c0
1980
0000
ENDCHAR
STARTCHAR U3042
ENCODING 12354
SWIDTH 960 0
DWIDTH 12 0
BBX 12 12 0 -2
BITMAP
0c00
0c00
3f80
0c00
0f80
1b40
3b60
6a60
6e60
6cc0
3b80
0000
ENDCHAR
STARTCHAR U3043
ENCODING 12355
SWIDTH 960 0
DWIDTH 12 0
BBX 12 12 0 -2
BITMAP
0000
0000
0000
0000
0000
1800
1b00
3180
3580
1800
0000
0000
ENDCHAR
STARTCHAR U3044
ENCODING 12356
SWIDTH 960 0
DWIDTH 12 0
BBX 12 12 0 -2
BITMAP
0000
0000
3000
3180
60c0
60c0
6060
6c60
3460
1800
0000
0000
ENDCHAR
STARTCHAR U3045
ENCODING 12357
SWIDTH 960 0
DWIDTH 12 0
BBX 12 12 0 -2
BITMAP
0000
0000
0000
0000
1800
0e00
1e00
3300
0300
0600
1c00
0000
ENDCHAR
STARTCHAR U3046
ENCODING 12358
SWIDTH 960 0
DWIDTH 12 0
BBX 12 12 0 -2
BITMAP
0c00
0700
0000
0f00
3980
00c0
00c0
00c0
0180
0700
1c00
0000
ENDCHAR
STARTCHAR U3047
ENCODING 12359
SWIDTH 960 0
DWIDTH 12 0
BBX 12 12 0 -2
BITMAP
0000
0000
0000
0000
1800
0c00
3f00
0600
1c00
3600
6780
0000
ENDCHAR
STARTCHAR U3048
ENCODING 12360
SWIDTH 960 0
DWIDTH 12 0
BBX 12 12 0 -2
BITMAP
0c00
0700
0000
1f80
0180
0300
0600
0e00
1b00
3300
61e0
0000
ENDCHAR
STARTCHAR U3049
ENCODING 12361
SWIDTH 960 0
DWIDTH 12 0
BBX 12 12 0 -2
BITMAP
0000
0000
0000
0000
0c00
3e80
0cc0
0f00
1d80
3580
1b00
0000
ENDCHAR
STARTCHAR U304A
ENCODING 12362
SWIDTH 960 0
DWIDTH 12 0
BBX 12 12 0 -2
BITMAP
0c00
0c00
0f60
7c30
0c30
0f80
1cc0
3460
6c60
6cc0
3b80
0000
ENDCHAR
STARTCHAR U304B
ENCODING 12363
SWIDTH 960 0
DWIDTH 12 0
BBX 12 12 0 -2
BITMAP
0000
1800
18c0
7e60
1b60
1b30
1b30
3300
3300
6b00
0e00
0000
ENDCHAR
STARTCHAR U304C
ENCODING 12364
SWIDTH 960 0
DWIDTH 12 0
BBX 12 12 0 -2
BITMAP
0000
18d0
18d0
7e60
1b60
1b30
1b30
3300
3300
6b00
0e00
0000
ENDCHAR
STARTCHAR U304D
ENCODING 12365
SWIDTH 960 0
DWIDTH 12 0
BBX 12 12 0 -2
BITMAP
0600
0780
3e00
03c0
3f00
0180
0f40
19c0
3000
1800
0f80
0000
ENDCHAR
STARTCHAR U304E
ENCODING 12366
SWIDTH 960 0
DWIDTH 12 0
BBX 12 12 0 -2
BITMAP
06a0
07a0
3e00
03c0
3f00
0180
0f40
19c0
3000
1800
0f80
0000
ENDCHAR
STARTCHAR U304F
ENCODING 12367
SWIDTH 960 0
DWIDTH 12 0
BBX 12 12 0 -2
BITMAP
0000
0300
0300
0600
0c00
1800
1800
0c00
0600
0300
0300
0000
ENDCHAR
STARTCHAR U3050
ENCODING 12368
SWIDTH 960 0
DWIDTH 12 0
BBX 12 12 0 -2
BITMAP
0000
0600
0740
0d40
1800
3000
3000
1800
0c00
0600
0600
0000
ENDCHAR
STARTCHAR U3051
ENCODING 12369
SWIDTH 960 0
DWIDTH 12 0
BBX 12 12 0 -2
BITMAP
00c0
30c0
30f0
37c0
60c0
60c0
60c0
68c0
30c0
0180
0700
0000
ENDCHAR
STARTCHAR U3052
ENCODING 12370
SWIDTH 960 0
DWIDTH 12 0
BBX 12 12 0 -2
BITMAP
01a8
31a8
30f0
37c0
60c0
60c0
60c0
68c0
30c0
0180
0700
0000
ENDCHAR
STARTCHAR U3053
ENCODING 12371
SWIDTH 960 0
DWIDTH 12 0
BBX 12 12 0 -2
BITMAP
0000
1800
0fc0
0000
0000
0000
0000
3000
3060
1fc0
0000
0000
ENDCHAR
STARTCHAR U3054
ENCODING 12372
SWIDTH 960 0
DWIDTH 12 0
BBX 12 12 0 -2
BITMAP
0000
31a0
1fa0
0000
0000
0000
0000
6000
60c0
3f80
0000
0000
ENDCHAR
STARTCHAR U3055
ENCODING 12373
SWIDTH 960 0
DWIDTH 12 0
BBX 12 12 0 -2
BITMAP
0600
0600
0360
3f80
0300
0180
1f40
31c0
3000
1c00
0780
0000
ENDCHAR
STARTCHAR U3056
ENCODING 12374
SWIDTH 960 0
DWIDTH 12 0
BBX 12 12 0 -2
BITMAP
0da0
0da0
06c0
7f00
0600
0300
3e80
6380
6000
3800
0f00
0000
ENDCHAR
STARTCHAR U3057
ENCODING 12375
SWIDTH 960 0
DWIDTH 12 0
BBX 12 12 0 -2
BITMAP
0000
1800
1800
1800
1800
1800
1800
1800
1860
0dc0
0700
0000
ENDCHAR
STARTCHAR U3058
ENCODING 12376
SWIDTH 960 0
DWIDTH 12 0
BBX 12 12 0 -2
BITMAP
0000
1800
19a0
19a0
1800
1800
1800
1800
1860
0dc0
0700
0000
ENDCHAR
STARTCHAR U3059
ENCODING 12377
SWIDTH 960 0
DWIDTH 12 0
BBX 12 12 0 -2
BITMAP
0300
0300
7fe0
0300
0f00
1b00
1b00
0f00
0300
0600
1c00
0000
ENDCHAR
STARTCHAR U305A
ENCODING 12378
SWIDTH 960 0
DWIDTH 12 0
BBX 12 12 0 -2
BITMAP
0350
0350
7fe0
0300
0f00
1b00
1b00
0f00
0300
0600
1c00
0000
ENDCHAR
STARTCHAR U305B
ENCODING 12379
SWIDTH 960 0
DWIDTH 12 0
BBX 12 12 0 -2
BITMAP
0000
0180
1980
19f0
7f80
1980
1980
1b00
1800
0c00
07c0
0000
ENDCHAR
STARTCHAR U305C
ENCODING 12380
SWIDTH 960 0
DWIDTH 12 0
BBX 12 12 0 -2
BITMAP
0000
0350
3350
33c0
ff00
3300
3300
3600
3000
1800
0f80
0000
ENDCHAR
STARTCHAR U305D
ENCODING 12381
SWIDTH 960 0
DWIDTH 12 0
BBX 12 12 0 -2
BITMAP
0000
1f80
0300
0600
0de0
7f00
0600
0c00
0c00
0600
0380
0000
ENDCHAR
STARTCHAR U305E
ENCODING 12382
SWIDTH 960 0
DWIDTH 12 0
BBX 12 12 0 -2
BITMAP
0000
1fd0
0350
0600
0de0
7f00
0600
0c00
0c00
0600
0380
0000
ENDCHAR
STARTCHAR U305F
ENCODING 12383
SWIDTH 960 0
DWIDTH 12 0
BBX 12 12 0 -2
BITMAP
0c00
0c00
7f00
1800
18e0
1b80
3000
3000
3600
6600
63e0
0000
ENDCHAR
STARTCHAR U3060
ENCODING 12384
SWIDTH 960 0
DWIDTH 12 0
BBX 12 12 0 -2
BITMAP
0c00
0cd0
7f50
1800
18e0
1b80
3000
3000
3600
6600
63e0
0000
ENDCHAR
STARTCHAR U3061
ENCODING 12385
SWIDTH 960 0
DWIDTH 12 0
BBX 12 12 0 -2
BITMAP
1800
1800
7f80
1800
1800
3700
3d80
30c0
00c0
0380
1e00
0000
ENDCHAR
STARTCHAR U3062
ENCODING 12386
SWIDTH 960 0
DWIDTH 12 0
BBX 12 12 0 -2
BITMAP
1800
19a0
7fa0
1800
1800
3700
3d80
30c0
00c0
0380
1e00
0000
ENDCHAR
STARTCHAR U3063
ENCODING 12387
SWIDTH 960 0
DWIDTH 12 0
BBX 12 12 0 -2
BITMAP
0000
0000
0000
0000
0000
0000
0f00
3980
0180
0300
0e00
0000
ENDCHAR
STARTCHAR U3064
ENCODING 12388
SWIDTH 960 0
DWIDTH 12 0
BBX 12 12 0 -2
BITMAP
0000
0000
0f80
f8c0
0060
0060
00c0
0380
0e00
0000
0000
0000
ENDCHAR
STARTCHAR U3065
ENCODING 12389
SWIDTH 960 0
DWIDTH 12 0
BBX 12 12 0 -2
BITMAP
0000
00d0
1f50
f180
00c0
00c0
0180
0700
1c00
0000
0000
0000
ENDCHAR
STARTCHAR U3066
ENCODING 12390
SWIDTH 960 0
DWIDTH 12 0
BBX 12 12 0 -2
BITMAP
0000
01e0
7f00
0300
0600
0c00
0c00
0c00
0600
03c0
0000
0000
ENDCHAR
STARTCHAR U3067
ENCODING 12391
SWIDTH 960 0
DWIDTH 12 0
BBX 12 12 0 -2
BITMAP
0000
03c0
fe00
06a0
0da0
1800
1800
1800
0c00
0780
0000
0000
ENDCHAR
STARTCHAR U3068
ENCODING 12392
SWIDTH 960 0
DWIDTH 12 0
BBX 12 12 0 -2
BITMAP
0000
0c00
0c00
0c00
06e0
0780
0e00
1800
3000
1800
0fe0
0000
ENDCHAR
STARTCHAR U3069
ENCODING 12393
SWIDTH 960 0
DWIDTH 12 0
BBX 12 12 0 -2
BITMAP
0000
0cd0
0cd0
0c00
06e0
0780
0e00
1800
3000
1800
0fe0
0000
ENDCHAR
STARTCHAR U306A
ENCODING 12394
SWIDTH 960 0
DWIDTH 12 0
BBX 12 12 0 -2
BITMAP
0c00
0c00
3f60
18d0
18c0
30c0
30c0
67c0
0ce0
0cd0
0780
0000
ENDCHAR
STARTCHAR U306B
ENCODING 12395
SWIDTH 960 0
DWIDTH 12 0
BBX 12 12 0 -2
BITMAP
0000
3000
31c0
3700
6000
6000
6000
6600
6600
6be0
3000
0000
ENDCHAR
STARTCHAR U306C
ENCODING 12396
SWIDTH 960 0
DWIDTH 12 0
BBX 12 12 0 -2
BITMAP
0000
0300
3300
37c0
3b60
3330
3a30
6a30
6dd0
6d60
39e0
0000
ENDCHAR
STARTCHAR U306D
ENCODING 12397
SWIDTH 960 0
DWIDTH 12 0
BBX 12 12 0 -2
BITMAP
1800
1800
1800
7dc0
1a60
1c60
1860
3860
39e0
6b70
19c0
0000
ENDCHAR
STARTCHAR U306E
ENCODING 12398
SWIDTH 960 0
DWIDTH 12 0
BBX 12 12 0 -2
BITMAP
0000
0f80
1ac0
3660
6630
6630
6c30
6c60
38c0
0380
0000
0000
ENDCHAR
STARTCHAR U306F
ENCODING 12399
SWIDTH 960 0
DWIDTH 12 0
BBX 12 12 0 -2
BITMAP
0000
30c0
30f0
37c0
60c0
60c0
60c0
67c0
6ce0
6cd0
3780
0000
ENDCHAR
STARTCHAR U3070
ENCODING 12400
SWIDTH 960 0
DWIDTH 12 0
BBX 12 12 0 -2
BITMAP
0068
30e8
30c0
37e0
60c0
60c0
60c0
67c0
6ce0
6cd0
3780
0000
ENDCHAR
STARTCHAR U3071
ENCODING 12401
SWIDTH 960 0
DWIDTH 12 0
BBX 12 12 0 -2
BITMAP
0070
30d8
30f0
37c0
60c0
60c0
60c0
67c0
6ce0
6cd0
3780
0000
ENDCHAR
STARTCHAR U3072
ENCODING 12402
SWIDTH 960 0
DWIDTH 12 0
BBX 12 12 0 -2
BITMAP
0000
0300
1e00
0cc0
18c0
18e0
30d0
30c0
30c0
1980
0f00
0000
ENDCHAR
STARTCHAR U3073
ENCODING 12403
SWIDTH 960 0
DWIDTH 12 0
BBX 12 12 0 -2
BITMAP
0000
0668
3c68
1980
3180
31c0
61a0
6180
6180
3300
1e00
0000
ENDCHAR
STARTCHAR U3074
ENCODING 12404
SWIDTH 960 0
DWIDTH 12 0
BBX 12 12 0 -2
BITMAP
0070
0cd8
7870
1980
3180
31c0
61a0
6180
6180
3300
1e00
0000
ENDCHAR
STARTCHAR U3075
ENCODING 12405
SWIDTH 960 0
DWIDTH 12 0
BBX 12 12 0 -2
BITMAP
0000
0c00
0780
0000
0600
06c0
1b60
1b30
31b0
6980
0f00
0000
ENDCHAR
STARTCHAR U3076
ENCODING 12406
SWIDTH 960 0
DWIDTH 12 0
BBX 12 12 0 -2
BITMAP
0000
0cd0
07d0
0000
0600
06c0
1b60
1b30
31b0
6980
0f00
0000
ENDCHAR
STARTCHAR U3077
ENCODING 12407
SWIDTH 960 0
DWIDTH 12 0
BBX 12 12 0 -2
BITMAP
0000
0c70
07d8
0070
0600
06c0
1b60
1b30
31b0
6980
0f00
0000
ENDCHAR
STARTCHAR U3078
ENCODING 12408
SWIDTH 960 0
DWIDTH 12 0
BBX 12 12 0 -2
BITMAP
0000
0000
0000
0e00
1b00
7180
00c0
0060
0030
0000
0000
0000
ENDCHAR
STARTCHAR U3079
ENCODING 12409
SWIDTH 960 0
DWIDTH 12 0
BBX 12 12 0 -2
BITMAP
0000
00d0
00d0
0e00
1b00
7180
00c0
0060
0030
0000
0000
0000
ENDCHAR
STARTCHAR U307A
ENCODING 12410
SWIDTH 960 0
DWIDTH 12 0
BBX 12 12 0 -2
BITMAP
0000
00e0
01b0
0ee0
1b00
3180
e0c0
0060
0030
0000
0000
0000
ENDCHAR
STARTCHAR U307B
ENCODING 12411
SWIDTH 960 0
DWIDTH 12 0
BBX 12 12 0 -2
BITMAP
0000
37f0
30c0
30c0
67e0
60c0
60c0
67c0
6ce0
6cd0
3780
0000
ENDCHAR
STARTCHAR U307C
ENCODING 12412
SWIDTH 960 0
DWIDTH 12 0
BBX 12 12 0 -2
BITMAP
0068
37e8
30c0
30c0
67e0
60c0
60c0
67c0
6ce0
6cd0
3780
0000
ENDCHAR
STARTCHAR U307D
ENCODING 12413
SWIDTH 960 0
DWIDTH 12 0
BBX 12 12 0 -2
BITMAP
0070
37d8
30f0
30c0
67e0
60c0
60c0
67c0
6ce0
6cd0
3780
0000
ENDCHAR
STARTCHAR U307E
ENCODING 12414
SWIDTH 960 0
DWIDTH 12 0
BBX 12 12 0 -2
BITMAP
0300
0300
3fe0
0300
03c0
3f00
0300
1f00
33c0
3360
1e00
0000
ENDCHAR
STARTCHAR U307F
ENCODING 12415
SWIDTH 960 0
DWIDTH 12 0
BBX 12 12 0 -2
BITMAP
0000
3e00
0600
06c0
06c0
1fc0
34e0
6cd0
68c0
3180
0300
0000
ENDCHAR
STARTCHAR U3080
ENCODING 12416
SWIDTH 960 0
DWIDTH 12 0
BBX 12 12 0 -2
BITMAP
0c00
0c00
7ee0
0c30
3c00
6c00
6c00
6860
3860
1860
0fc0
0000
ENDCHAR
STARTCHAR U3081
ENCODING 12417
SWIDTH 960 0
DWIDTH 12 0
BBX 12 12 0 -2
BITMAP
0000
0300
3780
3540
3b60
3630
6a30
6c30
6c60
38c0
0380
0000
ENDCHAR
STARTCHAR U3082
ENCODING 12418
SWIDTH 960 0
DWIDTH 12 0
BBX 12 12 0 -2
BITMAP
0c00
0c00
3f00
0c00
1980
7f00
1800
18c0
18c0
0d80
0700
0000
ENDCHAR
STARTCHAR U3083
ENCODING 12419
SWIDTH 960 0
DWIDTH 12 0
BBX 12 12 0 -2
BITMAP
0000
0000
0000
0000
0d00
0dc0
3ea0
0c60
06c0
0600
0600
0000
ENDCHAR
STARTCHAR U3084
ENCODING 12420
SWIDTH 960 0
DWIDTH 12 0
BBX 12 12 0 -2
BITMAP
0600
3600
33c0
1b60
3d30
e860
0dc0
0c00
0c00
0600
0600
0000
ENDCHAR
STARTCHAR U3085
ENCODING 12421
SWIDTH 960 0
DWIDTH 12 0
BBX 12 12 0 -2
BITMAP
0000
0000
0000
0000
0300
1bc0
1b60
1d60
1bc0
0300
0600
0000
ENDCHAR
STARTCHAR U3086
ENCODING 12422
SWIDTH 960 0
DWIDTH 12 0
BBX 12 12 0 -2
BITMAP
0300
0300
67c0
6d60
6b30
7330
7560
67c0
6300
0600
0c00
0000
ENDCHAR
STARTCHAR U3087
ENCODING 12423
SWIDTH 960 0
DWIDTH 12 0
BBX 12 12 0 -2
BITMAP
0000
0000
0000
0000
0600
0780
0600
0600
1f00
36c0
1c00
0000
ENDCHAR
STARTCHAR U3088
ENCODING 12424
SWIDTH 960 0
DWIDTH 12 0
BBX 12 12 0 -2
BITMAP
0600
0600
0600
07c0
0600
0600
0600
3e00
6780
66e0
3c00
0000
ENDCHAR
STARTCHAR U3089
ENCODING 12425
SWIDTH 960 0
DWIDTH 12 0
BBX 12 12 0 -2
BITMAP
0c00
0700
0000
3000
3000
3780
38c0
30c0
00c0
0380
1e00
0000
ENDCHAR
STARTCHAR U308A
ENCODING 12426
SWIDTH 960 0
DWIDTH 12 0
BBX 12 12 0 -2
BITMAP
0180
0cc0
0cc0
18c0
18c0
18c0
1ac0
0cc0
00c0
0180
0700
0000
ENDCHAR
STARTCHAR U308B
ENCODING 12427
SWIDTH 960 0
DWIDTH 12 0
BBX 12 12 0 -2
BITMAP
0000
1f80
0300
0600
0f80
1cc0
3060
6060
0ec0
1b80
0f00
0000
ENDCHAR
STARTCHAR U308C
ENCODING 12428
SWIDTH 960 0
DWIDTH 12 0
BBX 12 12 0 -2
BITMAP
1800
1800
1b80
1ac0
7cc0
18c0
18c0
38c0
38c0
6870
1800
0000
ENDCHAR
STARTCHAR U308D
ENCODING 12429
SWIDTH 960 0
DWIDTH 12 0
BBX 12 12 0 -2
BITMAP
0000
1f80
0300
0600
0f80
1cc0
3060
6060
00c0
0180
0f00
0000
ENDCHAR
STARTCHAR U308E
ENCODING 12430
SWIDTH 960 0
DWIDTH 12 0
BBX 12 12 0 -2
BITMAP
0000
0000
0000
0000
0c00
1e00
0dc0
0e60
1c60
34c0
0d80
0000
ENDCHAR
STARTCHAR U308F
ENCODING 12431
SWIDTH 960 0
DWIDTH 12 0
BBX 12 12 0 -2
BITMAP
1800
1800
1800
1dc0
7a60
1c30
1830
3830
6860
19c0
1800
0000
ENDCHAR
STARTCHAR U3090
ENCODING 12432
SWIDTH 960 0
DWIDTH 12 0
BBX 12 12 0 -2
BITMAP
0000
1f00
0300
0300
0fc0
1a60
3630
6c30
6db0
3ae0
03c0
0000
ENDCHAR
STARTCHAR U3091
ENCODING 12433
SWIDTH 960 0
DWIDTH 12 0
BBX 12 12 0 -2
BITMAP
0000
1fc0
0300
0fc0
1860
3760
0dc0
0700
0000
36e0
63b0
0000
ENDCHAR
STARTCHAR U3092
ENCODING 12434
SWIDTH 960 0
DWIDTH 12 0
BBX 12 12 0 -2
BITMAP
0600
0600
3f80
0c00
18e0
3d80
6700
0d00
1b00
1800
0fc0
0000
ENDCHAR
STARTCHAR U3093
ENCODING 12435
SWIDTH 960 0
DWIDTH 12 0
BBX 12 12 0 -2
BITMAP
0000
0600
0600
0c00
0c00
1800
1e00
3300
3330
6360
61c0
0000
ENDCHAR
STARTCHAR U309B
ENCODING 12443
SWIDTH 960 0
DWIDTH 12 0
BBX 12 12 0 -2
BITMAP
3000
d800
6800
6000
0000
0000
0000
0000
0000
0000
0000
0000
ENDCHAR
STARTCHAR U309C
ENCODING 12444
SWIDTH 960 0
DWIDTH 12 0
BBX 12 12 0 -2
BITMAP
0000
6000
d000
d000
6000
0000
0000
0000
0000
0000
0000
0000
ENDCHAR
STARTCHAR U309D
ENCODING 12445
SWIDTH 960 0
DWIDTH 12 0
BBX 12 12 0 -2
BITMAP
0000
0000
0000
0000
1c00
0700
0180
03c0
0600
0000
0000
0000
ENDCHAR
STARTCHAR U309E
ENCODING 12446
SWIDTH 960 0
DWIDTH 12 0
BBX 12 12 0 -2
BITMAP
0000
0180
06c0
0300
3800
0e00
0300
0780
0c00
0000
0000
0000
ENDCHAR
STARTCHAR U30A1
ENCODING 12449
SWIDTH 960 0
DWIDTH 12 0
BBX 12 12 0 -2
BITMAP
0000
0000
0000
0000
0000
3f80
0d80
0f00
0c00
0c00
1800
0000
ENDCHAR
STARTCHAR U30A2
ENCODING 12450
SWIDTH 960 0
DWIDTH 12 0
BBX 12 12 0 -2
BITMAP
0000
0000
ffe0
0060
0cc0
0d80
0f00
0c00
0c00
1800
3000
0000
ENDCHAR
STARTCHAR U30A3
ENCODING 12451
SWIDTH 960 0
DWIDTH 12 0
BBX 12 12 0 -2
BITMAP
0000
0000
0000
0000
0300
0300
0600
0e00
3a00
0600
0600
0000
ENDCHAR
STARTCHAR U30A4
ENCODING 12452
SWIDTH 960 0
DWIDTH 12 0
BBX 12 12 0 -2
BITMAP
0000
00c0
00c0
0180
0300
0f00
3b00
0300
0300
0300
0300
0000
ENDCHAR
STARTCHAR U30A5
ENCODING 12453
SWIDTH 960 0
DWIDTH 12 0
BBX 12 12 0 -2
BITMAP
0000
0000
0000
0000
0c00
0c00
3f80
3180
3300
0600
1c00
0000
ENDCHAR
STARTCHAR U30A6
ENCODING 12454
SWIDTH 960 0
DWIDTH 12 0
BBX 12 12 0 -2
BITMAP
0600
0600
0600
7fe0
6060
6060
60c0
00c0
0180
0700
1c00
0000
ENDCHAR
STARTCHAR U30A7
ENCODING 12455
SWIDTH 960 0
DWIDTH 12 0
BBX 12 12 0 -2
BITMAP
0000
0000
0000
0000
0000
0000
1f80
0600
0600
3fc0
0000
0000
ENDCHAR
STARTCHAR U30A8
ENCODING 12456
SWIDTH 960 0
DWIDTH 12 0
BBX 12 12 0 -2
BITMAP
0000
0000
0000
3fe0
0600
0600
0600
0600
0600
7ff0
0000
0000
ENDCHAR
STARTCHAR U30A9
ENCODING 12457
SWIDTH 960 0
DWIDTH 12 0
BBX 12 12 0 -2
BITMAP
0000
0000
0000
0000
0300
0300
3fc0
0700
0d00
3b00
0700
0000
ENDCHAR
STARTCHAR U30AA
ENCODING 12458
SWIDTH 960 0
DWIDTH 12 0
BBX 12 12 0 -2
BITMAP
0180
0180
0180
3ff0
0380
0380
0680
0d80
3980
0180
0380
0000
ENDCHAR
STARTCHAR U30AB
ENCODING 12459
SWIDTH 960 0
DWIDTH 12 0
BBX 12 12 0 -2
BITMAP
0600
0600
0600
3fe0
0660
0660
0660
0c60
0c60
1860
31c0
0000
ENDCHAR
STARTCHAR U30AC
ENCODING 12460
SWIDTH 960 0
DWIDTH 12 0
BBX 12 12 0 -2
BITMAP
06d0
06d0
0600
3fe0
0660
0660
0660
0c60
0c60
1860
31c0
0000
ENDCHAR
STARTCHAR U30AD
ENCODING 12461
SWIDTH 960 0
DWIDTH 12 0
BBX 12 12 0 -2
BITMAP
0600
0600
07c0
7e00
0600
07e0
7f00
0300
0300
0300
0300
0000
ENDCHAR
STARTCHAR U30AE
ENCODING 12462
SWIDTH 960 0
DWIDTH 12 0
BBX 12 12 0 -2
BITMAP
06d0
06d0
07c0
7e00
0600
07e0
7f00
0300
0300
0300
0300
0000
ENDCHAR
STARTCHAR U30AF
ENCODING 12463
SWIDTH 960 0
DWIDTH 12 0
BBX 12 12 0 -2
BITMAP
0000
0600
07e0
0660
0c60
18c0
30c0
0180
0300
0e00
3800
0000
ENDCHAR
STARTCHAR U30B0
ENCODING 12464
SWIDTH 960 0
DWIDTH 12 0
BBX 12 12 0 -2
BITMAP
0068
0668
07e0
0660
0c60
18c0
30c0
0180
0300
0e00
3800
0000
ENDCHAR
STARTCHAR U30B1
ENCODING 12465
SWIDTH 960 0
DWIDTH 12 0
BBX 12 12 0 -2
BITMAP
0000
1800
1800
1ff0
1980
3180
6180
0180
0300
0600
1c00
0000
ENDCHAR
STARTCHAR U30B2
ENCODING 12466
SWIDTH 960 0
DWIDTH 12 0
BBX 12 12 0 -2
BITMAP
0000
1868
1868
1fe0
1980
3180
6180
0180
0300
0600
1c00
0000
ENDCHAR
STARTCHAR U30B3
ENCODING 12467
SWIDTH 960 0
DWIDTH 12 0
BBX 12 12 0 -2
BITMAP
0000
0000
3fe0
0060
0060
0060
0060
0060
3fe0
0060
0000
0000
ENDCHAR
STARTCHAR U30B4
ENCODING 12468
SWIDTH 960 0
DWIDTH 12 0
BBX 12 12 0 -2
BITMAP
0000
00d0
00d0
7fc0
00c0
00c0
00c0
00c0
00c0
7fc0
00c0
0000
ENDCHAR
STARTCHAR U30B5
ENCODING 12469
SWIDTH 960 0
DWIDTH 12 0
BBX 12 12 0 -2
BITMAP
0000
0cc0
0cc0
0cc0
7ff0
0cc0
0cc0
0cc0
0180
0300
0e00
0000
ENDCHAR
STARTCHAR U30B6
ENCODING 12470
SWIDTH 960 0
DWIDTH 12 0
BBX 12 12 0 -2
BITMAP
0000
19a8
19a8
1980
7fe0
1980
1980
1980
0300
0600
1c00
0000
ENDCHAR
STARTCHAR U30B7
ENCODING 12471
SWIDTH 960 0
DWIDTH 12 0
BBX 12 12 0 -2
BITMAP
0000
3800
0c00
0060
7060
18c0
00c0
0180
0300
0e00
7800
0000
ENDCHAR
STARTCHAR U30B8
ENCODING 12472
SWIDTH 960 0
DWIDTH 12 0
BBX 12 12 0 -2
BITMAP
0000
38d0
0cd0
0000
7060
1860
00c0
0180
0300
0e00
7800
0000
ENDCHAR
STARTCHAR U30B9
ENCODING 12473
SWIDTH 960 0
DWIDTH 12 0
BBX 12 12 0 -2
BITMAP
0000
0000
3fc0
00c0
00c0
0180
0180
0340
0660
1c30
7030
0000
ENDCHAR
STARTCHAR U30BA
ENCODING 12474
SWIDTH 960 0
DWIDTH 12 0
BBX 12 12 0 -2
BITMAP
0000
00d0
3fd0
00c0
00c0
0180
0180
0340
0660
1c30
7030
0000
ENDCHAR
STARTCHAR U30BB
ENCODING 12475
SWIDTH 960 0
DWIDTH 12 0
BBX 12 12 0 -2
BITMAP
0000
1800
1800
19e0
1f60
f8c0
1980
1b00
1800
1800
0fc0
0000
ENDCHAR
STARTCHAR U30BC
ENCODING 12476
SWIDTH 960 0
DWIDTH 12 0
BBX 12 12 0 -2
BITMAP
0000
18d0
18d0
19e0
1f60
f8c0
1980
1b00
1800
1800
0fc0
0000
ENDCHAR
STARTCHAR U30BD
ENCODING 12477
SWIDTH 960 0
DWIDTH 12 0
BBX 12 12 0 -2
BITMAP
0000
0000
3060
1860
1860
00c0
00c0
0180
0300
0e00
3800
0000
ENDCHAR
STARTCHAR U30BE
ENCODING 12478
SWIDTH 960 0
DWIDTH 12 0
BBX 12 12 0 -2
BITMAP
0000
00d0
30d0
1860
1860
00c0
00c0
0180
0300
0e00
3800
0000
ENDCHAR
STARTCHAR U30BF
ENCODING 12479
SWIDTH 960 0
DWIDTH 12 0
BBX 12 12 0 -2
BITMAP
0000
0600
07e0
0c60
1860
7740
01c0
0180
0300
0e00
3800
0000
ENDCHAR
STARTCHAR U30C0
ENCODING 12480
SWIDTH 960 0
DWIDTH 12 0
BBX 12 12 0 -2
BITMAP
0000
0668
07e8
0c60
1860
7740
01c0
0180
0300
0e00
3800
0000
ENDCHAR
STARTCHAR U30C1
ENCODING 12481
SWIDTH 960 0
DWIDTH 12 0
BBX 12 12 0 -2
BITMAP
0000
01c0
3f00
0300
0300
7ff0
0300
0300
0300
0600
1c00
0000
ENDCHAR
STARTCHAR U30C2
ENCODING 12482
SWIDTH 960 0
DWIDTH 12 0
BBX 12 12 0 -2
BITMAP
0000
01e8
3f68
0300
0300
7ff0
0300
0300
0300
0600
1c00
0000
ENDCHAR
STARTCHAR U30C3
ENCODING 12483
SWIDTH 960 0
DWIDTH 12 0
BBX 12 12 0 -2
BITMAP
0000
0000
0000
0000
0c00
36c0
1ac0
1980
0180
0700
1c00
0000
ENDCHAR
STARTCHAR U30C4
ENCODING 12484
SWIDTH 960 0
DWIDTH 12 0
BBX 12 12 0 -2
BITMAP
0000
0c00
6660
3660
3660
30c0
00c0
0180
0300
0e00
3800
0000
ENDCHAR
STARTCHAR U30C5
ENCODING 12485
SWIDTH 960 0
DWIDTH 12 0
BBX 12 12 0 -2
BITMAP
00d0
0cd0
6600
3660
3660
30c0
00c0
0180
0300
0e00
3800
0000
ENDCHAR
STARTCHAR U30C6
ENCODING 12486
SWIDTH 960 0
DWIDTH 12 0
BBX 12 12 0 -2
BITMAP
0000
0000
1fc0
0000
0000
7ff0
0300
0300
0600
0c00
3800
0000
ENDCHAR
STARTCHAR U30C7
ENCODING 12487
SWIDTH 960 0
DWIDTH 12 0
BBX 12 12 0 -2
BITMAP
0000
00d0
1fd0
0000
0000
7ff0
0300
0300
0600
0c00
3800
0000
ENDCHAR
STARTCHAR U30C8
ENCODING 12488
SWIDTH 960 0
DWIDTH 12 0
BBX 12 12 0 -2
BITMAP
1800
1800
1800
1800
1e00
1b80
18c0
1800
1800
1800
1800
0000
ENDCHAR
STARTCHAR U30C9
ENCODING 12489
SWIDTH 960 0
DWIDTH 12 0
BBX 12 12 0 -2
BITMAP
1800
19a0
19a0
1800
1e00
1b80
18c0
1800
1800
1800
1800
0000
ENDCHAR
STARTCHAR U30CA
ENCODING 12490
SWIDTH 960 0
DWIDTH 12 0
BBX 12 12 0 -2
BITMAP
0300
0300
0300
7ff0
0300
0300
0300
0600
0600
0c00
3800
0000
ENDCHAR
STARTCHAR U30CB
ENCODING 12491
SWIDTH 960 0
DWIDTH 12 0
BBX 12 12 0 -2
BITMAP
0000
0000
0000
1fc0
0000
0000
0000
0000
7ff0
0000
0000
0000
ENDCHAR
STARTCHAR U30CC
ENCODING 12492
SWIDTH 960 0
DWIDTH 12 0
BBX 12 12 0 -2
BITMAP
0000
0000
1fe0
0060
00c0
0ec0
0380
0340
0660
1c30
7000
0000
ENDCHAR
STARTCHAR U30CD
ENCODING 12493
SWIDTH 960 0
DWIDTH 12 0
BBX 12 12 0 -2
BITMAP
0600
0600
3fc0
00c0
0180
0700
1ec0
7670
0600
0600
0600
0000
ENDCHAR
STARTCHAR U30CE
ENCODING 12494
SWIDTH 960 0
DWIDTH 12 0
BBX 12 12 0 -2
BITMAP
0000
0000
0060
0060
00c0
00c0
0180
0300
0e00
3800
0000
0000
ENDCHAR
STARTCHAR U30CF
ENCODING 12495
SWIDTH 960 0
DWIDTH 12 0
BBX 12 12 0 -2
BITMAP
0000
0000
0000
0d80
0cc0
0cc0
1860
1860
1830
3030
6030
0000
ENDCHAR
STARTCHAR U30D0
ENCODING 12496
SWIDTH 960 0
DWIDTH 12 0
BBX 12 12 0 -2
BITMAP
0000
0068
0068
0d80
0cc0
0cc0
1860
1860
1830
3030
6030
0000
ENDCHAR
STARTCHAR U30D1
ENCODING 12497
SWIDTH 960 0
DWIDTH 12 0
BBX 12 12 0 -2
BITMAP
0000
0070
00d8
0db0
0cc0
0cc0
1860
1860
1830
3030
6030
0000
ENDCHAR
STARTCHAR U30D2
ENCODING 12498
SWIDTH 960 0
DWIDTH 12 0
BBX 12 12 0 -2
BITMAP
0000
3000
3000
3000
31c0
3f00
3000
3000
3000
1fe0
0000
0000
ENDCHAR
STARTCHAR U30D3
ENCODING 12499
SWIDTH 960 0
DWIDTH 12 0
BBX 12 12 0 -2
BITMAP
0000
30d0
30d0
3000
33c0
3e00
3000
3000
3000
1fe0
0000
0000
ENDCHAR
STARTCHAR U30D4
ENCODING 12500
SWIDTH 960 0
DWIDTH 12 0
BBX 12 12 0 -2
BITMAP
0000
30e0
31b0
30e0
33c0
3e00
3000
3000
3000
1fe0
0000
0000
ENDCHAR
STARTCHAR U30D5
ENCODING 12501
SWIDTH 960 0
DWIDTH 12 0
BBX 12 12 0 -2
BITMAP
0000
0000
7fe0
0060
0060
00c0
00c0
0180
0300
0e00
3800
0000
ENDCHAR
STARTCHAR U30D6
ENCODING 12502
SWIDTH 960 0
DWIDTH 12 0
BBX 12 12 0 -2
BITMAP
01a0
01a0
7fc0
00c0
00c0
0180
0180
0300
0600
1c00
7000
0000
ENDCHAR
STARTCHAR U30D7
ENCODING 12503
SWIDTH 960 0
DWIDTH 12 0
BBX 12 12 0 -2
BITMAP
00e0
01b0
7fe0
00c0
00c0
0180
0180
0300
0600
1c00
7000
0000
ENDCHAR
STARTCHAR U30D8
ENCODING 12504
SWIDTH 960 0
DWIDTH 12 0
BBX 12 12 0 -2
BITMAP
0000
0000
0000
0e00
1b00
3180
60c0
0060
0030
0000
0000
0000
ENDCHAR
STARTCHAR U30D9
ENCODING 12505
SWIDTH 960 0
DWIDTH 12 0
BBX 12 12 0 -2
BITMAP
0000
00d0
00d0
0e00
1b00
3180
60c0
0060
0030
0000
0000
0000
ENDCHAR
STARTCHAR U30DA
ENCODING 12506
SWIDTH 960 0
DWIDTH 12 0
BBX 12 12 0 -2
BITMAP
0000
00e0
01b0
0ee0
1b00
3180
60c0
0060
0030
0000
0000
0000
ENDCHAR
STARTCHAR U30DB
ENCODING 12507
SWIDTH 960 0
DWIDTH 12 0
BBX 12 12 0 -2
BITMAP
0600
0600
0600
7fe0
0600
1a80
1ac0
3660
3660
6600
0e00
0000
ENDCHAR
STARTCHAR U30DC
ENCODING 12508
SWIDTH 960 0
DWIDTH 12 0
BBX 12 12 0 -2
BITMAP
0c00
0da0
0da0
ffc0
0c00
3500
3580
6cc0
6cc0
cc00
1c00
0000
ENDCHAR
STARTCHAR U30DD
ENCODING 12509
SWIDTH 960 0
DWIDTH 12 0
BBX 12 12 0 -2
BITMAP
0c00
0ce0
0db0
ff60
0c00
3500
3580
6cc0
6cc0
cc00
1c00
0000
ENDCHAR
STARTCHAR U30DE
ENCODING 12510
SWIDTH 960 0
DWIDTH 12 0
BBX 12 12 0 -2
BITMAP
0000
0000
7fe0
0060
00c0
0180
3b00
0e00
0300
0180
0000
0000
ENDCHAR
STARTCHAR U30DF
ENCODING 12511
SWIDTH 960 0
DWIDTH 12 0
BBX 12 12 0 -2
BITMAP
0000
1e00
0380
00c0
0000
1e00
0300
0000
3c00
0700
01c0
0000
ENDCHAR
STARTCHAR U30E0
ENCODING 12512
SWIDTH 960 0
DWIDTH 12 0
BBX 12 12 0 -2
BITMAP
0000
0600
0600
0600
0c00
0d00
1980
18c0
37c0
7c60
0060
0000
ENDCHAR
STARTCHAR U30E1
ENCODING 12513
SWIDTH 960 0
DWIDTH 12 0
BBX 12 12 0 -2
BITMAP
0000
0060
0060
0060
0e60
03c0
00c0
01a0
0330
0e00
3800
0000
ENDCHAR
STARTCHAR U30E2
ENCODING 12514
SWIDTH 960 0
DWIDTH 12 0
BBX 12 12 0 -2
BITMAP
0000
0000
3fc0
0c00
0c00
7ff0
0c00
0c00
0c00
07e0
0000
0000
ENDCHAR
STARTCHAR U30E3
ENCODING 12515
SWIDTH 960 0
DWIDTH 12 0
BBX 12 12 0 -2
BITMAP
0000
0000
0000
0000
0c00
0c00
0de0
3ec0
0680
0600
0600
0000
ENDCHAR
STARTCHAR U30E4
ENCODING 12516
SWIDTH 960 0
DWIDTH 12 0
BBX 12 12 0 -2
BITMAP
0000
1800
1800
19f0
1f60
f4c0
0d80
0c00
0600
0600
0600
0000
ENDCHAR
STARTCHAR U30E5
ENCODING 12517
SWIDTH 960 0
DWIDTH 12 0
BBX 12 12 0 -2
BITMAP
0000
0000
0000
0000
0000
0000
1f00
0300
0300
3fc0
0000
0000
ENDCHAR
STARTCHAR U30E6
ENCODING 12518
SWIDTH 960 0
DWIDTH 12 0
BBX 12 12 0 -2
BITMAP
0000
0000
0000
3fc0
00c0
00c0
0180
0180
0180
7ff0
0000
0000
ENDCHAR
STARTCHAR U30E7
ENCODING 12519
SWIDTH 960 0
DWIDTH 12 0
BBX 12 12 0 -2
BITMAP
0000
0000
0000
0000
0000
3f80
0180
1f80
0180
0180
3f80
0000
ENDCHAR
STARTCHAR U30E8
ENCODING 12520
SWIDTH 960 0
DWIDTH 12 0
BBX 12 12 0 -2
BITMAP
0000
0000
7fe0
0060
0060
3fe0
0060
0060
0060
7fe0
0060
0000
ENDCHAR
STARTCHAR U30E9
ENCODING 12521
SWIDTH 960 0
DWIDTH 12 0
BBX 12 12 0 -2
BITMAP
0000
3fc0
0000
0000
7fe0
0060
00c0
00c0
0180
0700
3c00
0000
ENDCHAR
STARTCHAR U30EA
ENCODING 12522
SWIDTH 960 0
DWIDTH 12 0
BBX 12 12 0 -2
BITMAP
0000
18c0
18c0
18c0
18c0
18c0
18c0
0180
0180
0300
0e00
0000
ENDCHAR
STARTCHAR U30EB
ENCODING 12523
SWIDTH 960 0
DWIDTH 12 0
BBX 12 12 0 -2
BITMAP
0000
0300
1b00
1b00
1b00
1b30
1b30
1b60
3340
3380
6000
0000
ENDCHAR
STARTCHAR U30EC
ENCODING 12524
SWIDTH 960 0
DWIDTH 12 0
BBX 12 12 0 -2
BITMAP
0000
3000
3000
3000
3000
3000
30c0
3180
3300
3600
3800
0000
ENDCHAR
STARTCHAR U30ED
ENCODING 12525
SWIDTH 960 0
DWIDTH 12 0
BBX 12 12 0 -2
BITMAP
0000
0000
3fe0
3060
3060
3060
3060
3060
3fe0
3060
0000
0000
ENDCHAR
STARTCHAR U30EE
ENCODING 12526
SWIDTH 960 0
DWIDTH 12 0
BBX 12 12 0 -2
BITMAP
0000
0000
0000
0000
0000
3f80
3180
3180
0300
0600
1c00
0000
ENDCHAR
STARTCHAR U30EF
ENCODING 12527
SWIDTH 960 0
DWIDTH 12 0
BBX 12 12 0 -2
BITMAP
0000
0000
3fe0
3060
3060
3060
00c0
00c0
0180
0700
1c00
0000
ENDCHAR
STARTCHAR U30F0
ENCODING 12528
SWIDTH 960 0
DWIDTH 12 0
BBX 12 12 0 -2
BITMAP
0180
0180
0180
7fe0
1980
1980
1980
7ff0
0180
0180
0180
0000
ENDCHAR
STARTCHAR U30F1
ENCODING 12529
SWIDTH 960 0
DWIDTH 12 0
BBX 12 12 0 -2
BITMAP
0000
0000
3fc0
00c0
0680
0700
0600
0600
0600
7fe0
0000
0000
ENDCHAR
STARTCHAR U30F2
ENCODING 12530
SWIDTH 960 0
DWIDTH 12 0
BBX 12 12 0 -2
BITMAP
0000
0000
3fe0
0060
0060
1fe0
00c0
00c0
0180
0700
3c00
0000
ENDCHAR
STARTCHAR U30F3
ENCODING 12531
SWIDTH 960 0
DWIDTH 12 0
BBX 12 12 0 -2
BITMAP
0000
0000
7000
1860
0060
00c0
00c0
0180
0300
0e00
7800
0000
ENDCHAR
STARTCHAR U30F4
ENCODING 12532
SWIDTH 960 0
DWIDTH 12 0
BBX 12 12 0 -2
BITMAP
06d0
06d0
0600
7fe0
6060
6060
00c0
00c0
0180
0700
1c00
0000
ENDCHAR
STARTCHAR U30F5
ENCODING 12533
SWIDTH 960 0
DWIDTH 12 0
BBX 12 12 0 -2
BITMAP
0000
0000
0000
0000
0c00
0c00
3f80
0d80
0d80
1980
3700
0000
ENDCHAR
STARTCHAR U30F6
ENCODING 12534
SWIDTH 960 0
DWIDTH 12 0
BBX 12 12 0 -2
BITMAP
0000
0000
0000
0000
0c00
0c00
0fc0
3b00
0300
0600
1c00
0000
ENDCHAR
STARTCHAR U30FB
ENCODING 12539
SWIDTH 960 0
DWIDTH 12 0
BBX 12 12 0 -2
BITMAP
0000
0000
0000
0000
0000
0700
0700
0000
0000
0000
0000
0000
ENDCHAR
STARTCHAR U30FC
ENCODING 12540
SWIDTH 960 0
DWIDTH 12 0
BBX 12 12 0 -2
BITMAP
0000
0000
0000
0000
0000
3fe0
0000
0000
0000
0000
0000
0000
ENDCHAR
STARTCHAR U30FD
ENCODING 12541
SWIDTH 960 0
DWIDTH 12 0
BBX 12 12 0 -2
BITMAP
0000
0000
0000
0000
0000
3800
0e00
0300
0180
0000
0000
0000
ENDCHAR
STARTCHAR U30FE
ENCODING 12542
SWIDTH 960 0
DWIDTH 12 0
BBX 12 12 0 -2
BITMAP
0000
0000
0180
06c0
0300
3800
0e00
0300
0180
0000
0000
0000
ENDCHAR
STARTCHAR U4E00
ENCODING 19968
SWIDTH 960 0
DWIDTH 12 0
BBX 12 12 0 -2
BITMAP
0000
0000
0000
0000
0000
7ff0
0000
0000
0000
0000
0000
0000
ENDCHAR
STARTCHAR U4E01
ENCODING 19969
SWIDTH 960 0
DWIDTH 12 0
BBX 12 12 0 -2
BITMAP
0000
fff0
0600
0600
0600
0600
0600
0600
0600
0600
0600
0e00
ENDCHAR
STARTCHAR U4E03
ENCODING 19971
SWIDTH 960 0
DWIDTH 12 0
BBX 12 12 0 -2
BITMAP
1800
1800
1800
1800
19f0
ff00
1800
1800
1800
1860
1860
0fe0
ENDCHAR
STARTCHAR U4E07
ENCODING 19975
SWIDTH 960 0
DWIDTH 12 0
BBX 12 12 0 -2
BITMAP
0000
fff0
0c00
0c00
0fc0
0cc0
0cc0
0cc0
18c0
18c0
30c0
6380
ENDCHAR
STARTCHAR U4E08
ENCODING 19976
SWIDTH 960 0
DWIDTH 12 0
BBX 12 12 0 -2
BITMAP
0600
0600
0600
fff0
0600
0600
3600
1a00
0e00
0d00
39c0
e070
ENDCHAR
STARTCHAR U4E09
ENCODING 19977
SWIDTH 960 0
DWIDTH 12 0
BBX 12 12 0 -2
BITMAP
0000
7fe0
0000
0000
0000
3fc0
0000
0000
0000
0000
fff0
0000
ENDCHAR
STARTCHAR U4E0A
ENCODING 19978
SWIDTH 960 0
DWIDTH 12 0
BBX 12 12 0 -2
BITMAP
0600
0600
0600
0600
0600
07e0
0600
0600
0600
0600
0600
fff0
ENDCHAR
STARTCHAR U4E0B
ENCODING 19979
SWIDTH 960 0
DWIDTH 12 0
BBX 12 12 0 -2
BITMAP
0000
fff0
0600
0600
0780
06c0
0660
0600
0600
0600
0600
0600
ENDCHAR
STARTCHAR U4E0D
ENCODING 19981
SWIDTH 960 0
DWIDTH 12 0
BBX 12 12 0 -2
BITMAP
0000
7ff0
0300
0600
0700
0ec0
3a60
e630
0600
0600
0600
0600
ENDCHAR
STARTCHAR U4E0E
ENCODING 19982
SWIDTH 960 0
DWIDTH 12 0
BBX 12 12 0 -2
BITMAP
1800
1800
1fe0
1800
1f80
3180
0180
fff0
0180
0180
0180
0700
ENDCHAR
STARTCHAR U4E10
ENCODING 19984
SWIDTH 960 0
DWIDTH 12 0
BBX 12 12 0 -2
BITMAP
0000
fff0
0600
37e0
3600
3600
3ff0
3030
0030
0030
0060
01c0
ENDCHAR
STARTCHAR U4E11
ENCODING 19985
SWIDTH 960 0
DWIDTH 12 0
BBX 12 12 0 -2
BITMAP
0000
3fc0
06c0
06c0
06c0
7ff0
06c0
0cc0
0cc0
0cc0
0cc0
7ff0
ENDCHAR
STARTCHAR U4E14
ENCODING 19988
SWIDTH 960 0
DWIDTH 12 0
BBX 12 12 0 -2
BITMAP
0000
1fc0
18c0
18c0
1fc0
18c0
18c0
1fc0
18c0
18c0
18c0
7ff0
ENDCHAR
STARTCHAR U4E15
ENCODING 19989
SWIDTH 960 0
DWIDTH 12 0
BBX 12 12 0 -2
BITMAP
0000
fff0
0300
0700
0ec0
3a60
e630
0600
0600
0600
0000
fff0
ENDCHAR
STARTCHAR U4E16
ENCODING 19990
SWIDTH 960 0
DWIDTH 12 0
BBX 12 12 0 -2
BITMAP
36c0
36c0
36c0
36c0
fff0
36c0
36c0
36c0
37c0
3000
3000
3fe0
ENDCHAR
STARTCHAR U4E17
ENCODING 19991
SWIDTH 960 0
DWIDTH 12 0
BBX 12 12 0 -2
BITMAP
36c0
36c0
36c0
36c0
36c0
fff0
36c0
36c0
36c0
36c0
36c0
3fc0
ENDCHAR
STARTCHAR U4E18
ENCODING 19992
SWIDTH 960 0
DWIDTH 12 0
BBX 12 12 0 -2
BITMAP
0000
01c0
3f00
3000
3000
3fe0
3180
3180
3180
3180
3180
fff0
ENDCHAR
STARTCHAR U4E19
ENCODING 19993
SWIDTH 960 0
DWIDTH 12 0
BBX 12 12 0 -2
BITMAP
0000
fff8
0600
0600
7ff0
6730
6db0
68d0
70d0
6030
6030
6070
ENDCHAR
STARTCHAR U4E1E
ENCODING 19998
SWIDTH 960 0
DWIDTH 12 0
BBX 12 12 0 -2
BITMAP
0000
3f80
0300
0660
fb40
1b80
1a80
36c0
e670
0e00
0000
fff0
ENDCHAR
STARTCHAR U4E21
ENCODING 20001
SWIDTH 960 0
DWIDTH 12 0
BBX 12 12 0 -2
BITMAP
0000
fff0
0600
0600
fff0
c630
d6d0
d6d0
d6d0
dfd0
d030
c070
ENDCHAR
STARTCHAR U4E26
ENCODING 20006
SWIDTH 960 0
DWIDTH 12 0
BBX 12 12 0 -2
BITMAP
30c0
1980
1b00
fff0
0d00
6d60
3560
3540
3580
0d00
fff0
0000
ENDCHAR
STARTCHAR U4E2A
ENCODING 20010
SWIDTH 960 0
DWIDTH 12 0
BBX 12 12 0 -2
BITMAP
0600
0600
0d00
1980
36c0
6660
c630
0600
0600
0600
0600
0600
ENDCHAR
STARTCHAR U4E2D
ENCODING 20013
SWIDTH 960 0
DWIDTH 12 0
BBX 12 12 0 -2
BITMAP
0600
0600
7fe0
6660
6660
6660
7fe0
0600
0600
0600
0600
0600
ENDCHAR
STARTCHAR U4E31
ENCODING 20017
SWIDTH 960 0
DWIDTH 12 0
BBX 12 12 0 -2
BITMAP
0d80
0d80
6db0
6db0
6db0
6db0
6db0
7df0
6db0
0d80
1980
3180
ENDCHAR
STARTCHAR U4E32
ENCODING 20018
SWIDTH 960 0
DWIDTH 12 0
BBX 12 12 0 -2
BITMAP
0600
0600
7fe0
6660
7fe0
0600
fff0
c630
fff0
0600
0600
0600
ENDCHAR
STARTCHAR U4E36
ENCODING 20022
SWIDTH 960 0
DWIDTH 12 0
BBX 12 12 0 -2
BITMAP
0000
0000
0000
1800
0c00
0600
0600
0300
0300
0000
0000
0000
ENDCHAR
STARTCHAR U4E38
ENCODING 20024
SWIDTH 960 0
DWIDTH 12 0
BBX 12 12 0 -2
BITMAP
1800
1800
1800
ff80
1980
1980
6980
3980
1d80
36b0
66b0
c0f0
ENDCHAR
STARTCHAR U4E39
ENCODING 20025
SWIDTH 960 0
DWIDTH 12 0
BBX 12 12 0 -2
BITMAP
0000
3fc0
30c0
34c0
36c0
36c0
fff0
30c0
30c0
60c0
60c0
c1c0
ENDCHAR
STARTCHAR U4E3B
ENCODING 20027
SWIDTH 960 0
DWIDTH 12 0
BBX 12 12 0 -2
BITMAP
0c00
0600
7fe0
0600
0600
0600
3fc0
0600
0600
0600
0600
fff0
ENDCHAR
STARTCHAR U4E3C
ENCODING 20028
SWIDTH 960 0
DWIDTH 12 0
BBX 12 12 0 -2
BITMAP
1980
1980
1980
ffe0
1980
1a80
1b80
fff0
1980
1980
3180
6180
ENDCHAR
STARTCHAR U4E3F
ENCODING 20031
SWIDTH 960 0
DWIDTH 12 0
BBX 12 12 0 -2
BITMAP
0300
0300
0300
0300
0300
0300
0300
0300
0600
0600
0c00
3800
ENDCHAR
STARTCHAR U4E42
ENCODING 20034
SWIDTH 960 0
DWIDTH 12 0
BBX 12 12 0 -2
BITMAP
00c0
18c0
18c0
18c0
34c0
0d80
0680
0300
0680
0cc0
3860
e038
ENDCHAR
STARTCHAR U4E43
ENCODING 20035
SWIDTH 960 0
DWIDTH 12 0
BBX 12 12 0 -2
BITMAP
0000
7f80
0d80
0d80
0de0
0c60
0c60
0c60
1860
1860
3060
61c0
ENDCHAR
STARTCHAR U4E45
ENCODING 20037
SWIDTH 960 0
DWIDTH 12 0
BBX 12 12 0 -2
BITMAP
0c00
0c00
0f80
1980
1980
3300
6300
0600
0d00
1980
30c0
e070
ENDCHAR
STARTCHAR U4E4B
ENCODING 20043
SWIDTH 960 0
DWIDTH 12 0
BBX 12 12 0 -2
BITMAP
0600
0600
3fe0
0060
00c0
0180
0300
3600
3400
3800
6e00
c3f8
ENDCHAR
STARTCHAR U4E4D
ENCODING 20045
SWIDTH 960 0
DWIDTH 12 0
BBX 12 12 0 -2
BITMAP
3000
3000
3ff0
3600
6600
67e0
c600
0600
07e0
0600
0600
0600
ENDCHAR
STARTCHAR U4E4E
ENCODING 20046
SWIDTH 960 0
DWIDTH 12 0
BBX 12 12 0 -2
BITMAP
01c0
7f00
06c0
36c0
1a80
1a00
fff0
0600
0600
0600
0600
0e00
ENDCHAR
STARTCHAR U4E4F
ENCODING 20047
SWIDTH 960 0
DWIDTH 12 0
BBX 12 12 0 -2
BITMAP
03e0
7e00
0600
0600
7fe0
00c0
0180
6700
6c00
7000
dc00
c7f0
ENDCHAR
STARTCHAR U4E55
ENCODING 20053
SWIDTH 960 0
DWIDTH 12 0
BBX 12 12 0 -2
BITMAP
01e0
7f00
6300
7ff0
6300
7ff0
6300
6fe0
6b60
db60
dbc0
0300
ENDCHAR
STARTCHAR U4E56
ENCODING 20054
SWIDTH 960 0
DWIDTH 12 0
BBX 12 12 0 -2
BITMAP
03c0
7e00
0600
fff0
0600
1a80
fab0
1ac0
1ab0
3ab0
eaf0
0600
ENDCHAR
STARTCHAR U4E57
ENCODING 20055
SWIDTH 960 0
DWIDTH 12 0
BBX 12 12 0 -2
BITMAP
03c0
3f00
0600
fff0
36c0
7fe0
36c0
fff0
0f00
3ac0
e670
0600
ENDCHAR
STARTCHAR U4E58
ENCODING 20056
SWIDTH 960 0
DWIDTH 12 0
BBX 12 12 0 -2
BITMAP
03c0
3e00
0600
fff0
1a80
7ab0
1ac0
3ab0
eaf0
0f00
3ac0
e670
ENDCHAR
STARTCHAR U4E59
ENCODING 20057
SWIDTH 960 0
DWIDTH 12 0
BBX 12 12 0 -2
BITMAP
0000
3fc0
00c0
0180
0300
0600
0c00
1800
3000
6030
6030
3ff0
ENDCHAR
STARTCHAR U4E5D
ENCODING 20061
SWIDTH 960 0
DWIDTH 12 0
BBX 12 12 0 -2
BITMAP
0c00
0c00
0c00
7f80
0d80
0d80
0d80
0d80
1980
19b0
31b0
60f0
ENDCHAR
STARTCHAR U4E5E
ENCODING 20062
SWIDTH 960 0
DWIDTH 12 0
BBX 12 12 0 -2
BITMAP
1800
1800
3ff0
3000
6fc0
c180
0300
0e00
1800
3030
3030
1ff0
ENDCHAR
STARTCHAR U4E5F
ENCODING 20063
SWIDTH 960 0
DWIDTH 12 0
BBX 12 12 0 -2
BITMAP
0600
3600
3600
37c0
3ec0
f6c0
36c0
36c0
3780
3030
3030
1ff0
ENDCHAR
STARTCHAR U4E62
ENCODING 20066
SWIDTH 960 0
DWIDTH 12 0
BBX 12 12 0 -2
BITMAP
3300
3300
3300
d500
d500
d500
d500
d500
d500
fd30
c330
01f0
ENDCHAR
STARTCHAR U4E71
ENCODING 20081
SWIDTH 960 0
DWIDTH 12 0
BBX 12 12 0 -2
BITMAP
0680
0d80
7980
1980
1980
ff80
1980
1980
7e80
66b0
66b0
7ef0
ENDCHAR
STARTCHAR U4E73
ENCODING 20083
SWIDTH 960 0
DWIDTH 12 0
BBX 12 12 0 -2
BITMAP
0e80
fa80
da80
6d80
0180
7e80
0d80
1980
fe80
19b0
19b0
38f0
ENDCHAR
STARTCHAR U4E7E
ENCODING 20094
SWIDTH 960 0
DWIDTH 12 0
BBX 12 12 0 -2
BITMAP
3300
fd00
33f0
fe00
cde0
fc60
ccc0
fd80
3300
fe30
3630
33f0
ENDCHAR
STARTCHAR U4E80
ENCODING 20096
SWIDTH 960 0
DWIDTH 12 0
BBX 12 12 0 -2
BITMAP
0c00
1f80
3300
ffc0
36c0
3fc0
36c0
7fe0
6660
7fe0
0630
03f0
ENDCHAR
STARTCHAR U4E82
ENCODING 20098
SWIDTH 960 0
DWIDTH 12 0
BBX 12 12 0 -2
BITMAP
0f40
fac0
6ac0
db40
7ec0
34c0
ff40
d540
fd40
d558
db58
d778
ENDCHAR
STARTCHAR U4E85
ENCODING 20101
SWIDTH 960 0
DWIDTH 12 0
BBX 12 12 0 -2
BITMAP
0600
0600
0600
0600
0600
0600
0600
0600
0600
0600
0600
0e00
ENDCHAR
STARTCHAR U4E86
ENCODING 20102
SWIDTH 960 0
DWIDTH 12 0
BBX 12 12 0 -2
BITMAP
0000
7fe0
00c0
0180
0700
0600
0600
0600
0600
0600
0600
0e00
ENDCHAR
STARTCHAR U4E88
ENCODING 20104
SWIDTH 960 0
DWIDTH 12 0
BBX 12 12 0 -2
BITMAP
0000
3fc0
0180
1d00
0600
fff0
0660
06c0
0600
0600
0600
0e00
ENDCHAR
STARTCHAR U4E89
ENCODING 20105
SWIDTH 960 0
DWIDTH 12 0
BBX 12 12 0 -2
BITMAP
0c00
0f80
3980
0300
3fc0
06c0
fff0
06c0
3fc0
0600
0600
0e00
ENDCHAR
STARTCHAR U4E8A
ENCODING 20106
SWIDTH 960 0
DWIDTH 12 0
BBX 12 12 0 -2
BITMAP
0600
fff0
36c0
1a80
7fe0
0660
fff0
0660
7fe0
0600
0600
0e00
ENDCHAR
STARTCHAR U4E8B
ENCODING 20107
SWIDTH 960 0
DWIDTH 12 0
BBX 12 12 0 -2
BITMAP
0600
fff0
36c0
3fc0
0600
7fc0
06c0
fff0
06c0
7fc0
0600
0e00
ENDCHAR
STARTCHAR U4E8C
ENCODING 20108
SWIDTH 960 0
DWIDTH 12 0
BBX 12 12 0 -2
BITMAP
0000
0000
7fe0
0000
0000
0000
0000
0000
0000
fff0
0000
0000
ENDCHAR
STARTCHAR U4E8E
ENCODING 20110
SWIDTH 960 0
DWIDTH 12 0
BBX 12 12 0 -2
BITMAP
0000
7fe0
0600
0600
0600
fff0
0600
0600
0600
0600
0600
0e00
ENDCHAR
STARTCHAR U4E91
ENCODING 20113
SWIDTH 960 0
DWIDTH 12 0
BBX 12 12 0 -2
BITMAP
0000
3fc0
0000
0000
fff0
0600
0600
0d80
0cc0
1bc0
7e60
0060
ENDCHAR
STARTCHAR U4E92
ENCODING 20114
SWIDTH 960 0
DWIDTH 12 0
BBX 12 12 0 -2
BITMAP
0000
7fe0
1800
1800
1f80
1980
3180
3180
7f00
0300
0300
fff0
ENDCHAR
STARTCHAR U4E94
ENCODING 20116
SWIDTH 960 0
DWIDTH 12 0
BBX 12 12 0 -2
BITMAP
0000
3fe0
0600
0600
0600
3fc0
06c0
06c0
0cc0
0cc0
0cc0
7ff0
ENDCHAR
STARTCHAR U4E95
ENCODING 20117
SWIDTH 960 0
DWIDTH 12 0
BBX 12 12 0 -2
BITMAP
0cc0
0cc0
0cc0
7ff0
0cc0
0cc0
0cc0
7ff0
0cc0
0cc0
18c0
30c0
ENDCHAR
STARTCHAR U4E98
ENCODING 20120
SWIDTH 960 0
DWIDTH 12 0
BBX 12 12 0 -2
BITMAP
0000
7fe0
0000
3fc0
30c0
30c0
3fc0
30c0
30c0
3fc0
0000
fff0
ENDCHAR
STARTCHAR U4E99
ENCODING 20121
SWIDTH 960 0
DWIDTH 12 0
BBX 12 12 0 -2
BITMAP
0000
fff0
1800
1800
1f80
1d80
3680
3980
6d00
6d00
0300
fff0
ENDCHAR
STARTCHAR U4E9B
ENCODING 20123
SWIDTH 960 0
DWIDTH 12 0
BBX 12 12 0 -2
BITMAP
1b00
6b00
6d60
6bc0
6b30
6f30
f9f0
0000
3fc0
0000
0000
fff0
ENDCHAR
STARTCHAR U4E9C
ENCODING 20124
SWIDTH 960 0
DWIDTH 12 0
BBX 12 12 0 -2
BITMAP
0000
7ff0
0d80
0d80
3fe0
35a0
35a0
35a0
3fe0
0d80
0d80
7ff0
ENDCHAR
STARTCHAR U4E9E
ENCODING 20126
SWIDTH 960 0
DWIDTH 12 0
BBX 12 12 0 -2
BITMAP
0000
fff0
0d80
0d80
7df0
6030
6030
7df0
0d80
0d80
0d80
fff0
ENDCHAR
STARTCHAR U4E9F
ENCODING 20127
SWIDTH 960 0
DWIDTH 12 0
BBX 12 12 0 -2
BITMAP
0000
7fe0
0600
0c00
1ff0
fbb0
db50
db60
dba0
fb30
0e00
fff0
ENDCHAR
STARTCHAR U4EA0
ENCODING 20128
SWIDTH 960 0
DWIDTH 12 0
BBX 12 12 0 -2
BITMAP
0000
0000
0000
0600
0600
0600
fff0
0000
0000
0000
0000
0000
ENDCHAR
STARTCHAR U4EA1
ENCODING 20129
SWIDTH 960 0
DWIDTH 12 0
BBX 12 12 0 -2
BITMAP
0600
0600
0600
fff0
3000
3000
3000
3000
3000
3000
1fe0
0000
ENDCHAR
STARTCHAR U4EA2
ENCODING 20130
SWIDTH 960 0
DWIDTH 12 0
BBX 12 12 0 -2
BITMAP
0600
0600
fff0
0000
1f00
1b00
1b00
1b00
1b00
3330
3330
61f0
ENDCHAR
STARTCHAR U4EA4
ENCODING 20132
SWIDTH 960 0
DWIDTH 12 0
BBX 12 12 0 -2
BITMAP
0600
0600
fff0
1980
18c0
31a0
6980
0d00
0600
0d00
39c0
e070
ENDCHAR
STARTCHAR U4EA5
ENCODING 20133
SWIDTH 960 0
DWIDTH 12 0
BBX 12 12 0 -2
BITMAP
0600
fff0
0c00
0d00
7b00
1a00
0ec0
1d80
7300
0e80
38c0
e060
ENDCHAR
STARTCHAR U4EA6
ENCODING 20134
SWIDTH 960 0
DWIDTH 12 0
BBX 12 12 0 -2
BITMAP
0600
0600
7ff0
0d80
0d80
35a0
35b0
6db0
cdb0
1980
1980
3380
ENDCHAR
STARTCHAR U4EA8
ENCODING 20136
SWIDTH 960 0
DWIDTH 12 0
BBX 12 12 0 -2
BITMAP
0600
fff0
3fc0
30c0
3fc0
0000
7fe0
0180
0700
0600
0600
0e00
ENDCHAR
STARTCHAR U4EAB
ENCODING 20139
SWIDTH 960 0
DWIDTH 12 0
BBX 12 12 0 -2
BITMAP
0600
fff0
3fc0
30c0
3fc0
0000
3fc0
0300
fff0
0600
0600
0e00
ENDCHAR
STARTCHAR U4EAC
ENCODING 20140
SWIDTH 960 0
DWIDTH 12 0
BBX 12 12 0 -2
BITMAP
0600
fff0
0000
3fc0
30c0
30c0
3fc0
0600
36c0
3660
6660
0e00
ENDCHAR
STARTCHAR U4EAD
ENCODING 20141
SWIDTH 960 0
DWIDTH 12 0
BBX 12 12 0 -2
BITMAP
0600
fff0
0000
3fc0
30c0
fff0
c030
7fe0
0600
0600
0600
0e00
ENDCHAR
STARTCHAR U4EAE
ENCODING 20142
SWIDTH 960 0
DWIDTH 12 0
BBX 12 12 0 -2
BITMAP
0600
fff0
0000
3fc0
30c0
3fc0
0000
fff0
cd30
0d00
1b30
71f0
ENDCHAR
STARTCHAR U4EB0
ENCODING 20144
SWIDTH 960 0
DWIDTH 12 0
BBX 12 12 0 -2
BITMAP
0600
fff0
0000
3fc0
30c0
3fc0
30c0
3fc0
0680
36c0
6660
0e00
ENDCHAR
STARTCHAR U4EB3
ENCODING 20147
SWIDTH 960 0
DWIDTH 12 0
BBX 12 12 0 -2
BITMAP
0600
fff0
0000
3fc0
30c0
fff0
c3b0
3e00
07e0
7e00
0630
03f0
ENDCHAR
STARTCHAR U4EB6
ENCODING 20150
SWIDTH 960 0
DWIDTH 12 0
BBX 12 12 0 -2
BITMAP
0600
fff0
3740
3540
3740
3fc0
0000
1f80
1980
1f80
1980
fff0
ENDCHAR
STARTCHAR U4EBA
ENCODING 20154
SWIDTH 960 0
DWIDTH 12 0
BBX 12 12 0 -2
BITMAP
0600
0600
0600
0600
0600
0600
0d00
0d00
1980
30c0
6060
c030
ENDCHAR
STARTCHAR U4EC0
ENCODING 20160
SWIDTH 960 0
DWIDTH 12 0
BBX 12 12 0 -2
BITMAP
1980
1980
1980
3180
3ff0
7180
d180
3180
3180
3180
3180
3180
ENDCHAR
STARTCHAR U4EC1
ENCODING 20161
SWIDTH 960 0
DWIDTH 12 0
BBX 12 12 0 -2
BITMAP
1800
1800
37e0
3000
7000
d000
3000
3000
3000
3000
37f0
3000
ENDCHAR
STARTCHAR U4EC2
ENCODING 20162
SWIDTH 960 0
DWIDTH 12 0
BBX 12 12 0 -2
BITMAP
1b00
1b00
1b00
37f0
3330
7330
d330
3330
3330
3630
3630
34e0
ENDCHAR
STARTCHAR U4EC4
ENCODING 20164
SWIDTH 960 0
DWIDTH 12 0
BBX 12 12 0 -2
BITMAP
0000
3ff0
3300
3300
3300
3300
3300
3680
6680
6cc0
d860
3030
ENDCHAR
STARTCHAR U4EC6
ENCODING 20166
SWIDTH 960 0
DWIDTH 12 0
BBX 12 12 0 -2
BITMAP
1980
1980
1980
3180
31c0
71a0
d1b0
31b0
3180
3180
3180
3180
ENDCHAR
STARTCHAR U4EC7
ENCODING 20167
SWIDTH 960 0
DWIDTH 12 0
BBX 12 12 0 -2
BITMAP
3600
3600
3600
6fc0
66c0
e6c0
66c0
66c0
6cc0
6cd0
68d0
7070
ENDCHAR
STARTCHAR U4ECA
ENCODING 20170
SWIDTH 960 0
DWIDTH 12 0
BBX 12 12 0 -2
BITMAP
0600
0600
0d00
1980
3fc0
e070
0000
3fc0
0180
0300
0300
0600
ENDCHAR
STARTCHAR U4ECB
ENCODING 20171
SWIDTH 960 0
DWIDTH 12 0
BBX 12 12 0 -2
BITMAP
0600
0600
0d00
1980
30c0
e9b0
1980
1980
1980
3180
3180
6180
ENDCHAR
STARTCHAR U4ECD
ENCODING 20173
SWIDTH 960 0
DWIDTH 12 0
BBX 12 12 0 -2
BITMAP
1800
1fc0
1ac0
36c0
36c0
76f0
d6d0
3630
3630
3430
3430
38e0
ENDCHAR
STARTCHAR U4ECE
ENCODING 20174
SWIDTH 960 0
DWIDTH 12 0
BBX 12 12 0 -2
BITMAP
18c0
18c0
18c0
18c0
18c0
18c0
18c0
35a0
35a0
6730
6330
c618
ENDCHAR
STARTCHAR U4ECF
ENCODING 20175
SWIDTH 960 0
DWIDTH 12 0
BBX 12 12 0 -2
BITMAP
1b00
1b00
1b00
3300
3300
7300
d6c0
3660
3660
35f0
3f30
3030
ENDCHAR
STARTCHAR U4ED4
ENCODING 20180
SWIDTH 960 0
DWIDTH 12 0
BBX 12 12 0 -2
BITMAP
1800
1fe0
1860
30c0
3180
7180
dff0
3180
3180
3180
3180
3380
ENDCHAR
STARTCHAR U4ED5
ENCODING 20181
SWIDTH 960 0
DWIDTH 12 0
BBX 12 12 0 -2
BITMAP
1980
1980
1980
3180
3ff8
7180
d180
3180
3180
3180
37e0
3000
ENDCHAR
STARTCHAR U4ED6
ENCODING 20182
SWIDTH 960 0
DWIDTH 12 0
BBX 12 12 0 -2
BITMAP
1980
1a80
3680
36e0
77a0
dea0
36a0
36a0
36c0
3630
3630
33f0
ENDCHAR
STARTCHAR U4ED7
ENCODING 20183
SWIDTH 960 0
DWIDTH 12 0
BBX 12 12 0 -2
BITMAP
3180
3180
3180
6ff0
6180
ed80
6d80
6a80
6300
6680
6cc0
6870
ENDCHAR
STARTCHAR U4ED8
ENCODING 20184
SWIDTH 960 0
DWIDTH 12 0
BBX 12 12 0 -2
BITMAP
18c0
18c0
18c0
37f0
30c0
74c0
d6c0
36c0
30c0
30c0
30c0
31c0
ENDCHAR
STARTCHAR U4ED9
ENCODING 20185
SWIDTH 960 0
DWIDTH 12 0
BBX 12 12 0 -2
BITMAP
1980
1980
1980
35b0
35b0
75b0
d5b0
35b0
35b0
35b0
37f0
3430
ENDCHAR
STARTCHAR U4EDD
ENCODING 20189
SWIDTH 960 0
DWIDTH 12 0
BBX 12 12 0 -2
BITMAP
0600
0600
0d00
1980
30c0
e070
3fc0
0600
0600
0600
0600
fff0
ENDCHAR
STARTCHAR U4EDE
ENCODING 20190
SWIDTH 960 0
DWIDTH 12 0
BBX 12 12 0 -2
BITMAP
1800
1ff0
1b30
3330
3330
7530
d530
3b30
3330
3630
3630
34e0
ENDCHAR
STARTCHAR U4EDF
ENCODING 20191
SWIDTH 960 0
DWIDTH 12 0
BBX 12 12 0 -2
BITMAP
18e0
1f80
1980
3180
3180
7ff0
d180
3180
3180
3180
3180
3180
ENDCHAR
STARTCHAR U4EE3
ENCODING 20195
SWIDTH 960 0
DWIDTH 12 0
BBX 12 12 0 -2
BITMAP
1b40
1b60
1b00
33f0
3f00
7180
d180
3180
30c0
30d0
3070
3030
ENDCHAR
STARTCHAR U4EE4
ENCODING 20196
SWIDTH 960 0
DWIDTH 12 0
BBX 12 12 0 -2
BITMAP
0600
0600
0d00
1980
3fc0
e070
3fe0
0660
0660
06c0
0600
0600
ENDCHAR
STARTCHAR U4EE5
ENCODING 20197
SWIDTH 960 0
DWIDTH 12 0
BBX 12 12 0 -2
BITMAP
3060
3060
3460
3660
3660
3360
3060
3460
38e0
60d0
c398
0e00
ENDCHAR
STARTCHAR U4EED
ENCODING 20205
SWIDTH 960 0
DWIDTH 12 0
BBX 12 12 0 -2
BITMAP
1800
1ff0
1b30
3330
3530
7730
d3b0
3370
3338
3630
3630
34e0
ENDCHAR
STARTCHAR U4EEE
ENCODING 20206
SWIDTH 960 0
DWIDTH 12 0
BBX 12 12 0 -2
BITMAP
1800
1bf0
1a00
3600
37e0
7760
d6a0
36c0
34c0
35c0
3b60
3630
ENDCHAR
STARTCHAR U4EF0
ENCODING 20208
SWIDTH 960 0
DWIDTH 12 0
BBX 12 12 0 -2
BITMAP
3380
3600
35f0
6db0
6db0
edb0
6db0
6db0
6db0
6ee0
6180
6180
ENDCHAR
STARTCHAR U4EF2
ENCODING 20210
SWIDTH 960 0
DWIDTH 12 0
BBX 12 12 0 -2
BITMAP
1980
1980
1ff0
35b0
35b0
75b0
d7f0
3180
3180
3180
3180
3180
ENDCHAR
STARTCHAR U4EF6
ENCODING 20214
SWIDTH 960 0
DWIDTH 12 0
BBX 12 12 0 -2
BITMAP
1980
1a80
1a80
37e0
3580
7980
dff0
3180
3180
3180
3180
3180
ENDCHAR
STARTCHAR U4EF7
ENCODING 20215
SWIDTH 960 0
DWIDTH 12 0
BBX 12 12 0 -2
BITMAP
1b00
1b00
1a80
34c0
3860
76d0
d6d8
36c0
36c0
34c0
34c0
38c0
ENDCHAR
STARTCHAR U4EFB
ENCODING 20219
SWIDTH 960 0
DWIDTH 12 0
BBX 12 12 0 -2
BITMAP
18e0
1f80
1980
3180
3180
7ff8
d180
3180
3180
3180
37f0
3000
ENDCHAR
STARTCHAR U4F01
ENCODING 20225
SWIDTH 960 0
DWIDTH 12 0
BBX 12 12 0 -2
BITMAP
0600
0600
0d00
1980
36c0
e670
0600
37c0
3600
3600
3600
fff0
ENDCHAR
STARTCHAR U4F09
ENCODING 20233
SWIDTH 960 0
DWIDTH 12 0
BBX 12 12 0 -2
BITMAP
3300
3300
3ff0
6000
6f80
ed80
6d80
6d80
6d80
69b0
69b0
70f0
ENDCHAR
STARTCHAR U4F0A
ENCODING 20234
SWIDTH 960 0
DWIDTH 12 0
BBX 12 12 0 -2
BITMAP
1800
1fe0
1b60
3360
7ff0
d360
3360
37e0
3300
3300
3600
3400
ENDCHAR
STARTCHAR U4F0D
ENCODING 20237
SWIDTH 960 0
DWIDTH 12 0
BBX 12 12 0 -2
BITMAP
1800
1ff0
1b00
3300
3300
77c0
d340
36c0
36c0
36c0
36c0
3ff0
ENDCHAR
STARTCHAR U4F0E
ENCODING 20238
SWIDTH 960 0
DWIDTH 12 0
BBX 12 12 0 -2
BITMAP
1980
1980
1ff0
3180
3180
77f0
d060
3660
3340
3180
3740
3c70
ENDCHAR
STARTCHAR U4F0F
ENCODING 20239
SWIDTH 960 0
DWIDTH 12 0
BBX 12 12 0 -2
BITMAP
1b00
1b40
1b60
3300
3ff0
7300
d300
3680
3680
34c0
3860
3030
ENDCHAR
STARTCHAR U4F10
ENCODING 20240
SWIDTH 960 0
DWIDTH 12 0
BBX 12 12 0 -2
BITMAP
1b40
1b60
1b00
33e0
3f00
7340
d340
3180
3380
36d0
3c70
3030
ENDCHAR
STARTCHAR U4F11
ENCODING 20241
SWIDTH 960 0
DWIDTH 12 0
BBX 12 12 0 -2
BITMAP
1980
1980
1980
3ff0
3180
73c0
d3c0
36a0
35b0
3998
3180
3180
ENDCHAR
STARTCHAR U4F1A
ENCODING 20250
SWIDTH 960 0
DWIDTH 12 0
BBX 12 12 0 -2
BITMAP
0600
0600
0d00
1980
3fc0
e070
0000
7fe0
0d00
1b80
7ec0
00c0
ENDCHAR
STARTCHAR U4F1C
ENCODING 20252
SWIDTH 960 0
DWIDTH 12 0
BBX 12 12 0 -2
BITMAP
3300
3300
37c0
6340
66d0
ed70
6b00
6ff0
6300
6300
6300
6300
ENDCHAR
STARTCHAR U4F1D
ENCODING 20253
SWIDTH 960 0
DWIDTH 12 0
BBX 12 12 0 -2
BITMAP
1800
1be0
1800
3000
37f0
7300
d300
3340
3660
36e0
3730
3030
ENDCHAR
STARTCHAR U4F2F
ENCODING 20271
SWIDTH 960 0
DWIDTH 12 0
BBX 12 12 0 -2
BITMAP
1980
1980
3300
37f0
7630
d630
37f0
3630
3630
3630
3630
37f0
ENDCHAR
STARTCHAR U4F30
ENCODING 20272
SWIDTH 960 0
DWIDTH 12 0
BBX 12 12 0 -2
BITMAP
1980
1980
1ff0
3180
3180
7180
d7e0
3660
3660
3660
3660
37e0
ENDCHAR
STARTCHAR U4F34
ENCODING 20276
SWIDTH 960 0
DWIDTH 12 0
BBX 12 12 0 -2
BITMAP
3300
3b60
3560
6d40
6fe0
e300
6300
6ff0
6300
6300
6300
6300
ENDCHAR
STARTCHAR U4F36
ENCODING 20278
SWIDTH 960 0
DWIDTH 12 0
BBX 12 12 0 -2
BITMAP
1b00
1b00
3680
36c0
77e0
d830
37e0
3360
3360
33c0
3300
3300
ENDCHAR
STARTCHAR U4F38
ENCODING 20280
SWIDTH 960 0
DWIDTH 12 0
BBX 12 12 0 -2
BITMAP
1980
1980
1ff0
35b0
37f0
75b0
d5b0
37f0
3180
3180
3180
3180
ENDCHAR
STARTCHAR U4F3A
ENCODING 20282
SWIDTH 960 0
DWIDTH 12 0
BBX 12 12 0 -2
BITMAP
1800
1ff0
1830
37d0
3030
77b0
d5b0
35b0
37b0
3030
3030
3070
ENDCHAR
STARTCHAR U4F3C
ENCODING 20284
SWIDTH 960 0
DWIDTH 12 0
BBX 12 12 0 -2
BITMAP
3060
3460
3460
6d60
6da0
ec60
6c60
6c60
6d60
6ed0
7998
6300
ENDCHAR
STARTCHAR U4F3D
ENCODING 20285
SWIDTH 960 0
DWIDTH 12 0
BBX 12 12 0 -2
BITMAP
3400
3400
34f0
6f50
6d50
ed50
6d50
6d50
6b50
6b50
7370
6e00
ENDCHAR
STARTCHAR U4F43
ENCODING 20291
SWIDTH 960 0
DWIDTH 12 0
BBX 12 12 0 -2
BITMAP
1800
1bf0
36b0
36b0
76b0
d7f0
36b0
36b0
36b0
36b0
37f0
3000
ENDCHAR
STARTCHAR U4F46
ENCODING 20294
SWIDTH 960 0
DWIDTH 12 0
BBX 12 12 0 -2
BITMAP
1800
1be0
1a60
3660
37e0
7660
d660
3660
37e0
3000
3000
37f8
ENDCHAR
STARTCHAR U4F47
ENCODING 20295
SWIDTH 960 0
DWIDTH 12 0
BBX 12 12 0 -2
BITMAP
1980
1ff0
1c30
3000
3ff0
7180
d180
3180
3180
3180
3180
3380
ENDCHAR
STARTCHAR U4F4D
ENCODING 20301
SWIDTH 960 0
DWIDTH 12 0
BBX 12 12 0 -2
BITMAP
1980
1980
1980
37f0
3060
7460
d660
3660
36c0
36c0
3180
3ff0
ENDCHAR
STARTCHAR U4F4E
ENCODING 20302
SWIDTH 960 0
DWIDTH 12 0
BBX 12 12 0 -2
BITMAP
18e0
1f80
1d80
3580
37f0
7580
d580
34c0
3740
38d0
3070
37d0
ENDCHAR
STARTCHAR U4F4F
ENCODING 20303
SWIDTH 960 0
DWIDTH 12 0
BBX 12 12 0 -2
BITMAP
1b00
1980
1ff0
3180
3180
7180
d7e0
3180
3180
3180
3180
37f0
ENDCHAR
STARTCHAR U4F50
ENCODING 20304
SWIDTH 960 0
DWIDTH 12 0
BBX 12 12 0 -2
BITMAP
3300
3300
3300
6ff0
6300
e600
67f0
6d80
6980
6180
6ff0
6000
ENDCHAR
STARTCHAR U4F51
ENCODING 20305
SWIDTH 960 0
DWIDTH 12 0
BBX 12 12 0 -2
BITMAP
3300
3300
3300
7ff0
6300
e600
6600
6fe0
6a60
7660
6660
67e0
ENDCHAR
STARTCHAR U4F53
ENCODING 20307
SWIDTH 960 0
DWIDTH 12 0
BBX 12 12 0 -2
BITMAP
1980
1980
1980
3ff0
3180
73c0
d3c0
36a0
35b0
3be8
3180
3180
ENDCHAR
STARTCHAR U4F55
ENCODING 20309
SWIDTH 960 0
DWIDTH 12 0
BBX 12 12 0 -2
BITMAP
1800
1ff8
1860
3060
37a0
75a0
d5a0
35a0
37a0
3060
3060
30e0
ENDCHAR
STARTCHAR U4F57
ENCODING 20311
SWIDTH 960 0
DWIDTH 12 0
BBX 12 12 0 -2
BITMAP
1b00
1ff0
1c30
3430
3600
76e0
d780
3600
3600
3630
3630
33f0
ENDCHAR
STARTCHAR U4F59
ENCODING 20313
SWIDTH 960 0
DWIDTH 12 0
BBX 12 12 0 -2
BITMAP
0600
0600
0d00
39c0
efb0
0600
7fe0
0600
36c0
3660
6660
0e00
ENDCHAR
STARTCHAR U4F5A
ENCODING 20314
SWIDTH 960 0
DWIDTH 12 0
BBX 12 12 0 -2
BITMAP
3300
3500
3500
6fe0
6b00
e300
6ff0
6300
6680
6680
6cc0
6860
ENDCHAR
STARTCHAR U4F5B
ENCODING 20315
SWIDTH 960 0
DWIDTH 12 0
BBX 12 12 0 -2
BITMAP
3680
3680
37e0
66a0
6fe0
ea80
6ff0
66b0
66b0
6da0
6d80
6980
ENDCHAR
STARTCHAR U4F5C
ENCODING 20316
SWIDTH 960 0
DWIDTH 12 0
BBX 12 12 0 -2
BITMAP
1b00
1b00
1bf0
3680
3680
75f0
d180
3180
31f0
3180
3180
3180
ENDCHAR
STARTCHAR U4F5D
ENCODING 20317
SWIDTH 960 0
DWIDTH 12 0
BBX 12 12 0 -2
BITMAP
1b00
1b00
1bf0
3630
3430
7fb0
d5b0
35b0
37b0
3030
3030
30e0
ENDCHAR
STARTCHAR U4F5E
ENCODING 20318
SWIDTH 960 0
DWIDTH 12 0
BBX 12 12 0 -2
BITMAP
37e0
3000
37f0
6300
6300
eff0
66c0
66c0
6f80
61c0
6360
6e30
ENDCHAR
STARTCHAR U4F69
ENCODING 20329
SWIDTH 960 0
DWIDTH 12 0
BBX 12 12 0 -2
BITMAP
3000
3fe0
3860
6fe0
6b60
eb60
6fe0
6d60
6d60
75a8
7338
6318
ENDCHAR
STARTCHAR U4F6F
ENCODING 20335
SWIDTH 960 0
DWIDTH 12 0
BBX 12 12 0 -2
BITMAP
1a60
1b40
1ff0
3180
3180
77e0
d180
3180
3ff0
3180
3180
3180
ENDCHAR
STARTCHAR U4F70
ENCODING 20336
SWIDTH 960 0
DWIDTH 12 0
BBX 12 12 0 -2
BITMAP
1800
1ff0
1980
3300
37e0
7460
d460
37e0
3460
3460
3460
37e0
ENDCHAR
STARTCHAR U4F73
ENCODING 20339
SWIDTH 960 0
DWIDTH 12 0
BBX 12 12 0 -2
BITMAP
3300
3300
3fe0
6300
6300
eff0
6300
6300
6fe0
6300
6300
7ff0
ENDCHAR
STARTCHAR U4F75
ENCODING 20341
SWIDTH 960 0
DWIDTH 12 0
BBX 12 12 0 -2
BITMAP
1c60
1a60
36c0
37f0
76c0
d6c0
3ff8
36c0
36c0
34c0
34c0
38c0
ENDCHAR
STARTCHAR U4F76
ENCODING 20342
SWIDTH 960 0
DWIDTH 12 0
BBX 12 12 0 -2
BITMAP
1980
1980
1ff0
3180
3180
77e0
d000
37e0
3460
3460
3460
37e0
ENDCHAR
STARTCHAR U4F7B
ENCODING 20347
SWIDTH 960 0
DWIDTH 12 0
BBX 12 12 0 -2
BITMAP
3680
3680
36a0
6aa0
6ec0
e680
6ec0
6aa0
6680
6db0
6db0
68f0
ENDCHAR
STARTCHAR U4F7C
ENCODING 20348
SWIDTH 960 0
DWIDTH 12 0
BBX 12 12 0 -2
BITMAP
1980
1980
1ff0
3340
3660
76d0
d6c0
3340
3180
3340
3660
3c30
ENDCHAR
STARTCHAR U4F7F
ENCODING 20351
SWIDTH 960 0
DWIDTH 12 0
BBX 12 12 0 -2
BITMAP
1980
1ff0
1980
37f0
35b0
75b0
d7f0
3580
3680
3380
36c0
3c70
ENDCHAR
STARTCHAR U4F83
ENCODING 20355
SWIDTH 960 0
DWIDTH 12 0
BBX 12 12 0 -2
BITMAP
1800
1fe0
1c60
3460
3460
77e0
d000
3540
3540
3550
3b50
3070
ENDCHAR
STARTCHAR U4F86
ENCODING 20358
SWIDTH 960 0
DWIDTH 12 0
BBX 12 12 0 -2
BITMAP
0600
0600
fff0
36c0
36c0
3ac0
6f60
c630
0f00
3ac0
e670
0600
ENDCHAR
STARTCHAR U4F88
ENCODING 20360
SWIDTH 960 0
DWIDTH 12 0
BBX 12 12 0 -2
BITMAP
1b00
1be0
1a60
3d40
3180
7740
ddf0
3330
36a0
30c0
3380
3600
ENDCHAR
STARTCHAR U4F8B
ENCODING 20363
SWIDTH 960 0
DWIDTH 12 0
BBX 12 12 0 -2
BITMAP
3030
3fd0
34d0
6cd0
6f50
eb50
6d50
76d0
66d0
6c30
6830
7070
ENDCHAR
STARTCHAR U4F8D
ENCODING 20365
SWIDTH 960 0
DWIDTH 12 0
BBX 12 12 0 -2
BITMAP
1b00
1fe0
1b00
3300
3ff0
70c0
dff0
34c0
36c0
30c0
30c0
31c0
ENDCHAR
STARTCHAR U4F8F
ENCODING 20367
SWIDTH 960 0
DWIDTH 12 0
BBX 12 12 0 -2
BITMAP
3180
3580
37f0
6d80
6980
eff8
6180
63c0
66a0
6db8
6180
6180
ENDCHAR
STARTCHAR U4F91
ENCODING 20369
SWIDTH 960 0
DWIDTH 12 0
BBX 12 12 0 -2
BITMAP
1b00
1b00
1ff0
3300
37e0
7660
d7e0
3a60
37e0
3660
3660
36e0
ENDCHAR
STARTCHAR U4F96
ENCODING 20374
SWIDTH 960 0
DWIDTH 12 0
BBX 12 12 0 -2
BITMAP
0600
0d00
39c0
efb0
0000
7fe0
6d60
6d60
7fe0
6d60
6d60
6d60
ENDCHAR
STARTCHAR U4F98
ENCODING 20376
SWIDTH 960 0
DWIDTH 12 0
BBX 12 12 0 -2
BITMAP
3300
3ff0
3830
68d0
6380
ef00
6300
63f0
6f00
6300
6330
61f0
ENDCHAR
STARTCHAR U4F9B
ENCODING 20379
SWIDTH 960 0
DWIDTH 12 0
BBX 12 12 0 -2
BITMAP
1b60
1b60
1b60
37f0
3360
7360
d360
3ff8
3000
3360
3630
3430
ENDCHAR
STARTCHAR U4F9D
ENCODING 20381
SWIDTH 960 0
DWIDTH 12 0
BBX 12 12 0 -2
BITMAP
1980
1980
1ff0
3180
3330
76a0
d6c0
3a80
36c0
36c0
37a0
3630
ENDCHAR
STARTCHAR U4FA0
ENCODING 20384
SWIDTH 960 0
DWIDTH 12 0
BBX 12 12 0 -2
BITMAP
3300
3300
3fe0
6b60
6d40
ed00
7ff0
6300
6380
66c0
6c60
7830
ENDCHAR
STARTCHAR U4FA1
ENCODING 20385
SWIDTH 960 0
DWIDTH 12 0
BBX 12 12 0 -2
BITMAP
1800
1ff0
1b40
3340
37f0
7550
d550
3550
3550
3550
37f0
3400
ENDCHAR
STARTCHAR U4FAB
ENCODING 20395
SWIDTH 960 0
DWIDTH 12 0
BBX 12 12 0 -2
BITMAP
3180
3180
37f0
6c00
6c00
e7e0
6600
6ff0
66c0
6f40
63c0
6e60
ENDCHAR
STARTCHAR U4FAD
ENCODING 20397
SWIDTH 960 0
DWIDTH 12 0
BBX 12 12 0 -2
BITMAP
3000
37f0
3430
6ff0
6cc0
ecc0
6da0
6ce0
6830
6b18
7180
60c0
ENDCHAR
STARTCHAR U4FAE
ENCODING 20398
SWIDTH 960 0
DWIDTH 12 0
BBX 12 12 0 -2
BITMAP
3400
37f0
3400
6be0
6aa0
e6a0
6ff0
6da0
6da0
6ff0
6860
61c0
ENDCHAR
STARTCHAR U4FAF
ENCODING 20399
SWIDTH 960 0
DWIDTH 12 0
BBX 12 12 0 -2
BITMAP
1800
1be0
1860
37f0
3600
77f0
d580
3980
37f0
3340
3660
3c30
ENDCHAR
STARTCHAR U4FB5
ENCODING 20405
SWIDTH 960 0
DWIDTH 12 0
BBX 12 12 0 -2
BITMAP
1be0
1860
1be0
3060
3ff8
7818
dbe8
3060
3740
3180
3340
3670
ENDCHAR
STARTCHAR U4FB6
ENCODING 20406
SWIDTH 960 0
DWIDTH 12 0
BBX 12 12 0 -2
BITMAP
1800
1be0
1a60
3660
37e0
7300
d600
37f0
3430
3430
3430
37f0
ENDCHAR
STARTCHAR U4FBF
ENCODING 20415
SWIDTH 960 0
DWIDTH 12 0
BBX 12 12 0 -2
BITMAP
1800
1ff0
1980
37f0
35b0
77f0
d5b0
37f0
3680
3380
36c0
3c70
ENDCHAR
STARTCHAR U4FC2
ENCODING 20418
SWIDTH 960 0
DWIDTH 12 0
BBX 12 12 0 -2
BITMAP
18e0
1f80
1b60
36c0
3380
7360
d7d0
3180
36a0
36b0
35b0
3180
ENDCHAR
STARTCHAR U4FC3
ENCODING 20419
SWIDTH 960 0
DWIDTH 12 0
BBX 12 12 0 -2
BITMAP
3000
37e0
3460
6c60
6fe0
e180
6d80
6df0
6d80
6e80
6b80
70f0
ENDCHAR
STARTCHAR U4FC4
ENCODING 20420
SWIDTH 960 0
DWIDTH 12 0
BBX 12 12 0 -2
BITMAP
3680
3da0
35b0
3580
7ff0
6d80
eea0
6da0
6cc0
75d0
6d70
6c30
ENDCHAR
STARTCHAR U4FCA
ENCODING 20426
SWIDTH 960 0
DWIDTH 12 0
BBX 12 12 0 -2
BITMAP
1980
1b60
1fd0
3340
3350
76f0
d500
33e0
3760
35c0
3760
3c30
ENDCHAR
STARTCHAR U4FCE
ENCODING 20430
SWIDTH 960 0
DWIDTH 12 0
BBX 12 12 0 -2
BITMAP
37e0
3660
3660
6a60
6fe0
d660
3660
37e0
6a60
6e60
c660
1ff0
ENDCHAR
STARTCHAR U4FD0
ENCODING 20432
SWIDTH 960 0
DWIDTH 12 0
BBX 12 12 0 -2
BITMAP
33b0
3ed0
36d0
66d0
7fd0
eed0
6f50
6ad0
76d0
6630
6630
6670
ENDCHAR
STARTCHAR U4FD1
ENCODING 20433
SWIDTH 960 0
DWIDTH 12 0
BBX 12 12 0 -2
BITMAP
1800
1fe0
1b40
3180
37f0
75b0
d7f0
35b0
37f0
35b0
35b0
35b0
ENDCHAR
STARTCHAR U4FD4
ENCODING 20436
SWIDTH 960 0
DWIDTH 12 0
BBX 12 12 0 -2
BITMAP
3000
37e0
3460
6fe0
6c60
efe0
6c60
6fe0
6680
6680
6db0
68f0
ENDCHAR
STARTCHAR U4FD7
ENCODING 20439
SWIDTH 960 0
DWIDTH 12 0
BBX 12 12 0 -2
BITMAP
1b40
1b60
1ab0
35b0
3340
7660
d430
3be8
3660
3660
3660
37e0
ENDCHAR
STARTCHAR U4FD8
ENCODING 20440
SWIDTH 960 0
DWIDTH 12 0
BBX 12 12 0 -2
BITMAP
30e0
3fc0
36c0
6b60
7330
efe0
61c0
6300
7ff0
6300
6300
6700
ENDCHAR
STARTCHAR U4FDA
ENCODING 20442
SWIDTH 960 0
DWIDTH 12 0
BBX 12 12 0 -2
BITMAP
1800
1fe0
1d60
37e0
3560
7560
d7e0
3300
37e0
3300
3300
3ff0
ENDCHAR
STARTCHAR U4FDB
ENCODING 20443
SWIDTH 960 0
DWIDTH 12 0
BBX 12 12 0 -2
BITMAP
3600
37c0
34c0
6180
6fe0
eb60
6b60
6fe0
6680
66b0
6db0
68f0
ENDCHAR
STARTCHAR U4FDD
ENCODING 20445
SWIDTH 960 0
DWIDTH 12 0
BBX 12 12 0 -2
BITMAP
3000
37e0
3460
6c60
6fe0
e300
7ff0
6780
6d40
6b60
7330
6300
ENDCHAR
STARTCHAR U4FDF
ENCODING 20447
SWIDTH 960 0
DWIDTH 12 0
BBX 12 12 0 -2
BITMAP
3600
3680
34c0
6fa0
6c00
efe0
6b00
7300
7ff0
6680
6cc0
7870
ENDCHAR
STARTCHAR U4FE1
ENCODING 20449
SWIDTH 960 0
DWIDTH 12 0
BBX 12 12 0 -2
BITMAP
1bc0
1800
1ff0
3000
37e0
7000
d7e0
3000
37e0
3660
3660
37e0
ENDCHAR
STARTCHAR U4FE3
ENCODING 20451
SWIDTH 960 0
DWIDTH 12 0
BBX 12 12 0 -2
BITMAP
3000
37e0
3460
6c60
6fe0
e000
6fe0
6300
6ff0
6380
66c0
6c70
ENDCHAR
STARTCHAR U4FE4
ENCODING 20452
SWIDTH 960 0
DWIDTH 12 0
BBX 12 12 0 -2
BITMAP
34c0
3680
3fe0
3360
6fe0
6b00
eff0
6730
6d30
6b30
7360
6300
ENDCHAR
STARTCHAR U4FE5
ENCODING 20453
SWIDTH 960 0
DWIDTH 12 0
BBX 12 12 0 -2
BITMAP
3180
3ff8
3180
6ff0
6db0
eff0
6db0
6ff0
6180
6ff8
6180
6180
ENDCHAR
STARTCHAR U4FEE
ENCODING 20462
SWIDTH 960 0
DWIDTH 12 0
BBX 12 12 0 -2
BITMAP
3600
37f0
3660
6b40
69c0
ef60
69b8
6b40
69b0
6b60
61c0
6f00
ENDCHAR
STARTCHAR U4FEF
ENCODING 20463
SWIDTH 960 0
DWIDTH 12 0
BBX 12 12 0 -2
BITMAP
3300
3ff0
3b60
6b60
6bf0
ee60
6b60
6aa0
6aa0
7660
7660
66e0
ENDCHAR
STARTCHAR U4FF3
ENCODING 20467
SWIDTH 960 0
DWIDTH 12 0
BBX 12 12 0 -2
BITMAP
3680
3680
3ef0
6680
6680
eef0
6680
6680
7ef0
6d80
6d80
6980
ENDCHAR
STARTCHAR U4FF5
ENCODING 20469
SWIDTH 960 0
DWIDTH 12 0
BBX 12 12 0 -2
BITMAP
3180
37f0
3180
6ff0
6180
eff8
6300
66b0
6ea0
6ac0
67a0
6e30
ENDCHAR
STARTCHAR U4FF6
ENCODING 20470
SWIDTH 960 0
DWIDTH 12 0
BBX 12 12 0 -2
BITMAP
3400
35f0
3730
6cd0
7fd0
ecd0
6ed0
6d60
6d60
74e0
6db0
6d30
ENDCHAR
STARTCHAR U4FF8
ENCODING 20472
SWIDTH 960 0
DWIDTH 12 0
BBX 12 12 0 -2
BITMAP
3180
37f0
3180
67e0
6340
eff8
66a0
6fd8
6180
6ff0
6180
6180
ENDCHAR
STARTCHAR U4FFA
ENCODING 20474
SWIDTH 960 0
DWIDTH 12 0
BBX 12 12 0 -2
BITMAP
3300
3300
3ff0
6680
ed60
6fd0
7540
6fc0
6d40
6fc0
6330
61f0
ENDCHAR
STARTCHAR U4FFE
ENCODING 20478
SWIDTH 960 0
DWIDTH 12 0
BBX 12 12 0 -2
BITMAP
3300
3600
3fe0
6b60
6fe0
eb60
6fe0
6d80
7ff0
6180
6180
6180
ENDCHAR
STARTCHAR U5005
ENCODING 20485
SWIDTH 960 0
DWIDTH 12 0
BBX 12 12 0 -2
BITMAP
3300
3300
3ff0
6cc0
6cc0
eaa0
6b30
6300
7ff0
6300
6300
6300
ENDCHAR
STARTCHAR U5006
ENCODING 20486
SWIDTH 960 0
DWIDTH 12 0
BBX 12 12 0 -2
BITMAP
3000
3ff8
3180
6ff8
6998
eee8
6aa8
6aa8
6dd8
6998
6998
69b8
ENDCHAR
STARTCHAR U5009
ENCODING 20489
SWIDTH 960 0
DWIDTH 12 0
BBX 12 12 0 -2
BITMAP
0600
0d00
39c0
fff0
30c0
3fc0
30c0
3fc0
3000
3fe0
6860
dfe0
ENDCHAR
STARTCHAR U500B
ENCODING 20491
SWIDTH 960 0
DWIDTH 12 0
BBX 12 12 0 -2
BITMAP
3000
3ff0
3b30
6b30
6ff0
eb30
6bd0
6ad0
6ad0
6bd0
6830
6ff0
ENDCHAR
STARTCHAR U500D
ENCODING 20493
SWIDTH 960 0
DWIDTH 12 0
BBX 12 12 0 -2
BITMAP
1980
1980
1ff0
3660
3340
7ff0
d000
37e0
3660
3660
3660
37e0
ENDCHAR
STARTCHAR U500F
ENCODING 20495
SWIDTH 960 0
DWIDTH 12 0
BBX 12 12 0 -2
BITMAP
3600
37f0
3660
6dc0
6b40
ee70
69c0
69a0
6ff0
6980
6340
6e70
ENDCHAR
STARTCHAR U5011
ENCODING 20497
SWIDTH 960 0
DWIDTH 12 0
BBX 12 12 0 -2
BITMAP
1800
1f70
1d50
3770
3550
7770
d430
3430
3430
3430
3430
3470
ENDCHAR
STARTCHAR U5012
ENCODING 20498
SWIDTH 960 0
DWIDTH 12 0
BBX 12 12 0 -2
BITMAP
3030
3fb0
36d0
6d50
6ed0
e6d0
6fd0
66d0
66d0
67b0
6c30
6070
ENDCHAR
STARTCHAR U5014
ENCODING 20500
SWIDTH 960 0
DWIDTH 12 0
BBX 12 12 0 -2
BITMAP
3000
37f0
3430
6ff0
6d80
eea0
6ea0
6be0
6980
75b0
6db0
6ff0
ENDCHAR
STARTCHAR U5016
ENCODING 20502
SWIDTH 960 0
DWIDTH 12 0
BBX 12 12 0 -2
BITMAP
1980
1980
1fe0
3180
3ff0
7660
d7f0
3180
37e0
3180
3180
3180
ENDCHAR
STARTCHAR U5019
ENCODING 20505
SWIDTH 960 0
DWIDTH 12 0
BBX 12 12 0 -2
BITMAP
3000
37e0
3060
6ff0
6a00
ebe0
6d80
6980
6ff0
6b40
6660
6c30
ENDCHAR
STARTCHAR U501A
ENCODING 20506
SWIDTH 960 0
DWIDTH 12 0
BBX 12 12 0 -2
BITMAP
3300
3ff0
3380
66c0
6c60
fff0
6060
6fa0
6da0
6fa0
6060
60e0
ENDCHAR
STARTCHAR U501F
ENCODING 20511
SWIDTH 960 0
DWIDTH 12 0
BBX 12 12 0 -2
BITMAP
1ac0
1ac0
1fe0
36c0
3ff0
7000
d7e0
3460
37e0
3460
3460
37e0
ENDCHAR
STARTCHAR U5021
ENCODING 20513
SWIDTH 960 0
DWIDTH 12 0
BBX 12 12 0 -2
BITMAP
1be0
1a60
1be0
3660
37e0
7000
d7f0
3430
37f0
3430
3430
37f0
ENDCHAR
STARTCHAR U5023
ENCODING 20515
SWIDTH 960 0
DWIDTH 12 0
BBX 12 12 0 -2
BITMAP
3580
3580
35f8
7fb0
6db0
ef50
6d60
6d60
6b60
6b50
7350
6e98
ENDCHAR
STARTCHAR U5024
ENCODING 20516
SWIDTH 960 0
DWIDTH 12 0
BBX 12 12 0 -2
BITMAP
3180
37f0
3180
67e0
6a60
ebe0
6a60
6be0
6a60
6be0
6800
6ff0
ENDCHAR
STARTCHAR U5025
ENCODING 20517
SWIDTH 960 0
DWIDTH 12 0
BBX 12 12 0 -2
BITMAP
3300
3300
3ff0
6ab0
6680
edf0
6800
6fe0
6300
6300
6300
7ff0
ENDCHAR
STARTCHAR U5026
ENCODING 20518
SWIDTH 960 0
DWIDTH 12 0
BBX 12 12 0 -2
BITMAP
3360
3540
3fe0
6300
6ff0
e680
6cc0
6fa0
71b0
6f80
6c60
67e0
ENDCHAR
STARTCHAR U5028
ENCODING 20520
SWIDTH 960 0
DWIDTH 12 0
BBX 12 12 0 -2
BITMAP
3000
37f0
3430
6ff0
6d80
eff8
6d80
6d80
6bf0
6a30
7630
67f0
ENDCHAR
STARTCHAR U5029
ENCODING 20521
SWIDTH 960 0
DWIDTH 12 0
BBX 12 12 0 -2
BITMAP
3300
3fe0
3300
6fc0
6300
fff0
6b60
6b60
6fe0
6860
6860
68e0
ENDCHAR
STARTCHAR U502A
ENCODING 20522
SWIDTH 960 0
DWIDTH 12 0
BBX 12 12 0 -2
BITMAP
3300
36e0
3460
3760
6c60
6c60
efe0
6680
6680
66b0
6db0
68f0
ENDCHAR
STARTCHAR U502B
ENCODING 20523
SWIDTH 960 0
DWIDTH 12 0
BBX 12 12 0 -2
BITMAP
3300
3300
3680
6cc0
6fe0
f030
6fe0
6aa0
6fe0
6aa0
6aa0
68e0
ENDCHAR
STARTCHAR U502C
ENCODING 20524
SWIDTH 960 0
DWIDTH 12 0
BBX 12 12 0 -2
BITMAP
3300
33f0
3300
6fe0
6860
efe0
6860
6fe0
6300
7ff0
6300
6300
ENDCHAR
STARTCHAR U502D
ENCODING 20525
SWIDTH 960 0
DWIDTH 12 0
BBX 12 12 0 -2
BITMAP
30e0
3780
3300
6ff0
6780
ed40
6b70
6600
6ff0
6ec0
6380
6ee0
ENDCHAR
STARTCHAR U5036
ENCODING 20534
SWIDTH 960 0
DWIDTH 12 0
BBX 12 12 0 -2
BITMAP
1800
1fe0
1c60
3460
37e0
7460
d7e0
3460
3ff0
3340
3660
3c30
ENDCHAR
STARTCHAR U5039
ENCODING 20537
SWIDTH 960 0
DWIDTH 12 0
BBX 12 12 0 -2
BITMAP
1980
1b40
1a60
35d0
3998
77f0
d5b0
37f0
3380
3340
3660
3430
ENDCHAR
STARTCHAR U5043
ENCODING 20547
SWIDTH 960 0
DWIDTH 12 0
BBX 12 12 0 -2
BITMAP
3000
3ff0
3be0
6a60
6be0
ea60
6ff0
6b60
6b40
69c0
6b60
6ff0
ENDCHAR
STARTCHAR U5047
ENCODING 20551
SWIDTH 960 0
DWIDTH 12 0
BBX 12 12 0 -2
BITMAP
3000
3f70
3b30
6b30
6f70
e800
6f70
69b0
68d0
6f60
68d0
6b98
ENDCHAR
STARTCHAR U5048
ENCODING 20552
SWIDTH 960 0
DWIDTH 12 0
BBX 12 12 0 -2
BITMAP
3000
37e0
3460
6fe0
6c60
efe0
6600
6ff0
6db0
7550
6fd0
60e0
ENDCHAR
STARTCHAR U5049
ENCODING 20553
SWIDTH 960 0
DWIDTH 12 0
BBX 12 12 0 -2
BITMAP
1b00
1be0
1b60
3ff8
3660
77e0
d180
37e0
3580
3ff0
3180
3180
ENDCHAR
STARTCHAR U504F
ENCODING 20559
SWIDTH 960 0
DWIDTH 12 0
BBX 12 12 0 -2
BITMAP
37e0
3000
3fe0
6860
6fe0
e800
6ff0
6d50
6ff0
7550
7550
6c70
ENDCHAR
STARTCHAR U5050
ENCODING 20560
SWIDTH 960 0
DWIDTH 12 0
BBX 12 12 0 -2
BITMAP
3180
37f0
3660
6340
6ff0
ecc0
6da0
6f40
6db0
6b60
69c0
7700
ENDCHAR
STARTCHAR U5055
ENCODING 20565
SWIDTH 960 0
DWIDTH 12 0
BBX 12 12 0 -2
BITMAP
3580
3580
37b0
6dc0
6fb0
fcf0
6000
6fe0
6c60
6fe0
6c60
6fe0
ENDCHAR
STARTCHAR U5056
ENCODING 20566
SWIDTH 960 0
DWIDTH 12 0
BBX 12 12 0 -2
BITMAP
3300
3300
37e0
6340
6ff0
e380
66c0
6fe0
7a60
67e0
6660
67e0
ENDCHAR
STARTCHAR U505A
ENCODING 20570
SWIDTH 960 0
DWIDTH 12 0
BBX 12 12 0 -2
BITMAP
34c0
34c0
34c0
7ff8
6da0
eda0
6ea0
6aa0
6ac0
6ec0
6360
6630
ENDCHAR
STARTCHAR U505C
ENCODING 20572
SWIDTH 960 0
DWIDTH 12 0
BBX 12 12 0 -2
BITMAP
1980
1ff0
1800
37e0
3660
7ff8
d818
37e0
3180
3180
3180
3380
ENDCHAR
STARTCHAR U5065
ENCODING 20581
SWIDTH 960 0
DWIDTH 12 0
BBX 12 12 0 -2
BITMAP
30c0
33f0
3ed0
67f8
6cd0
eff0
66c0
6bf0
6ec0
67f0
6d40
69f8
ENDCHAR
STARTCHAR U506C
ENCODING 20588
SWIDTH 960 0
DWIDTH 12 0
BBX 12 12 0 -2
BITMAP
3600
3600
37f0
6d50
6b50
f5d0
6330
66e0
6b00
6ab0
7668
63e0
ENDCHAR
STARTCHAR U5072
ENCODING 20594
SWIDTH 960 0
DWIDTH 12 0
BBX 12 12 0 -2
BITMAP
3000
3fe0
3b60
6fe0
6b60
eb60
6fe0
6300
6aa0
6ab0
76d0
63c0
ENDCHAR
STARTCHAR U5074
ENCODING 20596
SWIDTH 960 0
DWIDTH 12 0
BBX 12 12 0 -2
BITMAP
3030
3f50
3b50
6b50
6f50
6b50
ef50
6b50
6f50
6630
6d30
6870
ENDCHAR
STARTCHAR U5075
ENCODING 20597
SWIDTH 960 0
DWIDTH 12 0
BBX 12 12 0 -2
BITMAP
1980
19f0
1980
37e0
3460
77e0
d460
37e0
3460
37e0
3660
3c30
ENDCHAR
STARTCHAR U5076
ENCODING 20598
SWIDTH 960 0
DWIDTH 12 0
BBX 12 12 0 -2
BITMAP
3000
37e0
3560
6fe0
6d60
efe0
6300
6ff0
6b50
6bd0
6ed0
6870
ENDCHAR
STARTCHAR U5078
ENCODING 20600
SWIDTH 960 0
DWIDTH 12 0
BBX 12 12 0 -2
BITMAP
3300
3380
36c0
6fa0
6830
fed0
6ad0
6ea0
6aa0
6ea0
6ad0
6ad0
ENDCHAR
STARTCHAR U507D
ENCODING 20605
SWIDTH 960 0
DWIDTH 12 0
BBX 12 12 0 -2
BITMAP
3580
3680
3300
6fc0
66c0
e7e0
6c60
6ff0
7030
6d50
6b30
60e0
ENDCHAR
STARTCHAR U5080
ENCODING 20608
SWIDTH 960 0
DWIDTH 12 0
BBX 12 12 0 -2
BITMAP
3300
3600
3fe0
6b60
6fe0
eb60
6fe0
6740
6740
6db0
6d30
69f0
ENDCHAR
STARTCHAR U5085
ENCODING 20613
SWIDTH 960 0
DWIDTH 12 0
BBX 12 12 0 -2
BITMAP
3340
3ff0
3300
6fe0
6b60
efe0
6b60
60c0
7ff0
6cc0
66c0
61c0
ENDCHAR
STARTCHAR U508D
ENCODING 20621
SWIDTH 960 0
DWIDTH 12 0
BBX 12 12 0 -2
BITMAP
3180
3ff0
36c0
66c0
6ff0
eb30
6ff0
6300
63e0
6660
6c60
79c0
ENDCHAR
STARTCHAR U5091
ENCODING 20625
SWIDTH 960 0
DWIDTH 12 0
BBX 12 12 0 -2
BITMAP
3460
3660
3af0
6ea0
67f0
ec60
7b60
6ff0
6780
6d40
6b70
6300
ENDCHAR
STARTCHAR U5098
ENCODING 20632
SWIDTH 960 0
DWIDTH 12 0
BBX 12 12 0 -2
BITMAP
0600
0d00
39c0
e670
36c0
6aa0
36c0
6aa0
fff0
0600
0600
0600
ENDCHAR
STARTCHAR U5099
ENCODING 20633
SWIDTH 960 0
DWIDTH 12 0
BBX 12 12 0 -2
BITMAP
36c0
37f0
36c0
6ff0
6800
ebf0
6ab0
6bf0
6ab0
6bf0
76b0
66b0
ENDCHAR
STARTCHAR U509A
ENCODING 20634
SWIDTH 960 0
DWIDTH 12 0
BBX 12 12 0 -2
BITMAP
34c0
34c0
3ff0
6aa0
7360
eaa0
6aa0
6cc0
6ec0
6ba0
7360
6630
ENDCHAR
STARTCHAR U50AC
ENCODING 20652
SWIDTH 960 0
DWIDTH 12 0
BBX 12 12 0 -2
BITMAP
1980
1db0
1ff0
36c0
3580
77f0
dd80
37e0
3580
37e0
3580
37f0
ENDCHAR
STARTCHAR U50AD
ENCODING 20653
SWIDTH 960 0
DWIDTH 12 0
BBX 12 12 0 -2
BITMAP
3300
3ff0
3980
6be0
69a0
eff0
eab0
6bf0
6ab0
6bf0
6ab0
76b0
ENDCHAR
STARTCHAR U50B2
ENCODING 20658
SWIDTH 960 0
DWIDTH 12 0
BBX 12 12 0 -2
BITMAP
34c0
34c0
3f78
6db0
7fb0
ed50
7f60
6c60
6f60
6d50
6bb0
7718
ENDCHAR
STARTCHAR U50B3
ENCODING 20659
SWIDTH 960 0
DWIDTH 12 0
BBX 12 12 0 -2
BITMAP
3340
3ff0
3560
6fe0
6d60
efe0
6360
6fb0
60c0
7ff0
6cc0
61c0
ENDCHAR
STARTCHAR U50B4
ENCODING 20660
SWIDTH 960 0
DWIDTH 12 0
BBX 12 12 0 -2
BITMAP
3000
3ff0
6be0
6b60
ebe0
6800
6bf0
6ad0
6ad0
6bf0
6800
6ff0
ENDCHAR
STARTCHAR U50B5
ENCODING 20661
SWIDTH 960 0
DWIDTH 12 0
BBX 12 12 0 -2
BITMAP
1980
1fe0
3180
37e0
7180
dff0
3660
37e0
3660
37e0
3760
3c30
ENDCHAR
STARTCHAR U50B7
ENCODING 20663
SWIDTH 960 0
DWIDTH 12 0
BBX 12 12 0 -2
BITMAP
1a00
1bf0
3660
3be0
7660
dff8
3600
37f0
3b50
36b0
3330
36e0
ENDCHAR
STARTCHAR U50BE
ENCODING 20670
SWIDTH 960 0
DWIDTH 12 0
BBX 12 12 0 -2
BITMAP
3000
37f0
3180
6be0
6b60
ede0
6b60
6be0
6b60
6fe0
63a0
6e30
ENDCHAR
STARTCHAR U50C2
ENCODING 20674
SWIDTH 960 0
DWIDTH 12 0
BBX 12 12 0 -2
BITMAP
3300
37e0
3560
7ff0
6d60
efe0
6d60
6ff0
66c0
6ec0
6380
6ee0
ENDCHAR
STARTCHAR U50C5
ENCODING 20677
SWIDTH 960 0
DWIDTH 12 0
BBX 12 12 0 -2
BITMAP
3340
37f0
3340
6ff0
6db0
eff0
6180
6ff0
6180
67e0
6180
6ff0
ENDCHAR
STARTCHAR U50C9
ENCODING 20681
SWIDTH 960 0
DWIDTH 12 0
BBX 12 12 0 -2
BITMAP
0600
0d00
39c0
efb0
0000
7de0
6d60
7de0
30c0
38e0
6db0
c330
ENDCHAR
STARTCHAR U50CA
ENCODING 20682
SWIDTH 960 0
DWIDTH 12 0
BBX 12 12 0 -2
BITMAP
3ff0
3680
3fe0
6aa0
6fe0
e300
7ff0
6fe0
6cd0
77c0
6c30
67f0
ENDCHAR
STARTCHAR U50CD
ENCODING 20685
SWIDTH 960 0
DWIDTH 12 0
BBX 12 12 0 -2
BITMAP
37a0
3e60
36f8
6fa8
6aa8
efa8
6aa8
6fa8
6668
6f68
67d8
6cd8
ENDCHAR
STARTCHAR U50CF
ENCODING 20687
SWIDTH 960 0
DWIDTH 12 0
BBX 12 12 0 -2
BITMAP
33c0
3680
3ff0
6db0
6ff0
e3b0
6ea0
6740
6de0
6750
6cd8
6380
ENDCHAR
STARTCHAR U50D1
ENCODING 20689
SWIDTH 960 0
DWIDTH 12 0
BBX 12 12 0 -2
BITMAP
1be0
1980
37f0
3340
3670
73c0
d340
37f0
35d0
3550
35d0
3470
ENDCHAR
STARTCHAR U50D5
ENCODING 20693
SWIDTH 960 0
DWIDTH 12 0
BBX 12 12 0 -2
BITMAP
3680
3aa0
3ff0
7680
6fe0
e300
6fe0
6300
6ff0
6680
6cc0
7870
ENDCHAR
STARTCHAR U50D6
ENCODING 20694
SWIDTH 960 0
DWIDTH 12 0
BBX 12 12 0 -2
BITMAP
3300
3ff0
3300
6fe0
6860
efe0
6cc0
7ff0
6000
6fe0
6860
6fe0
ENDCHAR
STARTCHAR U50DA
ENCODING 20698
SWIDTH 960 0
DWIDTH 12 0
BBX 12 12 0 -2
BITMAP
3300
3ff0
3300
6aa0
6cc0
efe0
74d0
6fc0
6340
6d60
6b60
6700
ENDCHAR
STARTCHAR U50DE
ENCODING 20702
SWIDTH 960 0
DWIDTH 12 0
BBX 12 12 0 -2
BITMAP
30e0
3fa0
35b0
6fc0
6cc0
efe0
6c60
6ff0
69b0
6ad0
7530
6ce0
ENDCHAR
STARTCHAR U50E3
ENCODING 20707
SWIDTH 960 0
DWIDTH 12 0
BBX 12 12 0 -2
BITMAP
36c0
3ff0
36c0
6ff8
66c0
eda0
69b0
6fe0
6c60
6fe0
6c60
6fe0
ENDCHAR
STARTCHAR U50E5
ENCODING 20709
SWIDTH 960 0
DWIDTH 12 0
BBX 12 12 0 -2
BITMAP
3300
37e0
3300
7ff0
6cc0
eee0
6cc0
6ee0
7ff0
6680
6db0
68f0
ENDCHAR
STARTCHAR U50E7
ENCODING 20711
SWIDTH 960 0
DWIDTH 12 0
BBX 12 12 0 -2
BITMAP
1a60
1b40
37f0
35b0
77f0
d5b0
37f0
37e0
3660
37e0
3660
37e0
ENDCHAR
STARTCHAR U50ED
ENCODING 20717
SWIDTH 960 0
DWIDTH 12 0
BBX 12 12 0 -2
BITMAP
3660
3ff0
3aa0
6ff8
6ee0
eaa8
7778
6fe0
6c60
6fe0
6c60
6fe0
ENDCHAR
STARTCHAR U50EE
ENCODING 20718
SWIDTH 960 0
DWIDTH 12 0
BBX 12 12 0 -2
BITMAP
3180
37f0
3660
6ff8
6db0
eff0
6db0
6ff0
6180
6ff0
6180
6ff8
ENDCHAR
STARTCHAR U50F5
ENCODING 20725
SWIDTH 960 0
DWIDTH 12 0
BBX 12 12 0 -2
BITMAP
3000
3ff0
3560
6fe0
6d60
eff0
6000
6fe0
6d60
6fe0
6d60
6ff0
ENDCHAR
STARTCHAR U50F9
ENCODING 20729
SWIDTH 960 0
DWIDTH 12 0
BBX 12 12 0 -2
BITMAP
3000
3ff0
3680
6ff0
6ab0
eff0
6c60
6fe0
6fe0
6c60
6fe0
6c70
ENDCHAR
STARTCHAR U50FB
ENCODING 20731
SWIDTH 960 0
DWIDTH 12 0
BBX 12 12 0 -2
BITMAP
30c0
3ec0
3bf0
6aa0
6ea0
ebf0
6ec0
7ac0
6bf0
6ac0
6ec0
60c0
ENDCHAR
STARTCHAR U5100
ENCODING 20736
SWIDTH 960 0
DWIDTH 12 0
BBX 12 12 0 -2
BITMAP
36c0
3ff0
3300
6fe0
6300
fff0
6ea0
6ff0
66a0
6ed0
66b0
6e30
ENDCHAR
STARTCHAR U5101
ENCODING 20737
SWIDTH 960 0
DWIDTH 12 0
BBX 12 12 0 -2
BITMAP
36c0
3680
37f0
6d80
77e0
ed80
6ff0
6000
6ef0
6ab0
6bb0
6870
ENDCHAR
STARTCHAR U5102
ENCODING 20738
SWIDTH 960 0
DWIDTH 12 0
BBX 12 12 0 -2
BITMAP
3340
37f0
3550
6ff0
6d50
eff0
6800
6ff0
6ab0
6ae0
77a0
6e30
ENDCHAR
STARTCHAR U5104
ENCODING 20740
SWIDTH 960 0
DWIDTH 12 0
BBX 12 12 0 -2
BITMAP
3180
37e0
36c0
3ff0
6c60
6fe0
ec60
6fe0
6b00
6aa0
76d0
63c0
ENDCHAR
STARTCHAR U5109
ENCODING 20745
SWIDTH 960 0
DWIDTH 12 0
BBX 12 12 0 -2
BITMAP
3300
3380
36c0
6fe0
6830
eee8
6aa0
6ee0
6cc0
6ee0
69b0
7300
ENDCHAR
STARTCHAR U5112
ENCODING 20754
SWIDTH 960 0
DWIDTH 12 0
BBX 12 12 0 -2
BITMAP
37e0
3300
3ff0
6b30
6bd0
e000
6ff0
6300
6ff0
6d50
6d50
6d70
ENDCHAR
STARTCHAR U5114
ENCODING 20756
SWIDTH 960 0
DWIDTH 12 0
BBX 12 12 0 -2
BITMAP
3180
37f0
3180
6ff0
6fd0
e300
6ff0
6060
7ff0
6b60
6ea0
60e0
ENDCHAR
STARTCHAR U5115
ENCODING 20757
SWIDTH 960 0
DWIDTH 12 0
BBX 12 12 0 -2
BITMAP
3180
37f0
3350
6ef0
6ea0
ead0
7660
67e0
6660
67e0
6c60
6860
ENDCHAR
STARTCHAR U5116
ENCODING 20758
SWIDTH 960 0
DWIDTH 12 0
BBX 12 12 0 -2
BITMAP
3f40
3ac0
3f70
6b80
6f00
eaf0
6f80
6000
6fe0
6aa0
6aa0
7ff0
ENDCHAR
STARTCHAR U5118
ENCODING 20760
SWIDTH 960 0
DWIDTH 12 0
BBX 12 12 0 -2
BITMAP
3300
37e0
3360
7ff0
6fe0
e300
7ff0
6b50
6fe0
6aa0
6aa0
7ff0
ENDCHAR
STARTCHAR U511A
ENCODING 20762
SWIDTH 960 0
DWIDTH 12 0
BBX 12 12 0 -2
BITMAP
36c0
3ff0
36c0
6fe0
6aa0
efe0
6000
7ff0
77d0
6ec0
6380
6e00
ENDCHAR
STARTCHAR U511F
ENCODING 20767
SWIDTH 960 0
DWIDTH 12 0
BBX 12 12 0 -2
BITMAP
3560
36c0
3ff0
6bd0
6ad0
efe0
6c60
6fe0
6c60
6fe0
6660
6c30
ENDCHAR
STARTCHAR U5121
ENCODING 20769
SWIDTH 960 0
DWIDTH 12 0
BBX 12 12 0 -2
BITMAP
3000
37e0
3560
6fe0
6d60
efe0
6000
7ff0
7550
7ff0
7550
7ff0
ENDCHAR
STARTCHAR U512A
ENCODING 20778
SWIDTH 960 0
DWIDTH 12 0
BBX 12 12 0 -2
BITMAP
3ff0
3300
37c0
66c0
6ff0
eb50
6da0
6bd0
6ec0
6b80
6740
6c70
ENDCHAR
STARTCHAR U5132
ENCODING 20786
SWIDTH 960 0
DWIDTH 12 0
BBX 12 12 0 -2
BITMAP
36c0
31f0
3f40
60c0
6ff0
e180
6ef0
61b0
6ff0
6ab0
6ab0
6ef0
ENDCHAR
STARTCHAR U5137
ENCODING 20791
SWIDTH 960 0
DWIDTH 12 0
BBX 12 12 0 -2
BITMAP
3ef0
3000
3ef0
7550
6ff0
efe0
6aa0
6fe0
6d50
6ee0
7550
6ef0
ENDCHAR
STARTCHAR U513A
ENCODING 20794
SWIDTH 960 0
DWIDTH 12 0
BBX 12 12 0 -2
BITMAP
3550
3fa0
35f8
6fa0
6aa0
eff0
66a0
6fa0
66f0
7fa0
6ba0
71f8
ENDCHAR
STARTCHAR U513B
ENCODING 20795
SWIDTH 960 0
DWIDTH 12 0
BBX 12 12 0 -2
BITMAP
3560
3ff0
3ad0
67c0
6fe0
eee0
6da0
6fe0
6180
6ff0
6d60
6ab0
ENDCHAR
STARTCHAR U513C
ENCODING 20796
SWIDTH 960 0
DWIDTH 12 0
BBX 12 12 0 -2
BITMAP
3770
3550
3ff0
6b40
6b40
eff8
6ad0
6bd0
6aa0
6fa0
6b50
7398
ENDCHAR
STARTCHAR U513F
ENCODING 20799
SWIDTH 960 0
DWIDTH 12 0
BBX 12 12 0 -2
BITMAP
1980
1980
1980
1980
1980
1980
1980
1980
3180
31b0
61b0
c0f0
ENDCHAR
STARTCHAR U5140
ENCODING 20800
SWIDTH 960 0
DWIDTH 12 0
BBX 12 12 0 -2
BITMAP
0000
fff0
1980
1980
1980
1980
1980
1980
3180
31b0
61b0
c0f0
ENDCHAR
STARTCHAR U5141
ENCODING 20801
SWIDTH 960 0
DWIDTH 12 0
BBX 12 12 0 -2
BITMAP
0c00
0c00
1b80
30e0
7fb0
0d00
0d00
0d00
1b00
1b30
3330
61f0
ENDCHAR
STARTCHAR U5143
ENCODING 20803
SWIDTH 960 0
DWIDTH 12 0
BBX 12 12 0 -2
BITMAP
0000
1fc0
0000
0000
7ff0
0d80
0d80
0d80
1980
19b0
31b0
60f0
ENDCHAR
STARTCHAR U5144
ENCODING 20804
SWIDTH 960 0
DWIDTH 12 0
BBX 12 12 0 -2
BITMAP
0000
3fc0
30c0
30c0
30c0
3fc0
0d00
0d00
0d00
1b30
3330
e1f0
ENDCHAR
STARTCHAR U5145
ENCODING 20805
SWIDTH 960 0
DWIDTH 12 0
BBX 12 12 0 -2
BITMAP
0c00
0c00
fff0
0d00
19c0
7f60
1b00
1b00
1b00
3330
6330
c1f0
ENDCHAR
STARTCHAR U5146
ENCODING 20806
SWIDTH 960 0
DWIDTH 12 0
BBX 12 12 0 -2
BITMAP
0d00
0d60
6d60
3540
3580
0d00
1d80
3560
eb00
1b30
3330
e1f0
ENDCHAR
STARTCHAR U5147
ENCODING 20807
SWIDTH 960 0
DWIDTH 12 0
BBX 12 12 0 -2
BITMAP
0300
6d60
6660
6760
6da0
6860
7fe0
0d00
0d00
1b30
3330
e1f0
ENDCHAR
STARTCHAR U5148
ENCODING 20808
SWIDTH 960 0
DWIDTH 12 0
BBX 12 12 0 -2
BITMAP
0600
3600
3600
3fc0
3600
6600
fff0
0d00
0d00
1b30
3330
e1f0
ENDCHAR
STARTCHAR U5149
ENCODING 20809
SWIDTH 960 0
DWIDTH 12 0
BBX 12 12 0 -2
BITMAP
0600
66c0
36c0
3680
0600
7ff0
0d00
0d00
1b00
1b30
3330
e1f0
ENDCHAR
STARTCHAR U514B
ENCODING 20811
SWIDTH 960 0
DWIDTH 12 0
BBX 12 12 0 -2
BITMAP
0600
0600
fff0
0600
3fc0
30c0
30c0
3fc0
0d00
0d30
1b30
f1f0
ENDCHAR
STARTCHAR U514C
ENCODING 20812
SWIDTH 960 0
DWIDTH 12 0
BBX 12 12 0 -2
BITMAP
0d80
1980
30c0
eff0
30c0
30c0
3fc0
0d00
0d00
1b30
3330
e1f0
ENDCHAR
STARTCHAR U514D
ENCODING 20813
SWIDTH 960 0
DWIDTH 12 0
BBX 12 12 0 -2
BITMAP
0c00
0f80
1b00
3600
ffe0
3660
3660
3fe0
0d00
1b30
3330
e1f0
ENDCHAR
STARTCHAR U514E
ENCODING 20814
SWIDTH 960 0
DWIDTH 12 0
BBX 12 12 0 -2
BITMAP
01e0
7f00
0600
7fe0
6660
6660
7fe0
0d00
0d80
1b50
3330
e1f0
ENDCHAR
STARTCHAR U5150
ENCODING 20816
SWIDTH 960 0
DWIDTH 12 0
BBX 12 12 0 -2
BITMAP
6fc0
6cc0
6cc0
6fc0
6cc0
6cc0
6fc0
6300
1b00
1b30
3330
e1f0
ENDCHAR
STARTCHAR U5152
ENCODING 20818
SWIDTH 960 0
DWIDTH 12 0
BBX 12 12 0 -2
BITMAP
0c00
3bc0
30c0
30c0
3dc0
30c0
30c0
3fc0
0d80
0db0
19b0
70f0
ENDCHAR
STARTCHAR U5154
ENCODING 20820
SWIDTH 960 0
DWIDTH 12 0
BBX 12 12 0 -2
BITMAP
0c00
0f80
1b00
3600
ffe0
6660
6660
7fe0
0d80
1b50
3330
e1f0
ENDCHAR
STARTCHAR U515A
ENCODING 20826
SWIDTH 960 0
DWIDTH 12 0
BBX 12 12 0 -2
BITMAP
36c0
1a80
fff0
c030
dfd0
30c0
30c0
3fc0
0d00
0d00
3b30
e1f0
ENDCHAR
STARTCHAR U515C
ENCODING 20828
SWIDTH 960 0
DWIDTH 12 0
BBX 12 12 0 -2
BITMAP
1a00
77e0
6d60
6f60
6d60
7de0
6f60
0000
0d00
1b30
3330
e1f0
ENDCHAR
STARTCHAR U5162
ENCODING 20834
SWIDTH 960 0
DWIDTH 12 0
BBX 12 12 0 -2
BITMAP
18c0
fff0
18c0
7de0
6d60
6d60
7de0
39c0
39c0
3b50
6d50
c670
ENDCHAR
STARTCHAR U5165
ENCODING 20837
SWIDTH 960 0
DWIDTH 12 0
BBX 12 12 0 -2
BITMAP
0000
1e00
0600
0600
0600
0600
0d00
0d00
1980
30c0
6060
c030
ENDCHAR
STARTCHAR U5168
ENCODING 20840
SWIDTH 960 0
DWIDTH 12 0
BBX 12 12 0 -2
BITMAP
0600
0600
0d00
1980
30c0
fff0
0600
0600
3fc0
0600
0600
fff0
ENDCHAR
STARTCHAR U5169
ENCODING 20841
SWIDTH 960 0
DWIDTH 12 0
BBX 12 12 0 -2
BITMAP
0000
fff0
0600
fff0
c630
dad0
dad0
dad0
d6b0
e730
c630
c670
ENDCHAR
STARTCHAR U516A
ENCODING 20842
SWIDTH 960 0
DWIDTH 12 0
BBX 12 12 0 -2
BITMAP
1e00
0d00
1980
3740
e070
7da0
75a0
6d40
7540
6da0
6da0
6da0
ENDCHAR
STARTCHAR U516B
ENCODING 20843
SWIDTH 960 0
DWIDTH 12 0
BBX 12 12 0 -2
BITMAP
0000
1f80
0180
0180
1980
1980
1980
18c0
30c0
3060
6060
c030
ENDCHAR
STARTCHAR U516C
ENCODING 20844
SWIDTH 960 0
DWIDTH 12 0
BBX 12 12 0 -2
BITMAP
1980
1980
1980
30c0
3660
6630
c600
0d80
0cc0
1bc0
7c60
0060
ENDCHAR
STARTCHAR U516D
ENCODING 20845
SWIDTH 960 0
DWIDTH 12 0
BBX 12 12 0 -2
BITMAP
0600
0600
0600
fff0
0000
1b00
1980
30c0
3060
6060
c060
0000
ENDCHAR
STARTCHAR U516E
ENCODING 20846
SWIDTH 960 0
DWIDTH 12 0
BBX 12 12 0 -2
BITMAP
1b00
1b00
3180
60c0
dfb0
0c00
0c00
1f80
1980
0180
0180
0700
ENDCHAR
STARTCHAR U5171
ENCODING 20849
SWIDTH 960 0
DWIDTH 12 0
BBX 12 12 0 -2
BITMAP
1980
1980
1980
7fe0
1980
1980
1980
fff0
0180
18c0
3060
e060
ENDCHAR
STARTCHAR U5175
ENCODING 20853
SWIDTH 960 0
DWIDTH 12 0
BBX 12 12 0 -2
BITMAP
0380
3e00
3000
3000
3fe0
3180
3180
3180
fff0
1b00
31c0
e060
ENDCHAR
STARTCHAR U5176
ENCODING 20854
SWIDTH 960 0
DWIDTH 12 0
BBX 12 12 0 -2
BITMAP
1980
1980
7fe0
1980
1f80
1980
1f80
1980
fff0
1980
30e0
e030
ENDCHAR
STARTCHAR U5177
ENCODING 20855
SWIDTH 960 0
DWIDTH 12 0
BBX 12 12 0 -2
BITMAP
3f80
3180
3f80
3180
3f80
3180
3f80
0000
fff0
1b00
31c0
e060
ENDCHAR
STARTCHAR U5178
ENCODING 20856
SWIDTH 960 0
DWIDTH 12 0
BBX 12 12 0 -2
BITMAP
0d00
0d00
7fe0
6d60
6d60
7fe0
6d60
6d60
fff0
1980
30e0
e030
ENDCHAR
STARTCHAR U517C
ENCODING 20860
SWIDTH 960 0
DWIDTH 12 0
BBX 12 12 0 -2
BITMAP
1980
fff0
0d00
7fe0
0d60
fff0
0d60
7fe0
1d80
3540
ed70
0d00
ENDCHAR
STARTCHAR U5180
ENCODING 20864
SWIDTH 960 0
DWIDTH 12 0
BBX 12 12 0 -2
BITMAP
1b60
fbc0
1b30
3ff0
f6c0
3fc0
36c0
7fe0
1980
fff8
38c0
e060
ENDCHAR
STARTCHAR U5182
ENCODING 20866
SWIDTH 960 0
DWIDTH 12 0
BBX 12 12 0 -2
BITMAP
0000
7ff0
6030
6030
6030
6030
6030
6030
6030
6030
6030
6070
ENDCHAR
STARTCHAR U5185
ENCODING 20869
SWIDTH 960 0
DWIDTH 12 0
BBX 12 12 0 -2
BITMAP
0600
0600
7ff0
6630
6630
6d30
69b0
70d0
6030
6030
6030
6070
ENDCHAR
STARTCHAR U5186
ENCODING 20870
SWIDTH 960 0
DWIDTH 12 0
BBX 12 12 0 -2
BITMAP
0000
7fe0
6660
6660
6660
7fe0
6060
6060
6060
6060
6060
60e0
ENDCHAR
STARTCHAR U5189
ENCODING 20873
SWIDTH 960 0
DWIDTH 12 0
BBX 12 12 0 -2
BITMAP
0600
0600
3fc0
36c0
36c0
3fc0
36c0
36c0
fff0
30c0
30c0
31c0
ENDCHAR
STARTCHAR U518A
ENCODING 20874
SWIDTH 960 0
DWIDTH 12 0
BBX 12 12 0 -2
BITMAP
0000
3fe0
35a0
35a0
35a0
35a0
fff0
35a0
35a0
35a0
35a0
30e0
ENDCHAR
STARTCHAR U518C
ENCODING 20876
SWIDTH 960 0
DWIDTH 12 0
BBX 12 12 0 -2
BITMAP
7de0
6d60
6d60
6d60
6d60
fff0
6d60
6d60
6d60
6d60
6d60
dee0
ENDCHAR
STARTCHAR U518D
ENCODING 20877
SWIDTH 960 0
DWIDTH 12 0
BBX 12 12 0 -2
BITMAP
0000
7fe0
0600
3fc0
36c0
3fc0
36c0
36c0
fff0
30c0
30c0
31c0
ENDCHAR
STARTCHAR U518F
ENCODING 20879
SWIDTH 960 0
DWIDTH 12 0
BBX 12 12 0 -2
BITMAP
0000
7ff0
6db0
6db0
68f0
7030
6fb0
6db0
6db0
6fb0
6030
6070
ENDCHAR
STARTCHAR U5190
ENCODING 20880
SWIDTH 960 0
DWIDTH 12 0
BBX 12 12 0 -2
BITMAP
7ff0
6030
6fd0
6030
6fd0
0000
3fe0
3060
3fa0
37e0
3060
30e0
ENDCHAR
STARTCHAR U5191
ENCODING 20881
SWIDTH 960 0
DWIDTH 12 0
BBX 12 12 0 -2
BITMAP
0600
7fe0
6660
7fe0
6660
7fe0
30c0
3740
30c0
3740
30c0
31c0
ENDCHAR
STARTCHAR U5192
ENCODING 20882
SWIDTH 960 0
DWIDTH 12 0
BBX 12 12 0 -2
BITMAP
0000
7fe0
6060
7fe0
6060
7fe0
30c0
3fc0
30c0
3fc0
30c0
3fc0
ENDCHAR
STARTCHAR U5193
ENCODING 20883
SWIDTH 960 0
DWIDTH 12 0
BBX 12 12 0 -2
BITMAP
1980
7fe0
1980
7fe0
1980
fff0
36c0
3fc0
36c0
fff0
30c0
31c0
ENDCHAR
STARTCHAR U5195
ENCODING 20885
SWIDTH 960 0
DWIDTH 12 0
BBX 12 12 0 -2
BITMAP
7fe0
6060
6fa0
6060
6fa0
3b00
ffe0
6660
7fe0
0d00
3b30
e1f0
ENDCHAR
STARTCHAR U5196
ENCODING 20886
SWIDTH 960 0
DWIDTH 12 0
BBX 12 12 0 -2
BITMAP
0000
0000
0000
0000
fff0
c030
c030
0000
0000
0000
0000
0000
ENDCHAR
STARTCHAR U5197
ENCODING 20887
SWIDTH 960 0
DWIDTH 12 0
BBX 12 12 0 -2
BITMAP
0000
fff0
c030
c030
1f00
1b00
1b00
1b00
1b00
1b30
3330
e1f0
ENDCHAR
STARTCHAR U5199
ENCODING 20889
SWIDTH 960 0
DWIDTH 12 0
BBX 12 12 0 -2
BITMAP
0000
fff0
d830
d830
1fc0
1800
1f80
0180
fff0
0180
0180
0700
ENDCHAR
STARTCHAR U51A0
ENCODING 20896
SWIDTH 960 0
DWIDTH 12 0
BBX 12 12 0 -2
BITMAP
0000
fff0
c0d0
fed0
03f0
fec0
3540
3540
34c0
6dd0
6c30
c7f0
ENDCHAR
STARTCHAR U51A2
ENCODING 20898
SWIDTH 960 0
DWIDTH 12 0
BBX 12 12 0 -2
BITMAP
0000
fff0
c030
dfd0
0e60
6b60
f7c0
1d80
7b40
1d60
7300
0e00
ENDCHAR
STARTCHAR U51A4
ENCODING 20900
SWIDTH 960 0
DWIDTH 12 0
BBX 12 12 0 -2
BITMAP
0000
fff8
c618
1f80
f300
7fe0
6660
6660
7fe0
0d80
3b50
e1f0
ENDCHAR
STARTCHAR U51A5
ENCODING 20901
SWIDTH 960 0
DWIDTH 12 0
BBX 12 12 0 -2
BITMAP
0000
fff0
c030
dfd0
30c0
3fc0
30c0
3fc0
0600
fff0
19c0
7060
ENDCHAR
STARTCHAR U51A6
ENCODING 20902
SWIDTH 960 0
DWIDTH 12 0
BBX 12 12 0 -2
BITMAP
0000
fff0
c1b0
7de0
0180
ffe0
6a60
6b40
69c0
6b60
da30
cff0
ENDCHAR
STARTCHAR U51A8
ENCODING 20904
SWIDTH 960 0
DWIDTH 12 0
BBX 12 12 0 -2
BITMAP
0000
fff0
c030
dfd0
0000
3fc0
30c0
7fe0
6660
7fe0
6660
7fe0
ENDCHAR
STARTCHAR U51A9
ENCODING 20905
SWIDTH 960 0
DWIDTH 12 0
BBX 12 12 0 -2
BITMAP
0000
fff0
cc30
ddd0
30c0
3dc0
30c0
3fc0
0c00
3ff0
eab0
30e0
ENDCHAR
STARTCHAR U51AA
ENCODING 20906
SWIDTH 960 0
DWIDTH 12 0
BBX 12 12 0 -2
BITMAP
0000
fff0
db30
fff0
3180
3f80
3180
fff0
3580
7fc0
d5b0
3580
ENDCHAR
STARTCHAR U51AB
ENCODING 20907
SWIDTH 960 0
DWIDTH 12 0
BBX 12 12 0 -2
BITMAP
0c00
0600
0600
0000
0180
0300
0600
0600
0c00
0c00
0c00
0000
ENDCHAR
STARTCHAR U51AC
ENCODING 20908
SWIDTH 960 0
DWIDTH 12 0
BBX 12 12 0 -2
BITMAP
0600
0fc0
18c0
3580
e700
0d00
39c0
ee70
0300
1c00
0700
0180
ENDCHAR
STARTCHAR U51B0
ENCODING 20912
SWIDTH 960 0
DWIDTH 12 0
BBX 12 12 0 -2
BITMAP
0180
c180
6180
6198
1eb0
06e0
06c0
35a0
6db0
6998
c180
c380
ENDCHAR
STARTCHAR U51B1
ENCODING 20913
SWIDTH 960 0
DWIDTH 12 0
BBX 12 12 0 -2
BITMAP
0000
dff0
6600
6600
07e0
0660
0c60
34c0
6fc0
6cc0
c0c0
dff8
ENDCHAR
STARTCHAR U51B2
ENCODING 20914
SWIDTH 960 0
DWIDTH 12 0
BBX 12 12 0 -2
BITMAP
0180
c180
6180
6ff8
0d98
0d98
0d98
37f8
6d80
6180
c180
c180
ENDCHAR
STARTCHAR U51B3
ENCODING 20915
SWIDTH 960 0
DWIDTH 12 0
BBX 12 12 0 -2
BITMAP
0180
c180
6ff0
61b0
01b0
01b0
3ff8
6180
6180
c340
c660
1c38
ENDCHAR
STARTCHAR U51B4
ENCODING 20916
SWIDTH 960 0
DWIDTH 12 0
BBX 12 12 0 -2
BITMAP
0000
cff0
66c0
66c0
06c0
1ff0
01c0
31c0
6340
6ec0
d8c0
c1c0
ENDCHAR
STARTCHAR U51B5
ENCODING 20917
SWIDTH 960 0
DWIDTH 12 0
BBX 12 12 0 -2
BITMAP
0000
cfe0
6c60
6c60
0c60
0fe0
3680
6680
6680
cdb0
d9b0
30f0
ENDCHAR
STARTCHAR U51B6
ENCODING 20918
SWIDTH 960 0
DWIDTH 12 0
BBX 12 12 0 -2
BITMAP
0300
c300
6340
6660
0df0
1f30
0000
37e0
6c60
6c60
cc60
cfe0
ENDCHAR
STARTCHAR U51B7
ENCODING 20919
SWIDTH 960 0
DWIDTH 12 0
BBX 12 12 0 -2
BITMAP
0300
c300
6680
6dc0
1fe0
3030
0fe0
3360
6360
63c0
c300
c300
ENDCHAR
STARTCHAR U51BD
ENCODING 20925
SWIDTH 960 0
DWIDTH 12 0
BBX 12 12 0 -2
BITMAP
0030
df50
6cd0
6cd0
1f50
1b50
1d50
7750
66d0
c630
cc30
1870
ENDCHAR
STARTCHAR U51C4
ENCODING 20932
SWIDTH 960 0
DWIDTH 12 0
BBX 12 12 0 -2
BITMAP
0300
dff0
6300
6fe0
0360
1ff0
3360
6ff0
66c0
cf40
c3c0
1e60
ENDCHAR
STARTCHAR U51C5
ENCODING 20933
SWIDTH 960 0
DWIDTH 12 0
BBX 12 12 0 -2
BITMAP
0000
dff0
6b30
6ff0
1b30
1b30
3fd0
6cd0
6cd0
dfd0
d830
1ff0
ENDCHAR
STARTCHAR U51C6
ENCODING 20934
SWIDTH 960 0
DWIDTH 12 0
BBX 12 12 0 -2
BITMAP
0660
c6c0
6ff0
6d80
1d80
37e0
3580
6d80
6fe0
cd80
cd80
0ff0
ENDCHAR
STARTCHAR U51C9
ENCODING 20937
SWIDTH 960 0
DWIDTH 12 0
BBX 12 12 0 -2
BITMAP
0300
dff0
6000
6fe0
0c60
0c60
37e0
6300
6d40
cd60
db60
0700
ENDCHAR
STARTCHAR U51CB
ENCODING 20939
SWIDTH 960 0
DWIDTH 12 0
BBX 12 12 0 -2
BITMAP
0000
cff0
6db0
6dd0
0db0
0ff0
3430
6dd0
6d50
cdd0
d830
3070
ENDCHAR
STARTCHAR U51CC
ENCODING 20940
SWIDTH 960 0
DWIDTH 12 0
BBX 12 12 0 -2
BITMAP
0300
dfe0
6300
6ff0
0680
3df0
0600
67c0
6cc0
c780
cec0
d870
ENDCHAR
STARTCHAR U51CD
ENCODING 20941
SWIDTH 960 0
DWIDTH 12 0
BBX 12 12 0 -2
BITMAP
0300
dff0
6300
6fe0
0d60
0fe0
3560
6fe0
6780
cd60
db30
0300
ENDCHAR
STARTCHAR U51D6
ENCODING 20950
SWIDTH 960 0
DWIDTH 12 0
BBX 12 12 0 -2
BITMAP
06c0
c680
6ff0
1d80
0fe0
6d80
cff0
c600
0600
fff0
0600
0600
ENDCHAR
STARTCHAR U51DB
ENCODING 20955
SWIDTH 960 0
DWIDTH 12 0
BBX 12 12 0 -2
BITMAP
0180
dff8
6d50
6dd0
0c30
0ff0
37e0
6000
6ff8
cdb0
d998
0380
ENDCHAR
STARTCHAR U51DC
ENCODING 20956
SWIDTH 960 0
DWIDTH 12 0
BBX 12 12 0 -2
BITMAP
0300
dff0
6860
1ba0
1aa0
1fe0
01c0
3700
6ff0
6d40
db60
c300
ENDCHAR
STARTCHAR U51DD
ENCODING 20957
SWIDTH 960 0
DWIDTH 12 0
BBX 12 12 0 -2
BITMAP
33f0
3630
dda0
76c0
1ff0
18d0
1f40
7570
6f40
cd40
dac0
3670
ENDCHAR
STARTCHAR U51E0
ENCODING 20960
SWIDTH 960 0
DWIDTH 12 0
BBX 12 12 0 -2
BITMAP
1f80
1980
1980
1980
1980
1980
1980
1980
3180
31b0
61b0
c0f0
ENDCHAR
STARTCHAR U51E1
ENCODING 20961
SWIDTH 960 0
DWIDTH 12 0
BBX 12 12 0 -2
BITMAP
0000
1f80
1980
1980
1980
1d80
1a80
1a80
1980
31b0
31b0
60f0
ENDCHAR
STARTCHAR U51E6
ENCODING 20966
SWIDTH 960 0
DWIDTH 12 0
BBX 12 12 0 -2
BITMAP
3000
33c0
3d40
3540
6d40
6d40
d550
1b50
1a70
3400
6700
c1f8
ENDCHAR
STARTCHAR U51E7
ENCODING 20967
SWIDTH 960 0
DWIDTH 12 0
BBX 12 12 0 -2
BITMAP
0000
7fe0
6660
6660
6fa0
6aa0
6aa0
6aa0
6aa0
6ba8
c638
c618
ENDCHAR
STARTCHAR U51E9
ENCODING 20969
SWIDTH 960 0
DWIDTH 12 0
BBX 12 12 0 -2
BITMAP
0000
7fe0
6660
6660
7fe0
6660
6f60
6ea0
6ae0
7668
c638
c618
ENDCHAR
STARTCHAR U51EA
ENCODING 20970
SWIDTH 960 0
DWIDTH 12 0
BBX 12 12 0 -2
BITMAP
0000
7fe0
6660
6660
6a60
6ba0
6a60
6a60
6a68
7fd8
6038
c018
ENDCHAR
STARTCHAR U51ED
ENCODING 20973
SWIDTH 960 0
DWIDTH 12 0
BBX 12 12 0 -2
BITMAP
30e0
3780
6180
eff0
6180
6fe0
6000
1f80
1980
19b0
31b0
60f0
ENDCHAR
STARTCHAR U51F0
ENCODING 20976
SWIDTH 960 0
DWIDTH 12 0
BBX 12 12 0 -2
BITMAP
0000
7fe0
6660
6fa0
69a0
6fa0
69a0
6fa0
6660
6fa8
c638
dfd8
ENDCHAR
STARTCHAR U51F1
ENCODING 20977
SWIDTH 960 0
DWIDTH 12 0
BBX 12 12 0 -2
BITMAP
3000
d5e0
fd60
0360
fd60
0360
fd60
cd60
fd60
6b60
7e60
ec78
ENDCHAR
STARTCHAR U51F5
ENCODING 20981
SWIDTH 960 0
DWIDTH 12 0
BBX 12 12 0 -2
BITMAP
6030
6030
6030
6030
6030
6030
6030
6030
6030
6030
7ff0
6030
ENDCHAR
STARTCHAR U51F6
ENCODING 20982
SWIDTH 960 0
DWIDTH 12 0
BBX 12 12 0 -2
BITMAP
00c0
60d0
68d0
6db0
66b0
6330
66b0
6cd0
78d0
6030
7ff0
6000
ENDCHAR
STARTCHAR U51F8
ENCODING 20984
SWIDTH 960 0
DWIDTH 12 0
BBX 12 12 0 -2
BITMAP
0000
1f80
1980
1980
1980
f9f0
c030
c030
c030
c030
fff0
0000
ENDCHAR
STARTCHAR U51F9
ENCODING 20985
SWIDTH 960 0
DWIDTH 12 0
BBX 12 12 0 -2
BITMAP
0000
f9f0
d9b0
d9b0
d9b0
d9b0
dfb0
c030
c030
c030
fff0
0000
ENDCHAR
STARTCHAR U51FA
ENCODING 20986
SWIDTH 960 0
DWIDTH 12 0
BBX 12 12 0 -2
BITMAP
0600
0600
36c0
36c0
36c0
3fc0
0600
6660
6660
6660
6660
7fe0
ENDCHAR
STARTCHAR U51FD
ENCODING 20989
SWIDTH 960 0
DWIDTH 12 0
BBX 12 12 0 -2
BITMAP
0000
7fe0
0600
c630
cf50
d350
dbb0
cd50
db70
c730
c030
fff0
ENDCHAR
STARTCHAR U51FE
ENCODING 20990
SWIDTH 960 0
DWIDTH 12 0
BBX 12 12 0 -2
BITMAP
0000
1fc0
0180
c730
c630
dff0
d6b0
d6d0
deb0
c730
ce30
fff0
ENDCHAR
STARTCHAR U5200
ENCODING 20992
SWIDTH 960 0
DWIDTH 12 0
BBX 12 12 0 -2
BITMAP
0000
7ff0
0330
0330
0330
0330
0630
0630
0c30
0c30
1830
30e0
ENDCHAR
STARTCHAR U5203
ENCODING 20995
SWIDTH 960 0
DWIDTH 12 0
BBX 12 12 0 -2
BITMAP
0000
7ff0
0630
0630
0630
1e30
0730
06b0
0c30
0c30
1830
30e0
ENDCHAR
STARTCHAR U5204
ENCODING 20996
SWIDTH 960 0
DWIDTH 12 0
BBX 12 12 0 -2
BITMAP
0000
7fe0
0660
0660
6660
3660
1a60
0c60
0f60
19f0
3060
61c0
ENDCHAR
STARTCHAR U5206
ENCODING 20998
SWIDTH 960 0
DWIDTH 12 0
BBX 12 12 0 -2
BITMAP
0d80
0d80
0cc0
18c0
3060
6fd0
c6d8
06c0
06c0
0cc0
18c0
3380
ENDCHAR
STARTCHAR U5207
ENCODING 20999
SWIDTH 960 0
DWIDTH 12 0
BBX 12 12 0 -2
BITMAP
0000
6ff0
61b0
6eb0
f9b0
61b0
61b0
6db0
3d30
0330
0630
1ce0
ENDCHAR
STARTCHAR U5208
ENCODING 21000
SWIDTH 960 0
DWIDTH 12 0
BBX 12 12 0 -2
BITMAP
0030
06b0
06b0
06b0
edb0
35b0
19b0
1db0
36b0
3630
6030
c070
ENDCHAR
STARTCHAR U520A
ENCODING 21002
SWIDTH 960 0
DWIDTH 12 0
BBX 12 12 0 -2
BITMAP
0030
7eb0
19b0
19b0
19b0
feb0
19b0
19b0
19b0
1830
1830
1870
ENDCHAR
STARTCHAR U520B
ENCODING 21003
SWIDTH 960 0
DWIDTH 12 0
BBX 12 12 0 -2
BITMAP
1e30
f9b0
19b0
19b0
19b0
ffb0
19b0
19b0
19b0
1830
3030
6070
ENDCHAR
STARTCHAR U520E
ENCODING 21006
SWIDTH 960 0
DWIDTH 12 0
BBX 12 12 0 -2
BITMAP
3030
30d0
7f50
6b50
db50
3750
3550
6d50
db50
3330
6330
0e70
ENDCHAR
STARTCHAR U5211
ENCODING 21009
SWIDTH 960 0
DWIDTH 12 0
BBX 12 12 0 -2
BITMAP
0030
feb0
6db0
6db0
6db0
ffb0
6db0
6db0
6db0
6c30
6c30
cc70
ENDCHAR
STARTCHAR U5214
ENCODING 21012
SWIDTH 960 0
DWIDTH 12 0
BBX 12 12 0 -2
BITMAP
3030
31b0
7eb0
36b0
36b0
36b0
ffb0
31b0
39b0
3430
6c30
c070
ENDCHAR
STARTCHAR U5217
ENCODING 21015
SWIDTH 960 0
DWIDTH 12 0
BBX 12 12 0 -2
BITMAP
0030
feb0
31b0
31b0
3eb0
66b0
76b0
ddb0
0db0
1830
3030
6070
ENDCHAR
STARTCHAR U521D
ENCODING 21021
SWIDTH 960 0
DWIDTH 12 0
BBX 12 12 0 -2
BITMAP
3000
37f0
fdb0
0db0
19b0
36b0
3db0
75b0
d730
3330
3630
34e0
ENDCHAR
STARTCHAR U5224
ENCODING 21028
SWIDTH 960 0
DWIDTH 12 0
BBX 12 12 0 -2
BITMAP
1830
dab0
6ab0
6db0
7eb0
19b0
19b0
ffb0
19b0
1830
1830
1870
ENDCHAR
STARTCHAR U5225
ENCODING 21029
SWIDTH 960 0
DWIDTH 12 0
BBX 12 12 0 -2
BITMAP
0030
7eb0
66b0
66b0
7eb0
31b0
3eb0
36b0
36b0
3630
6630
dc70
ENDCHAR
STARTCHAR U5227
ENCODING 21031
SWIDTH 960 0
DWIDTH 12 0
BBX 12 12 0 -2
BITMAP
3000
37f0
fdb0
31b0
31b0
feb0
31b0
31b0
69b0
6d30
fd30
06e0
ENDCHAR
STARTCHAR U5229
ENCODING 21033
SWIDTH 960 0
DWIDTH 12 0
BBX 12 12 0 -2
BITMAP
0e30
79b0
19b0
19b0
feb0
39b0
3db0
6ab0
6830
d830
1830
1870
ENDCHAR
STARTCHAR U522A
ENCODING 21034
SWIDTH 960 0
DWIDTH 12 0
BBX 12 12 0 -2
BITMAP
0030
ff50
d550
d550
d550
ffd0
d550
d550
d550
d530
d530
c770
ENDCHAR
STARTCHAR U522E
ENCODING 21038
SWIDTH 960 0
DWIDTH 12 0
BBX 12 12 0 -2
BITMAP
0730
7db0
19b0
19b0
ffb0
19b0
19b0
7eb0
66b0
6630
6630
7e70
ENDCHAR
STARTCHAR U5230
ENCODING 21040
SWIDTH 960 0
DWIDTH 12 0
BBX 12 12 0 -2
BITMAP
0030
ffb0
19b0
35b0
feb0
1bb0
19b0
feb0
19b0
1830
1f30
f070
ENDCHAR
STARTCHAR U5233
ENCODING 21043
SWIDTH 960 0
DWIDTH 12 0
BBX 12 12 0 -2
BITMAP
1830
ff50
34d0
66d0
dd50
00d0
ff50
30d0
3ed0
6630
0630
1c70
ENDCHAR
STARTCHAR U5236
ENCODING 21046
SWIDTH 960 0
DWIDTH 12 0
BBX 12 12 0 -2
BITMAP
6830
69b0
7eb0
d9b0
ffb0
19b0
7eb0
6ab0
6ab0
6ab0
6c30
1870
ENDCHAR
STARTCHAR U5237
ENCODING 21047
SWIDTH 960 0
DWIDTH 12 0
BBX 12 12 0 -2
BITMAP
7e30
66b0
66b0
7eb0
69b0
7eb0
6ab0
6ab0
eab0
ea30
6e30
1870
ENDCHAR
STARTCHAR U5238
ENCODING 21048
SWIDTH 960 0
DWIDTH 12 0
BBX 12 12 0 -2
BITMAP
36c0
1ac0
1a80
7fe0
0d00
fff0
1980
3fc0
edb0
0d80
1980
3700
ENDCHAR
STARTCHAR U5239
ENCODING 21049
SWIDTH 960 0
DWIDTH 12 0
BBX 12 12 0 -2
BITMAP
0630
75b0
19b0
35b0
e6b0
19b0
ffb0
1db0
3ab0
6830
d830
1870
ENDCHAR
STARTCHAR U523A
ENCODING 21050
SWIDTH 960 0
DWIDTH 12 0
BBX 12 12 0 -2
BITMAP
1830
ffb0
19b0
7eb0
6ab0
6ab0
6ab0
3db0
6ab0
d830
1830
1870
ENDCHAR
STARTCHAR U523B
ENCODING 21051
SWIDTH 960 0
DWIDTH 12 0
BBX 12 12 0 -2
BITMAP
1830
19b0
ffb0
19b0
35b0
75b0
1ab0
36b0
6c30
1c30
3630
e070
ENDCHAR
STARTCHAR U5243
ENCODING 21059
SWIDTH 960 0
DWIDTH 12 0
BBX 12 12 0 -2
BITMAP
6630
35b0
feb0
1ab0
7eb0
d9b0
feb0
1ab0
3ab0
6e30
d830
1870
ENDCHAR
STARTCHAR U5244
ENCODING 21060
SWIDTH 960 0
DWIDTH 12 0
BBX 12 12 0 -2
BITMAP
0030
ffb0
6ab0
6ab0
d5b0
6ab0
6ab0
01b0
feb0
1830
1f30
f870
ENDCHAR
STARTCHAR U5247
ENCODING 21063
SWIDTH 960 0
DWIDTH 12 0
BBX 12 12 0 -2
BITMAP
0030
7db0
6db0
7db0
6db0
7db0
6db0
6db0
7db0
3430
6630
c070
ENDCHAR
STARTCHAR U524A
ENCODING 21066
SWIDTH 960 0
DWIDTH 12 0
BBX 12 12 0 -2
BITMAP
1830
dab0
6db0
7eb0
66b0
7eb0
66b0
7eb0
66b0
6630
6630
6e70
ENDCHAR
STARTCHAR U524B
ENCODING 21067
SWIDTH 960 0
DWIDTH 12 0
BBX 12 12 0 -2
BITMAP
1830
feb0
19b0
7eb0
66b0
66b0
7eb0
35b0
3430
6c70
6c18
c7f8
ENDCHAR
STARTCHAR U524C
ENCODING 21068
SWIDTH 960 0
DWIDTH 12 0
BBX 12 12 0 -2
BITMAP
1830
19b0
ffb0
19b0
feb0
dab0
dab0
feb0
3db0
6a30
d830
1870
ENDCHAR
STARTCHAR U524D
ENCODING 21069
SWIDTH 960 0
DWIDTH 12 0
BBX 12 12 0 -2
BITMAP
3180
1b00
fff0
0000
7d60
6d60
7d60
6d60
7d60
6d60
6c60
6ce0
ENDCHAR
STARTCHAR U524F
ENCODING 21071
SWIDTH 960 0
DWIDTH 12 0
BBX 12 12 0 -2
BITMAP
cc00
6df0
68d0
fcd0
6b50
69d0
fef0
68d8
69b0
69b0
db30
dae0
ENDCHAR
STARTCHAR U5254
ENCODING 21076
SWIDTH 960 0
DWIDTH 12 0
BBX 12 12 0 -2
BITMAP
0030
7ed0
66d0
7ed0
66d0
7ed0
30d0
7f50
d550
6d30
db30
3670
ENDCHAR
STARTCHAR U5256
ENCODING 21078
SWIDTH 960 0
DWIDTH 12 0
BBX 12 12 0 -2
BITMAP
1830
19b0
ffb0
66b0
35b0
ffb0
01b0
7eb0
66b0
6630
7e30
6070
ENDCHAR
STARTCHAR U525B
ENCODING 21083
SWIDTH 960 0
DWIDTH 12 0
BBX 12 12 0 -2
BITMAP
0030
ff50
c350
e750
d550
ff50
db50
eb50
eb50
ff30
c330
c770
ENDCHAR
STARTCHAR U525E
ENCODING 21086
SWIDTH 960 0
DWIDTH 12 0
BBX 12 12 0 -2
BITMAP
1830
ffb0
19b0
35b0
66b0
ffb0
06b0
7ab0
6ab0
7a30
0630
0e70
ENDCHAR
STARTCHAR U5263
ENCODING 21091
SWIDTH 960 0
DWIDTH 12 0
BBX 12 12 0 -2
BITMAP
1830
35b0
66b0
ddb0
19b0
7eb0
6ab0
7eb0
1db0
1a30
3330
e070
ENDCHAR
STARTCHAR U5264
ENCODING 21092
SWIDTH 960 0
DWIDTH 12 0
BBX 12 12 0 -2
BITMAP
1830
ffb0
66b0
3db0
35b0
e7b0
7eb0
66b0
7eb0
6630
6630
ce70
ENDCHAR
STARTCHAR U5265
ENCODING 21093
SWIDTH 960 0
DWIDTH 12 0
BBX 12 12 0 -2
BITMAP
7c30
0db0
3db0
0db0
ffb0
1bb0
6ab0
3db0
6c30
db30
1830
3870
ENDCHAR
STARTCHAR U5269
ENCODING 21097
SWIDTH 960 0
DWIDTH 12 0
BBX 12 12 0 -2
BITMAP
0e30
78d0
18d0
ffd0
6ad0
eb50
6ad0
eb50
3cd0
6a30
d830
1870
ENDCHAR
STARTCHAR U526A
ENCODING 21098
SWIDTH 960 0
DWIDTH 12 0
BBX 12 12 0 -2
BITMAP
30c0
1980
fff0
7560
6d60
7560
6d60
6ce0
ffe0
0660
1c60
f1c0
ENDCHAR
STARTCHAR U526F
ENCODING 21103
SWIDTH 960 0
DWIDTH 12 0
BBX 12 12 0 -2
BITMAP
0030
feb0
01b0
7eb0
66b0
7eb0
01b0
feb0
dab0
fe30
da30
fe70
ENDCHAR
STARTCHAR U5270
ENCODING 21104
SWIDTH 960 0
DWIDTH 12 0
BBX 12 12 0 -2
BITMAP
0e30
79b0
19b0
ffb0
6ab0
ffb0
6ab0
ffb0
3db0
6a30
db30
1870
ENDCHAR
STARTCHAR U5271
ENCODING 21105
SWIDTH 960 0
DWIDTH 12 0
BBX 12 12 0 -2
BITMAP
3000
3bf0
6db0
fab0
31b0
fdb0
d5d0
fdb8
3b30
3530
6630
cce0
ENDCHAR
STARTCHAR U5272
ENCODING 21106
SWIDTH 960 0
DWIDTH 12 0
BBX 12 12 0 -2
BITMAP
1830
ffb0
dbb0
7eb0
19b0
7eb0
19b0
ffb0
01b0
7e30
6630
7e70
ENDCHAR
STARTCHAR U5273
ENCODING 21107
SWIDTH 960 0
DWIDTH 12 0
BBX 12 12 0 -2
BITMAP
6630
ff50
66d0
18d0
34d0
66d0
df50
00d0
7ed0
6630
6630
7e70
ENDCHAR
STARTCHAR U5274
ENCODING 21108
SWIDTH 960 0
DWIDTH 12 0
BBX 12 12 0 -2
BITMAP
1830
6ab0
7eb0
01b0
ffb0
01b0
7eb0
66b0
7eb0
6c30
3e30
f070
ENDCHAR
STARTCHAR U5275
ENCODING 21109
SWIDTH 960 0
DWIDTH 12 0
BBX 12 12 0 -2
BITMAP
1830
3430
66b0
feb0
66b0
7eb0
66b0
7eb0
61b0
de30
d630
3e70
ENDCHAR
STARTCHAR U527D
ENCODING 21117
SWIDTH 960 0
DWIDTH 12 0
BBX 12 12 0 -2
BITMAP
ffb0
34d0
ff50
d550
ff50
00d0
7ed0
00d0
ff50
6a30
db30
3870
ENDCHAR
STARTCHAR U527F
ENCODING 21119
SWIDTH 960 0
DWIDTH 12 0
BBX 12 12 0 -2
BITMAP
6a30
d5b0
6ab0
7eb0
6ab0
7eb0
6ab0
ffb0
3db0
6a30
db30
1870
ENDCHAR
STARTCHAR U5283
ENCODING 21123
SWIDTH 960 0
DWIDTH 12 0
BBX 12 12 0 -2
BITMAP
1830
7eb0
1ab0
ffb0
1ab0
ffb0
6ab0
7eb0
6ab0
7e30
1f30
f070
ENDCHAR
STARTCHAR U5287
ENCODING 21127
SWIDTH 960 0
DWIDTH 12 0
BBX 12 12 0 -2
BITMAP
1e30
19b0
7eb0
76b0
7db0
61b0
7eb0
6bb0
76b0
6e30
d530
1870
ENDCHAR
STARTCHAR U5288
ENCODING 21128
SWIDTH 960 0
DWIDTH 12 0
BBX 12 12 0 -2
BITMAP
7cc0
6ff0
7da0
61a0
7ff0
ecc0
7df0
00c0
7ff0
0c30
1830
71e0
ENDCHAR
STARTCHAR U5289
ENCODING 21129
SWIDTH 960 0
DWIDTH 12 0
BBX 12 12 0 -2
BITMAP
3030
ef30
d5b0
d5b0
fab0
35b0
feb0
19b0
feb0
d830
6e30
f870
ENDCHAR
STARTCHAR U528D
ENCODING 21133
SWIDTH 960 0
DWIDTH 12 0
BBX 12 12 0 -2
BITMAP
3030
39b0
6db0
dab0
01b0
feb0
dab0
feb0
6db0
76b0
db30
d870
ENDCHAR
STARTCHAR U5291
ENCODING 21137
SWIDTH 960 0
DWIDTH 12 0
BBX 12 12 0 -2
BITMAP
1830
ff50
34d0
fbd0
6b50
dad0
66d0
7ed0
66d0
7e30
6630
c670
ENDCHAR
STARTCHAR U5292
ENCODING 21138
SWIDTH 960 0
DWIDTH 12 0
BBX 12 12 0 -2
BITMAP
3000
3bf0
6cd0
fad0
01d0
fed0
db50
feb0
69b0
6d30
d630
cce0
ENDCHAR
STARTCHAR U5294
ENCODING 21140
SWIDTH 960 0
DWIDTH 12 0
BBX 12 12 0 -2
BITMAP
3000
3bf0
6cd0
fb50
0350
fed0
dad0
feb0
69b8
6d30
d630
cce0
ENDCHAR
STARTCHAR U529B
ENCODING 21147
SWIDTH 960 0
DWIDTH 12 0
BBX 12 12 0 -2
BITMAP
0600
0600
0600
7fe0
0660
0660
0660
0c60
0c60
1860
3060
61c0
ENDCHAR
STARTCHAR U529F
ENCODING 21151
SWIDTH 960 0
DWIDTH 12 0
BBX 12 12 0 -2
BITMAP
0180
0180
f980
37f0
31b0
31b0
31b0
35b0
3b30
e330
0630
0ce0
ENDCHAR
STARTCHAR U52A0
ENCODING 21152
SWIDTH 960 0
DWIDTH 12 0
BBX 12 12 0 -2
BITMAP
3000
3000
31f0
feb0
36b0
36b0
36b0
36b0
36b0
66b0
66f0
dc00
ENDCHAR
STARTCHAR U52A3
ENCODING 21155
SWIDTH 960 0
DWIDTH 12 0
BBX 12 12 0 -2
BITMAP
0600
36c0
3660
6eb0
c730
1c00
f600
7fe0
0660
0c60
1860
71c0
ENDCHAR
STARTCHAR U52A9
ENCODING 21161
SWIDTH 960 0
DWIDTH 12 0
BBX 12 12 0 -2
BITMAP
0180
7d80
6d80
6ff0
7db0
6db0
6db0
7db0
6db0
6f30
f330
06e0
ENDCHAR
STARTCHAR U52AA
ENCODING 21162
SWIDTH 960 0
DWIDTH 12 0
BBX 12 12 0 -2
BITMAP
1800
fde0
3460
6d40
3980
3740
e670
7fe0
0660
0660
1c60
71c0
ENDCHAR
STARTCHAR U52AB
ENCODING 21163
SWIDTH 960 0
DWIDTH 12 0
BBX 12 12 0 -2
BITMAP
18c0
18c0
7ec0
1bf0
18d0
ff50
18d0
19b0
35b0
3eb0
e330
06e0
ENDCHAR
STARTCHAR U52AC
ENCODING 21164
SWIDTH 960 0
DWIDTH 12 0
BBX 12 12 0 -2
BITMAP
3180
3180
3e80
67f0
66b0
fab0
6ab0
6ab0
7ab0
0730
0630
1ce0
ENDCHAR
STARTCHAR U52AD
ENCODING 21165
SWIDTH 960 0
DWIDTH 12 0
BBX 12 12 0 -2
BITMAP
0180
fd80
3580
37f0
6db0
6db0
c1b0
7db0
6d30
6d30
6e30
7ce0
ENDCHAR
STARTCHAR U52B1
ENCODING 21169
SWIDTH 960 0
DWIDTH 12 0
BBX 12 12 0 -2
BITMAP
0ec0
78c0
60c0
7ff0
68d0
6ed0
6ad0
6ad0
6ab0
6ab0
d730
eee0
ENDCHAR
STARTCHAR U52B4
ENCODING 21172
SWIDTH 960 0
DWIDTH 12 0
BBX 12 12 0 -2
BITMAP
6c60
3660
1ac0
fff0
cc30
cc30
7fc0
0cc0
0cc0
18c0
30c0
6380
ENDCHAR
STARTCHAR U52B5
ENCODING 21173
SWIDTH 960 0
DWIDTH 12 0
BBX 12 12 0 -2
BITMAP
0600
1a80
1ac0
3fe0
0d00
fff0
1980
34c0
ffb0
0d80
1980
3700
ENDCHAR
STARTCHAR U52B9
ENCODING 21177
SWIDTH 960 0
DWIDTH 12 0
BBX 12 12 0 -2
BITMAP
1980
1980
fe80
37f0
6db0
ceb0
35b0
19b0
1b30
3530
6630
cce0
ENDCHAR
STARTCHAR U52BC
ENCODING 21180
SWIDTH 960 0
DWIDTH 12 0
BBX 12 12 0 -2
BITMAP
3180
3180
fe80
37f0
31b0
fdb0
01b0
7db0
6d30
6d30
6e30
7ce0
ENDCHAR
STARTCHAR U52BE
ENCODING 21182
SWIDTH 960 0
DWIDTH 12 0
BBX 12 12 0 -2
BITMAP
1980
1980
fe80
37f0
69b0
e9b0
35b0
6db0
db30
3530
6630
cce0
ENDCHAR
STARTCHAR U52C1
ENCODING 21185
SWIDTH 960 0
DWIDTH 12 0
BBX 12 12 0 -2
BITMAP
0180
fe80
6a80
6bf0
d5b0
6ab0
01b0
feb0
19b0
1b30
1d30
f6e0
ENDCHAR
STARTCHAR U52C3
ENCODING 21187
SWIDTH 960 0
DWIDTH 12 0
BBX 12 12 0 -2
BITMAP
3180
fe80
3180
fff0
c6b0
7db0
19b0
1eb0
f9b0
1b30
1b30
3ae0
ENDCHAR
STARTCHAR U52C5
ENCODING 21189
SWIDTH 960 0
DWIDTH 12 0
BBX 12 12 0 -2
BITMAP
1980
7e80
1980
7ff0
6ab0
6ab0
7eb0
3db0
3ab0
6b30
db30
1ae0
ENDCHAR
STARTCHAR U52C7
ENCODING 21191
SWIDTH 960 0
DWIDTH 12 0
BBX 12 12 0 -2
BITMAP
3fc0
0d80
3fe0
3660
3fe0
3660
3fe0
0600
7ff0
0c30
3830
e0e0
ENDCHAR
STARTCHAR U52C9
ENCODING 21193
SWIDTH 960 0
DWIDTH 12 0
BBX 12 12 0 -2
BITMAP
30c0
3ec0
6cc0
fff0
6ad0
6ad0
7ed0
1db0
35b0
3560
6c18
c7f8
ENDCHAR
STARTCHAR U52CD
ENCODING 21197
SWIDTH 960 0
DWIDTH 12 0
BBX 12 12 0 -2
BITMAP
1980
fe80
0180
7ff0
6db0
6db0
7db0
19b0
6db0
6b30
db30
3ae0
ENDCHAR
STARTCHAR U52D2
ENCODING 21202
SWIDTH 960 0
DWIDTH 12 0
BBX 12 12 0 -2
BITMAP
6980
fd80
6980
7bf0
31b0
fdb0
d5b0
fdb0
3330
fd30
3630
34e0
ENDCHAR
STARTCHAR U52D5
ENCODING 21205
SWIDTH 960 0
DWIDTH 12 0
BBX 12 12 0 -2
BITMAP
1e80
f980
1bf0
feb0
6ab0
7eb0
6ab0
7eb0
19b0
7d30
1f30
f6e0
ENDCHAR
STARTCHAR U52D7
ENCODING 21207
SWIDTH 960 0
DWIDTH 12 0
BBX 12 12 0 -2
BITMAP
3fc0
30c0
3fc0
30c0
3fc0
7d80
6ff0
7db0
6db0
7db0
6d30
f6e0
ENDCHAR
STARTCHAR U52D8
ENCODING 21208
SWIDTH 960 0
DWIDTH 12 0
BBX 12 12 0 -2
BITMAP
6d80
fe80
6d80
7ff0
6db0
7db0
6db0
feb0
d5b0
eeb0
c330
7ee0
ENDCHAR
STARTCHAR U52D9
ENCODING 21209
SWIDTH 960 0
DWIDTH 12 0
BBX 12 12 0 -2
BITMAP
0300
fdf0
0ec0
6b40
31c0
ff70
3580
37e0
71a0
d360
3660
75c0
ENDCHAR
STARTCHAR U52DD
ENCODING 21213
SWIDTH 960 0
DWIDTH 12 0
BBX 12 12 0 -2
BITMAP
0180
7aa0
6ff0
6980
7ff0
6b40
6aa0
7ff0
6b68
6b60
6a60
ddc0
ENDCHAR
STARTCHAR U52DE
ENCODING 21214
SWIDTH 960 0
DWIDTH 12 0
BBX 12 12 0 -2
BITMAP
1980
6aa0
3540
6660
fff0
cc30
0c00
7fe0
0c60
0c60
1860
71c0
ENDCHAR
STARTCHAR U52DF
ENCODING 21215
SWIDTH 960 0
DWIDTH 12 0
BBX 12 12 0 -2
BITMAP
1980
fff0
1980
3fc0
30c0
3fc0
30c0
fff0
36c0
7fe0
ccd0
3b80
ENDCHAR
STARTCHAR U52E0
ENCODING 21216
SWIDTH 960 0
DWIDTH 12 0
BBX 12 12 0 -2
BITMAP
f740
7740
d540
77f0
d550
18d0
34d0
e6d0
39b0
edb0
3b30
e6e0
ENDCHAR
STARTCHAR U52E2
ENCODING 21218
SWIDTH 960 0
DWIDTH 12 0
BBX 12 12 0 -2
BITMAP
1980
7d80
1be0
fea0
6de0
dab0
7f30
0600
7fe0
0660
0c60
39c0
ENDCHAR
STARTCHAR U52E3
ENCODING 21219
SWIDTH 960 0
DWIDTH 12 0
BBX 12 12 0 -2
BITMAP
3180
fd80
3180
7ff0
31b0
feb0
6db0
7db0
6db0
7d30
3530
e6e0
ENDCHAR
STARTCHAR U52E4
ENCODING 21220
SWIDTH 960 0
DWIDTH 12 0
BBX 12 12 0 -2
BITMAP
3580
fe80
3580
7ff0
6ab0
7eb0
19b0
7eb0
19b0
7db0
1f30
fae0
ENDCHAR
STARTCHAR U52E6
ENCODING 21222
SWIDTH 960 0
DWIDTH 12 0
BBX 12 12 0 -2
BITMAP
6a80
d580
6a80
7ff0
6ab0
7eb0
6ab0
7eb0
1db0
3ab0
6b30
dae0
ENDCHAR
STARTCHAR U52E7
ENCODING 21223
SWIDTH 960 0
DWIDTH 12 0
BBX 12 12 0 -2
BITMAP
6180
7e80
6d80
7ff0
d9b0
7eb0
e9b0
7eb0
69b0
7eb0
6b30
7ee0
ENDCHAR
STARTCHAR U52F2
ENCODING 21234
SWIDTH 960 0
DWIDTH 12 0
BBX 12 12 0 -2
BITMAP
7e80
1980
fff0
6ab0
7eb0
6ab0
7eb0
1b30
fee0
60c0
6b60
cdb0
ENDCHAR
STARTCHAR U52F3
ENCODING 21235
SWIDTH 960 0
DWIDTH 12 0
BBX 12 12 0 -2
BITMAP
0e80
f980
1980
fff0
eab0
eeb0
dab0
feb0
19b0
ff30
6d30
dae0
ENDCHAR
STARTCHAR U52F5
ENCODING 21237
SWIDTH 960 0
DWIDTH 12 0
BBX 12 12 0 -2
BITMAP
00c0
7f40
6ac0
7ff0
7f50
7550
7f50
6cd0
7f50
d5b0
df30
3760
ENDCHAR
STARTCHAR U52F8
ENCODING 21240
SWIDTH 960 0
DWIDTH 12 0
BBX 12 12 0 -2
BITMAP
6cc0
ff40
6cc0
f7f0
d550
f750
68d0
fed0
69b0
7eb0
6b30
7ee0
ENDCHAR
STARTCHAR U52F9
ENCODING 21241
SWIDTH 960 0
DWIDTH 12 0
BBX 12 12 0 -2
BITMAP
1800
1800
3ff0
3030
6030
c030
0030
0030
0030
0030
0060
01c0
ENDCHAR
STARTCHAR U52FA
ENCODING 21242
SWIDTH 960 0
DWIDTH 12 0
BBX 12 12 0 -2
BITMAP
1800
1800
1fe0
3060
6060
d860
0c60
0660
0660
0060
0060
01c0
ENDCHAR
STARTCHAR U52FE
ENCODING 21246
SWIDTH 960 0
DWIDTH 12 0
BBX 12 12 0 -2
BITMAP
3000
3000
3ff0
3630
6630
6630
cd30
0db0
1bd0
7cd0
0030
00e0
ENDCHAR
STARTCHAR U52FF
ENCODING 21247
SWIDTH 960 0
DWIDTH 12 0
BBX 12 12 0 -2
BITMAP
3000
3000
3ff0
35b0
6db0
cdb0
19b0
1b30
3330
6630
0c30
18e0
ENDCHAR
STARTCHAR U5301
ENCODING 21249
SWIDTH 960 0
DWIDTH 12 0
BBX 12 12 0 -2
BITMAP
1800
1800
1fe0
1b60
3360
6b60
ce60
0760
0de0
1870
3060
01c0
ENDCHAR
STARTCHAR U5302
ENCODING 21250
SWIDTH 960 0
DWIDTH 12 0
BBX 12 12 0 -2
BITMAP
1800
1800
1ff0
3030
3830
6bb0
de30
1830
19b0
0fb0
0030
00e0
ENDCHAR
STARTCHAR U5305
ENCODING 21253
SWIDTH 960 0
DWIDTH 12 0
BBX 12 12 0 -2
BITMAP
1800
1800
1fe0
3060
ef60
0360
0360
3f60
30c0
3030
3030
1ff0
ENDCHAR
STARTCHAR U5306
ENCODING 21254
SWIDTH 960 0
DWIDTH 12 0
BBX 12 12 0 -2
BITMAP
1800
1800
3ff0
35b0
6db0
ddb0
1bb0
1b50
3330
6630
0c60
01c0
ENDCHAR
STARTCHAR U5308
ENCODING 21256
SWIDTH 960 0
DWIDTH 12 0
BBX 12 12 0 -2
BITMAP
1800
1800
3ff0
3030
6330
dd50
36d0
3550
38d0
3fd0
0060
01c0
ENDCHAR
STARTCHAR U530D
ENCODING 21261
SWIDTH 960 0
DWIDTH 12 0
BBX 12 12 0 -2
BITMAP
1800
1ff0
36b0
7fd0
c630
3fd0
36d0
3fd0
36d0
3fd0
36d0
01e0
ENDCHAR
STARTCHAR U530F
ENCODING 21263
SWIDTH 960 0
DWIDTH 12 0
BBX 12 12 0 -2
BITMAP
3180
3180
fdf0
3330
6bd0
f550
fd50
33e0
3d00
6d30
0d30
39f0
ENDCHAR
STARTCHAR U5310
ENCODING 21264
SWIDTH 960 0
DWIDTH 12 0
BBX 12 12 0 -2
BITMAP
1800
1ff0
3030
7fd0
dfb0
19b0
3fd0
36d0
3fd0
36d0
3fd0
01e0
ENDCHAR
STARTCHAR U5315
ENCODING 21269
SWIDTH 960 0
DWIDTH 12 0
BBX 12 12 0 -2
BITMAP
3000
3000
3000
3180
3300
3600
3c00
f000
3000
3060
3060
1fe0
ENDCHAR
STARTCHAR U5316
ENCODING 21270
SWIDTH 960 0
DWIDTH 12 0
BBX 12 12 0 -2
BITMAP
1b00
1b00
1b60
3360
3340
7380
d300
3300
3300
3330
3330
31f0
ENDCHAR
STARTCHAR U5317
ENCODING 21271
SWIDTH 960 0
DWIDTH 12 0
BBX 12 12 0 -2
BITMAP
1b00
1b00
1b00
1b70
fbc0
1b00
1b00
1b00
3b00
eb30
1b30
19f0
ENDCHAR
STARTCHAR U5319
ENCODING 21273
SWIDTH 960 0
DWIDTH 12 0
BBX 12 12 0 -2
BITMAP
7d00
6d00
7d00
6d70
7dc0
0300
fd00
1b30
6f30
79f0
6e00
c3f8
ENDCHAR
STARTCHAR U531A
ENCODING 21274
SWIDTH 960 0
DWIDTH 12 0
BBX 12 12 0 -2
BITMAP
0000
7ff8
6000
6000
6000
6000
6000
6000
6000
6000
7ff8
6000
ENDCHAR
STARTCHAR U531D
ENCODING 21277
SWIDTH 960 0
DWIDTH 12 0
BBX 12 12 0 -2
BITMAP
0000
7ff0
6300
6300
6fe0
6b60
6b60
6b60
6b40
6300
6300
7ff0
ENDCHAR
STARTCHAR U5320
ENCODING 21280
SWIDTH 960 0
DWIDTH 12 0
BBX 12 12 0 -2
BITMAP
0000
7ff0
61c0
6f00
6c00
6fe0
6d80
6d80
6980
7180
6180
7ff0
ENDCHAR
STARTCHAR U5321
ENCODING 21281
SWIDTH 960 0
DWIDTH 12 0
BBX 12 12 0 -2
BITMAP
0000
fff0
c000
dfe0
c600
c600
dfc0
c600
c600
dfe0
c000
fff0
ENDCHAR
STARTCHAR U5323
ENCODING 21283
SWIDTH 960 0
DWIDTH 12 0
BBX 12 12 0 -2
BITMAP
0000
7ff0
6000
6fe0
6b60
6fe0
6b60
6fe0
6300
6300
6300
7ff0
ENDCHAR
STARTCHAR U532A
ENCODING 21290
SWIDTH 960 0
DWIDTH 12 0
BBX 12 12 0 -2
BITMAP
0000
fff0
cd00
cd00
dde0
cd00
dde0
cd00
fdf0
db00
d300
fff0
ENDCHAR
STARTCHAR U532F
ENCODING 21295
SWIDTH 960 0
DWIDTH 12 0
BBX 12 12 0 -2
BITMAP
0000
fff0
d340
dbf0
ee80
d7e0
c680
dbe0
da80
d7f0
d000
fff0
ENDCHAR
STARTCHAR U5331
ENCODING 21297
SWIDTH 960 0
DWIDTH 12 0
BBX 12 12 0 -2
BITMAP
0000
fff0
c600
dfc0
dac0
fff0
d8c0
dfc0
d8c0
dfc0
d860
fff0
ENDCHAR
STARTCHAR U5333
ENCODING 21299
SWIDTH 960 0
DWIDTH 12 0
BBX 12 12 0 -2
BITMAP
0000
fff0
c700
cd80
d8e0
fdc0
d540
ddc0
d980
dd40
d660
fff0
ENDCHAR
STARTCHAR U5338
ENCODING 21304
SWIDTH 960 0
DWIDTH 12 0
BBX 12 12 0 -2
BITMAP
0000
fff0
3000
3000
3000
3000
3000
3000
3000
3000
1800
0fe0
ENDCHAR
STARTCHAR U5339
ENCODING 21305
SWIDTH 960 0
DWIDTH 12 0
BBX 12 12 0 -2
BITMAP
0000
fff0
db00
db00
db60
d360
e1e0
c000
c000
fff0
c000
0000
ENDCHAR
STARTCHAR U533A
ENCODING 21306
SWIDTH 960 0
DWIDTH 12 0
BBX 12 12 0 -2
BITMAP
0000
7ff0
60c0
60c0
6d80
6680
6300
6680
6cc0
6800
7ff0
6000
ENDCHAR
STARTCHAR U533B
ENCODING 21307
SWIDTH 960 0
DWIDTH 12 0
BBX 12 12 0 -2
BITMAP
0000
7ff0
6c00
6fc0
6b00
7300
6fe0
6300
6680
6cc0
6800
7ff0
ENDCHAR
STARTCHAR U533F
ENCODING 21311
SWIDTH 960 0
DWIDTH 12 0
BBX 12 12 0 -2
BITMAP
0000
fff0
cd80
dfe0
cd80
ffe0
cc00
dfc0
d4c0
efc0
c000
fff0
ENDCHAR
STARTCHAR U5340
ENCODING 21312
SWIDTH 960 0
DWIDTH 12 0
BBX 12 12 0 -2
BITMAP
0000
fff0
6000
6fc0
6cc0
6fc0
6000
7ef0
76b0
7ef0
6000
7ff0
ENDCHAR
STARTCHAR U5341
ENCODING 21313
SWIDTH 960 0
DWIDTH 12 0
BBX 12 12 0 -2
BITMAP
0600
0600
0600
0600
fff0
0600
0600
0600
0600
0600
0600
0600
ENDCHAR
STARTCHAR U5343
ENCODING 21315
SWIDTH 960 0
DWIDTH 12 0
BBX 12 12 0 -2
BITMAP
00c0
0780
7e00
0600
0600
fff0
0600
0600
0600
0600
0600
0600
ENDCHAR
STARTCHAR U5345
ENCODING 21317
SWIDTH 960 0
DWIDTH 12 0
BBX 12 12 0 -2
BITMAP
3660
3660
3660
3660
3660
fff0
3660
3660
3660
6660
6660
c060
ENDCHAR
STARTCHAR U5346
ENCODING 21318
SWIDTH 960 0
DWIDTH 12 0
BBX 12 12 0 -2
BITMAP
0c00
0c00
7f80
1980
1980
31b0
66f0
0600
fff0
0600
0600
0600
ENDCHAR
STARTCHAR U5347
ENCODING 21319
SWIDTH 960 0
DWIDTH 12 0
BBX 12 12 0 -2
BITMAP
0180
0e80
7980
1980
1980
fff0
1980
1980
1980
3180
3180
6180
ENDCHAR
STARTCHAR U5348
ENCODING 21320
SWIDTH 960 0
DWIDTH 12 0
BBX 12 12 0 -2
BITMAP
1800
1800
1fe0
3300
6300
0300
fff0
0300
0300
0300
0300
0300
ENDCHAR
STARTCHAR U5349
ENCODING 21321
SWIDTH 960 0
DWIDTH 12 0
BBX 12 12 0 -2
BITMAP
0600
0600
7fe0
0600
1ac0
1ac0
18c0
fff0
18c0
30c0
30c0
60c0
ENDCHAR
STARTCHAR U534A
ENCODING 21322
SWIDTH 960 0
DWIDTH 12 0
BBX 12 12 0 -2
BITMAP
0600
36c0
1ac0
1a80
7fe0
0600
0600
fff0
0600
0600
0600
0600
ENDCHAR
STARTCHAR U534D
ENCODING 21325
SWIDTH 960 0
DWIDTH 12 0
BBX 12 12 0 -2
BITMAP
0000
7e30
0630
0630
0630
0630
7ff0
6600
6600
6600
6600
67f0
ENDCHAR
STARTCHAR U5351
ENCODING 21329
SWIDTH 960 0
DWIDTH 12 0
BBX 12 12 0 -2
BITMAP
0c00
3fe0
3660
3fe0
3660
3fe0
1b00
3300
fff8
0300
0300
0300
ENDCHAR
STARTCHAR U5352
ENCODING 21330
SWIDTH 960 0
DWIDTH 12 0
BBX 12 12 0 -2
BITMAP
0600
0600
7fe0
1980
1980
3540
6660
fff0
0600
0600
0600
0600
ENDCHAR
STARTCHAR U5353
ENCODING 21331
SWIDTH 960 0
DWIDTH 12 0
BBX 12 12 0 -2
BITMAP
0600
07e0
0600
3fc0
30c0
3fc0
30c0
3fc0
0600
fff0
0600
0600
ENDCHAR
STARTCHAR U5354
ENCODING 21332
SWIDTH 960 0
DWIDTH 12 0
BBX 12 12 0 -2
BITMAP
6300
6fe0
6360
fb60
6660
6dc0
6cc0
7ff0
6ad0
6ad0
76b0
6f70
ENDCHAR
STARTCHAR U5357
ENCODING 21335
SWIDTH 960 0
DWIDTH 12 0
BBX 12 12 0 -2
BITMAP
0600
fff0
0600
0600
7fe0
69a0
6d60
6fa0
6660
6fa0
6660
66e0
ENDCHAR
STARTCHAR U5358
ENCODING 21336
SWIDTH 960 0
DWIDTH 12 0
BBX 12 12 0 -2
BITMAP
3660
1b40
3fc0
36c0
3fc0
36c0
3fc0
0600
fff0
0600
0600
0600
ENDCHAR
STARTCHAR U535A
ENCODING 21338
SWIDTH 960 0
DWIDTH 12 0
BBX 12 12 0 -2
BITMAP
6360
6ff0
6300
6fe0
fb60
6fe0
6b60
7ff0
60c0
6cc0
66c0
61c0
ENDCHAR
STARTCHAR U535C
ENCODING 21340
SWIDTH 960 0
DWIDTH 12 0
BBX 12 12 0 -2
BITMAP
0c00
0c00
0c00
0e00
0d00
0d80
0cc0
0cc0
0c00
0c00
0c00
0c00
ENDCHAR
STARTCHAR U535E
ENCODING 21342
SWIDTH 960 0
DWIDTH 12 0
BBX 12 12 0 -2
BITMAP
0600
0600
fff0
0600
0700
0680
06c0
06c0
0600
0600
0600
0600
ENDCHAR
STARTCHAR U5360
ENCODING 21344
SWIDTH 960 0
DWIDTH 12 0
BBX 12 12 0 -2
BITMAP
0600
0600
0600
07f0
0600
0600
0600
3fc0
30c0
30c0
30c0
3fc0
ENDCHAR
STARTCHAR U5366
ENCODING 21350
SWIDTH 960 0
DWIDTH 12 0
BBX 12 12 0 -2
BITMAP
1980
1980
7e80
1980
fec0
19a0
19b0
7eb0
1980
1f80
f180
0180
ENDCHAR
STARTCHAR U5369
ENCODING 21353
SWIDTH 960 0
DWIDTH 12 0
BBX 12 12 0 -2
BITMAP
0000
1fe0
1860
1860
1860
1860
1860
1860
1bc0
1800
1800
1800
ENDCHAR
STARTCHAR U536E
ENCODING 21358
SWIDTH 960 0
DWIDTH 12 0
BBX 12 12 0 -2
BITMAP
01e0
3f00
3000
3ff0
3000
37c0
34c0
34c0
3580
6c00
6c30
c7f0
ENDCHAR
STARTCHAR U536F
ENCODING 21359
SWIDTH 960 0
DWIDTH 12 0
BBX 12 12 0 -2
BITMAP
0e00
79f0
61b0
6db0
6db0
6db0
6db0
6db0
f5e0
0d80
1980
3180
ENDCHAR
STARTCHAR U5370
ENCODING 21360
SWIDTH 960 0
DWIDTH 12 0
BBX 12 12 0 -2
BITMAP
0c00
7bf0
6330
6330
7d30
6330
6330
6330
7d60
6300
0300
0300
ENDCHAR
STARTCHAR U5371
ENCODING 21361
SWIDTH 960 0
DWIDTH 12 0
BBX 12 12 0 -2
BITMAP
0c00
1f80
7300
0600
3ff0
3000
37c0
34c0
6cc0
6dd0
cc30
07f0
ENDCHAR
STARTCHAR U5373
ENCODING 21363
SWIDTH 960 0
DWIDTH 12 0
BBX 12 12 0 -2
BITMAP
0000
7ef0
66b0
7eb0
66b0
66b0
7eb0
69b0
6de0
7a80
e680
0180
ENDCHAR
STARTCHAR U5374
ENCODING 21364
SWIDTH 960 0
DWIDTH 12 0
BBX 12 12 0 -2
BITMAP
3000
31f0
feb0
31b0
31b0
feb0
31b0
35b0
6ee0
7a80
e680
0180
ENDCHAR
STARTCHAR U5375
ENCODING 21365
SWIDTH 960 0
DWIDTH 12 0
BBX 12 12 0 -2
BITMAP
0e00
79f0
66b0
76b0
6ad0
66b0
66b0
6db0
f5e0
0d80
1980
3180
ENDCHAR
STARTCHAR U5377
ENCODING 21367
SWIDTH 960 0
DWIDTH 12 0
BBX 12 12 0 -2
BITMAP
0600
36c0
3660
7fe0
0d00
fff0
1980
3fc0
e9b0
1b80
1860
0fe0
ENDCHAR
STARTCHAR U5378
ENCODING 21368
SWIDTH 960 0
DWIDTH 12 0
BBX 12 12 0 -2
BITMAP
3000
3ef0
69b0
d9b0
7fb0
19b0
6eb0
69b0
69e0
6e80
f180
0180
ENDCHAR
STARTCHAR U537B
ENCODING 21371
SWIDTH 960 0
DWIDTH 12 0
BBX 12 12 0 -2
BITMAP
1800
35f0
36b0
6ab0
d9b0
35b0
66b0
fdb0
6de0
6d80
6d80
7d80
ENDCHAR
STARTCHAR U537F
ENCODING 21375
SWIDTH 960 0
DWIDTH 12 0
BBX 12 12 0 -2
BITMAP
3000
ef70
cd50
d750
d550
d550
d750
d4d0
f6f0
3540
6ec0
c0c0
ENDCHAR
STARTCHAR U5382
ENCODING 21378
SWIDTH 960 0
DWIDTH 12 0
BBX 12 12 0 -2
BITMAP
0000
3ff0
3000
3000
3000
3000
3000
3000
3000
6000
6000
c000
ENDCHAR
STARTCHAR U5384
ENCODING 21380
SWIDTH 960 0
DWIDTH 12 0
BBX 12 12 0 -2
BITMAP
0000
3ff0
3000
3000
37c0
34c0
34c0
34c0
3580
6c30
6c30
c7f0
ENDCHAR
STARTCHAR U5396
ENCODING 21398
SWIDTH 960 0
DWIDTH 12 0
BBX 12 12 0 -2
BITMAP
0000
7ff0
6d40
6cc0
7fa0
6d60
6ed0
6eb0
6e60
6ac0
dab0
d3f0
ENDCHAR
STARTCHAR U5398
ENCODING 21400
SWIDTH 960 0
DWIDTH 12 0
BBX 12 12 0 -2
BITMAP
0000
7ff0
6000
6fe0
6b60
6fe0
6b60
6fe0
6300
dfe0
c300
7ff0
ENDCHAR
STARTCHAR U539A
ENCODING 21402
SWIDTH 960 0
DWIDTH 12 0
BBX 12 12 0 -2
BITMAP
0000
7ff0
68c0
6fc0
68c0
6fc0
6000
6fc0
6180
7ff0
c300
0700
ENDCHAR
STARTCHAR U539F
ENCODING 21407
SWIDTH 960 0
DWIDTH 12 0
BBX 12 12 0 -2
BITMAP
0000
3ff0
3300
37e0
3460
37e0
3460
37e0
6340
6b60
d330
0700
ENDCHAR
STARTCHAR U53A0
ENCODING 21408
SWIDTH 960 0
DWIDTH 12 0
BBX 12 12 0 -2
BITMAP
0000
7ff0
6000
6f30
6b50
6f50
6b50
6f50
6b50
6f50
da30
d370
ENDCHAR
STARTCHAR U53A5
ENCODING 21413
SWIDTH 960 0
DWIDTH 12 0
BBX 12 12 0 -2
BITMAP
0000
7ff0
7680
6d00
7ff0
6d50
7560
7540
7f60
6da0
cdb0
db18
ENDCHAR
STARTCHAR U53A6
ENCODING 21414
SWIDTH 960 0
DWIDTH 12 0
BBX 12 12 0 -2
BITMAP
0000
7ff0
6000
7fe0
6600
6fc0
6fc0
68c0
6fc0
74c0
c780
dcf0
ENDCHAR
STARTCHAR U53A8
ENCODING 21416
SWIDTH 960 0
DWIDTH 12 0
BBX 12 12 0 -2
BITMAP
0000
7ff0
6000
7f60
6060
7ff8
7660
7f60
76a0
6c60
cf60
d8e0
ENDCHAR
STARTCHAR U53A9
ENCODING 21417
SWIDTH 960 0
DWIDTH 12 0
BBX 12 12 0 -2
BITMAP
7ff0
6000
6ef0
6aa0
6ea0
6bf0
6ec0
69c0
6dc0
6b40
dd50
3a70
ENDCHAR
STARTCHAR U53AD
ENCODING 21421
SWIDTH 960 0
DWIDTH 12 0
BBX 12 12 0 -2
BITMAP
0000
7ff0
6ae0
6ed0
60c0
6ff0
6ac0
6ec0
6aa0
6ea0
daa0
db30
ENDCHAR
STARTCHAR U53AE
ENCODING 21422
SWIDTH 960 0
DWIDTH 12 0
BBX 12 12 0 -2
BITMAP
0000
7ff0
6a60
7fc0
6a80
6ef0
6aa0
6ea0
6aa0
7fa0
dd60
3660
ENDCHAR
STARTCHAR U53B0
ENCODING 21424
SWIDTH 960 0
DWIDTH 12 0
BBX 12 12 0 -2
BITMAP
0000
7ff0
6d80
7a80
69f0
7f60
76a0
7ec0
76c0
7ec0
d760
3630
ENDCHAR
STARTCHAR U53B3
ENCODING 21427
SWIDTH 960 0
DWIDTH 12 0
BBX 12 12 0 -2
BITMAP
3660
1b40
7ff0
6180
6f80
6df0
7f60
6aa0
6f40
6ae0
deb0
0730
ENDCHAR
STARTCHAR U53B6
ENCODING 21430
SWIDTH 960 0
DWIDTH 12 0
BBX 12 12 0 -2
BITMAP
0600
0600
0600
0600
0c00
0c00
0d80
18c0
1860
33f0
fe30
0030
ENDCHAR
STARTCHAR U53BB
ENCODING 21435
SWIDTH 960 0
DWIDTH 12 0
BBX 12 12 0 -2
BITMAP
0600
0600
7fe0
0600
0600
fff0
0600
0d80
0cc0
1bc0
7e60
0060
ENDCHAR
STARTCHAR U53C2
ENCODING 21442
SWIDTH 960 0
DWIDTH 12 0
BBX 12 12 0 -2
BITMAP
0d00
1980
7f40
0600
fff0
1b80
36c0
7ba0
ced0
3980
0700
3c00
ENDCHAR
STARTCHAR U53C3
ENCODING 21443
SWIDTH 960 0
DWIDTH 12 0
BBX 12 12 0 -2
BITMAP
0c00
1980
7fe0
30c0
69b0
faf0
0f00
3dc0
e770
1d80
0700
7c00
ENDCHAR
STARTCHAR U53C8
ENCODING 21448
SWIDTH 960 0
DWIDTH 12 0
BBX 12 12 0 -2
BITMAP
0000
3fc0
00c0
18c0
18c0
0d80
0d80
0700
0700
0d80
38c0
e070
ENDCHAR
STARTCHAR U53C9
ENCODING 21449
SWIDTH 960 0
DWIDTH 12 0
BBX 12 12 0 -2
BITMAP
0000
7fe0
0c60
06c0
1ac0
1980
0d80
0d00
0600
0d00
39c0
e070
ENDCHAR
STARTCHAR U53CA
ENCODING 21450
SWIDTH 960 0
DWIDTH 12 0
BBX 12 12 0 -2
BITMAP
0000
3fc0
0cc0
0d80
0de0
1a60
1a60
1b40
31c0
31c0
6760
dc30
ENDCHAR
STARTCHAR U53CB
ENCODING 21451
SWIDTH 960 0
DWIDTH 12 0
BBX 12 12 0 -2
BITMAP
0c00
0c00
fff0
0c00
0c00
1fc0
18c0
1a80
3300
6780
dcc0
7070
ENDCHAR
STARTCHAR U53CC
ENCODING 21452
SWIDTH 960 0
DWIDTH 12 0
BBX 12 12 0 -2
BITMAP
0000
fdf0
0c30
0d30
6da0
35a0
18c0
1cc0
36a0
3360
6630
cc18
ENDCHAR
STARTCHAR U53CD
ENCODING 21453
SWIDTH 960 0
DWIDTH 12 0
BBX 12 12 0 -2
BITMAP
0000
3fe0
3000
3000
3fc0
30c0
3580
3580
6700
6700
dd80
70e0
ENDCHAR
STARTCHAR U53CE
ENCODING 21454
SWIDTH 960 0
DWIDTH 12 0
BBX 12 12 0 -2
BITMAP
0c00
6fe0
6c60
6e60
6e60
6d40
6d40
6d80
7d80
ed40
0e60
0c30
ENDCHAR
STARTCHAR U53D4
ENCODING 21460
SWIDTH 960 0
DWIDTH 12 0
BBX 12 12 0 -2
BITMAP
3000
37e0
3c60
3660
3340
fd40
3180
3980
d540
d540
d660
7430
ENDCHAR
STARTCHAR U53D6
ENCODING 21462
SWIDTH 960 0
DWIDTH 12 0
BBX 12 12 0 -2
BITMAP
0000
fe00
6df0
6c30
7d30
6da0
7da0
6cc0
7dc0
ed60
0e30
0c18
ENDCHAR
STARTCHAR U53D7
ENCODING 21463
SWIDTH 960 0
DWIDTH 12 0
BBX 12 12 0 -2
BITMAP
01e0
7f60
3660
1b40
fff0
c030
dfb0
1980
0d00
0700
1d80
70e0
ENDCHAR
STARTCHAR U53D9
ENCODING 21465
SWIDTH 960 0
DWIDTH 12 0
BBX 12 12 0 -2
BITMAP
1800
1bf0
3430
6d30
7f30
d6a0
31a0
fcc0
30c0
d5a0
d530
7618
ENDCHAR
STARTCHAR U53DB
ENCODING 21467
SWIDTH 960 0
DWIDTH 12 0
BBX 12 12 0 -2
BITMAP
3000
d5f0
7500
7b00
fff0
3330
3d60
f6a0
66c0
6cc0
cda0
0730
ENDCHAR
STARTCHAR U53DF
ENCODING 21471
SWIDTH 960 0
DWIDTH 12 0
BBX 12 12 0 -2
BITMAP
1a00
f6f0
c630
faf0
c630
fff0
0600
7fe0
1dc0
0700
1d80
70e0
ENDCHAR
STARTCHAR U53E1
ENCODING 21473
SWIDTH 960 0
DWIDTH 12 0
BBX 12 12 0 -2
BITMAP
3c00
33f0
fe30
d6b0
79a0
cea0
30c0
7cc0
eee0
7da0
6d30
7e18
ENDCHAR
STARTCHAR U53E2
ENCODING 21474
SWIDTH 960 0
DWIDTH 12 0
BBX 12 12 0 -2
BITMAP
0d00
3540
fff0
1980
7fe0
0600
fff0
6fc0
7d40
6d80
fd40
0e70
ENDCHAR
STARTCHAR U53E3
ENCODING 21475
SWIDTH 960 0
DWIDTH 12 0
BBX 12 12 0 -2
BITMAP
0000
0000
7ff0
6030
6030
6030
6030
6030
6030
6030
7ff0
6030
ENDCHAR
STARTCHAR U53E4
ENCODING 21476
SWIDTH 960 0
DWIDTH 12 0
BBX 12 12 0 -2
BITMAP
0600
0600
0600
fff0
0600
0600
0600
3fc0
30c0
30c0
30c0
3fc0
ENDCHAR
STARTCHAR U53E5
ENCODING 21477
SWIDTH 960 0
DWIDTH 12 0
BBX 12 12 0 -2
BITMAP
1800
1800
3ff0
3030
6fb0
d9b0
19b0
19b0
1fb0
0030
0030
00e0
ENDCHAR
STARTCHAR U53E8
ENCODING 21480
SWIDTH 960 0
DWIDTH 12 0
BBX 12 12 0 -2
BITMAP
0000
0ff0
f9b0
d9b0
d9b0
d9b0
d9b0
d9b0
db30
fb30
0630
0ce0
ENDCHAR
STARTCHAR U53E9
ENCODING 21481
SWIDTH 960 0
DWIDTH 12 0
BBX 12 12 0 -2
BITMAP
0000
03f0
7d30
6d30
6d30
6d30
6d30
6d30
7d30
6360
0300
0300
ENDCHAR
STARTCHAR U53EA
ENCODING 21482
SWIDTH 960 0
DWIDTH 12 0
BBX 12 12 0 -2
BITMAP
0000
7fc0
60c0
60c0
60c0
60c0
7fc0
0000
1980
18c0
3060
e060
ENDCHAR
STARTCHAR U53EB
ENCODING 21483
SWIDTH 960 0
DWIDTH 12 0
BBX 12 12 0 -2
BITMAP
00c0
fac0
dac0
dac0
dac0
dac0
dac0
daf0
fbc0
cec0
00c0
00c0
ENDCHAR
STARTCHAR U53EC
ENCODING 21484
SWIDTH 960 0
DWIDTH 12 0
BBX 12 12 0 -2
BITMAP
0000
7fe0
0c60
0c60
1860
31c0
6000
3fc0
30c0
30c0
30c0
3fc0
ENDCHAR
STARTCHAR U53ED
ENCODING 21485
SWIDTH 960 0
DWIDTH 12 0
BBX 12 12 0 -2
BITMAP
07c0
f8c0
dac0
dac0
dac0
dac0
dac0
dac0
fcc0
0c60
1860
3030
ENDCHAR
STARTCHAR U53EE
ENCODING 21486
SWIDTH 960 0
DWIDTH 12 0
BBX 12 12 0 -2
BITMAP
0000
0ff0
f980
d980
d980
d980
d980
d980
d980
f980
0180
0380
ENDCHAR
STARTCHAR U53EF
ENCODING 21487
SWIDTH 960 0
DWIDTH 12 0
BBX 12 12 0 -2
BITMAP
0000
fff0
00c0
3f40
3340
3340
3340
3f40
30c0
00c0
00c0
01c0
ENDCHAR
STARTCHAR U53F0
ENCODING 21488
SWIDTH 960 0
DWIDTH 12 0
BBX 12 12 0 -2
BITMAP
0600
0600
0cc0
1860
33e0
fe30
0030
3fe0
3060
3060
3060
3fe0
ENDCHAR
STARTCHAR U53F1
ENCODING 21489
SWIDTH 960 0
DWIDTH 12 0
BBX 12 12 0 -2
BITMAP
0600
0600
fa60
da60
dac0
da80
db00
de00
da00
fa30
0630
03f0
ENDCHAR
STARTCHAR U53F2
ENCODING 21490
SWIDTH 960 0
DWIDTH 12 0
BBX 12 12 0 -2
BITMAP
0600
0600
7fe0
6660
6660
7fe0
3600
1a00
0e00
0d00
39c0
e070
ENDCHAR
STARTCHAR U53F3
ENCODING 21491
SWIDTH 960 0
DWIDTH 12 0
BBX 12 12 0 -2
BITMAP
0c00
0c00
0c00
fff0
0c00
0c00
1800
1fe0
3860
6860
d860
1fe0
ENDCHAR
STARTCHAR U53F6
ENCODING 21494
SWIDTH 960 0
DWIDTH 12 0
BBX 12 12 0 -2
BITMAP
0180
0180
f980
d980
dff0
d980
d980
d980
d980
f980
0180
0180
ENDCHAR
STARTCHAR U53F7
ENCODING 21495
SWIDTH 960 0
DWIDTH 12 0
BBX 12 12 0 -2
BITMAP
0000
3fc0
30c0
3fc0
0000
fff0
1800
1fc0
30c0
00c0
00c0
0380
ENDCHAR
STARTCHAR U53F8
ENCODING 21496
SWIDTH 960 0
DWIDTH 12 0
BBX 12 12 0 -2
BITMAP
0000
7ff0
0030
3fd0
0030
1fb0
19b0
19b0
1fb0
0030
0030
00e0
ENDCHAR
STARTCHAR U53FA
ENCODING 21498
SWIDTH 960 0
DWIDTH 12 0
BBX 12 12 0 -2
BITMAP
0380
0180
f980
d980
d980
d980
db80
db40
fac0
0660
0c60
3830
ENDCHAR
STARTCHAR U5401
ENCODING 21505
SWIDTH 960 0
DWIDTH 12 0
BBX 12 12 0 -2
BITMAP
0000
0fe0
f980
d980
d980
dff0
d980
d980
f980
0180
0180
0380
ENDCHAR
STARTCHAR U5403
ENCODING 21507
SWIDTH 960 0
DWIDTH 12 0
BBX 12 12 0 -2
BITMAP
0600
0600
fbf0
dc00
d800
dfe0
d8c0
db80
fa00
0c30
0c30
07f0
ENDCHAR
STARTCHAR U5404
ENCODING 21508
SWIDTH 960 0
DWIDTH 12 0
BBX 12 12 0 -2
BITMAP
0c00
0fc0
18c0
3580
6700
0d80
18c0
3fe0
e8d0
18c0
18c0
1fc0
ENDCHAR
STARTCHAR U5408
ENCODING 21512
SWIDTH 960 0
DWIDTH 12 0
BBX 12 12 0 -2
BITMAP
0600
0600
0d00
1980
3fc0
e070
0000
3fc0
30c0
30c0
30c0
3fc0
ENDCHAR
STARTCHAR U5409
ENCODING 21513
SWIDTH 960 0
DWIDTH 12 0
BBX 12 12 0 -2
BITMAP
0600
0600
fff0
0600
0600
7fe0
0000
3fc0
30c0
30c0
30c0
3fc0
ENDCHAR
STARTCHAR U540A
ENCODING 21514
SWIDTH 960 0
DWIDTH 12 0
BBX 12 12 0 -2
BITMAP
0000
3fc0
30c0
30c0
3fc0
0600
7fe0
6660
6660
6660
66c0
0600
ENDCHAR
STARTCHAR U540B
ENCODING 21515
SWIDTH 960 0
DWIDTH 12 0
BBX 12 12 0 -2
BITMAP
00c0
00c0
f8c0
dff0
d8c0
dac0
db40
db40
d8c0
f8c0
00c0
01c0
ENDCHAR
STARTCHAR U540C
ENCODING 21516
SWIDTH 960 0
DWIDTH 12 0
BBX 12 12 0 -2
BITMAP
0000
7ff0
6030
6030
6fd0
6030
6fd0
68d0
68d0
6fd0
6030
6070
ENDCHAR
STARTCHAR U540D
ENCODING 21517
SWIDTH 960 0
DWIDTH 12 0
BBX 12 12 0 -2
BITMAP
0600
0600
0fc0
18c0
3580
6700
0600
0ff0
3c30
ec30
0c30
0ff0
ENDCHAR
STARTCHAR U540E
ENCODING 21518
SWIDTH 960 0
DWIDTH 12 0
BBX 12 12 0 -2
BITMAP
01e0
3f00
3000
3000
3ff0
3000
3000
37e0
6c60
6c60
cc60
0fe0
ENDCHAR
STARTCHAR U540F
ENCODING 21519
SWIDTH 960 0
DWIDTH 12 0
BBX 12 12 0 -2
BITMAP
0600
7ff0
0600
3fe0
3660
3660
3fe0
1a00
0e00
0d00
39c0
e070
ENDCHAR
STARTCHAR U5410
ENCODING 21520
SWIDTH 960 0
DWIDTH 12 0
BBX 12 12 0 -2
BITMAP
0180
0180
f980
d980
dff0
d980
d980
d980
f980
0180
1ff0
0000
ENDCHAR
STARTCHAR U5411
ENCODING 21521
SWIDTH 960 0
DWIDTH 12 0
BBX 12 12 0 -2
BITMAP
0600
0c00
1800
7ff0
6030
6030
6fb0
6db0
6db0
6fb0
6030
6070
ENDCHAR
STARTCHAR U541B
ENCODING 21531
SWIDTH 960 0
DWIDTH 12 0
BBX 12 12 0 -2
BITMAP
0000
7fc0
0cc0
fff0
0cc0
0cc0
7fc0
1800
3fc0
68c0
d8c0
1fc0
ENDCHAR
STARTCHAR U541D
ENCODING 21533
SWIDTH 960 0
DWIDTH 12 0
BBX 12 12 0 -2
BITMAP
0600
fff0
3180
1b00
0e00
0d00
39c0
e070
3fc0
30c0
30c0
3fc0
ENDCHAR
STARTCHAR U541F
ENCODING 21535
SWIDTH 960 0
DWIDTH 12 0
BBX 12 12 0 -2
BITMAP
0300
0380
f680
d6c0
d7e0
d830
d000
d7e0
d0c0
f0c0
0180
0300
ENDCHAR
STARTCHAR U5420
ENCODING 21536
SWIDTH 960 0
DWIDTH 12 0
BBX 12 12 0 -2
BITMAP
0300
f340
d360
d300
dff0
d300
d300
d680
f680
0cc0
1860
7030
ENDCHAR
STARTCHAR U5426
ENCODING 21542
SWIDTH 960 0
DWIDTH 12 0
BBX 12 12 0 -2
BITMAP
0000
7ff0
0700
0ec0
3a60
e630
0600
3fe0
3060
3060
3060
3fe0
ENDCHAR
STARTCHAR U5429
ENCODING 21545
SWIDTH 960 0
DWIDTH 12 0
BBX 12 12 0 -2
BITMAP
0380
0d80
f580
d4c0
d860
dfd0
d6c0
d6c0
f6c0
0cc0
0cc0
1b80
ENDCHAR
STARTCHAR U542B
ENCODING 21547
SWIDTH 960 0
DWIDTH 12 0
BBX 12 12 0 -2
BITMAP
0600
0d00
1980
3740
e070
7fc0
0300
0600
3fc0
30c0
30c0
3fc0
ENDCHAR
STARTCHAR U542C
ENCODING 21548
SWIDTH 960 0
DWIDTH 12 0
BBX 12 12 0 -2
BITMAP
00e0
fb80
da00
da00
dbf0
dac0
dac0
dac0
fac0
0cc0
0cc0
18c0
ENDCHAR
STARTCHAR U542D
ENCODING 21549
SWIDTH 960 0
DWIDTH 12 0
BBX 12 12 0 -2
BITMAP
0300
fb00
dff0
d800
dbc0
dac0
dac0
dac0
fac0
06d0
0cd0
1870
ENDCHAR
STARTCHAR U542E
ENCODING 21550
SWIDTH 960 0
DWIDTH 12 0
BBX 12 12 0 -2
BITMAP
0300
0340
fb60
da70
dfd0
db40
db40
db40
dac0
fad0
0cd0
1870
ENDCHAR
STARTCHAR U5436
ENCODING 21558
SWIDTH 960 0
DWIDTH 12 0
BBX 12 12 0 -2
BITMAP
0180
0180
f7f0
d5b0
d5b0
d5b0
d550
d670
f430
0c30
0c30
0c70
ENDCHAR
STARTCHAR U5438
ENCODING 21560
SWIDTH 960 0
DWIDTH 12 0
BBX 12 12 0 -2
BITMAP
0000
0fe0
fb60
db40
db70
db30
dbb0
daa0
fac0
06e0
0db0
1b18
ENDCHAR
STARTCHAR U5439
ENCODING 21561
SWIDTH 960 0
DWIDTH 12 0
BBX 12 12 0 -2
BITMAP
0300
0300
fbf0
da30
daa0
dd80
d980
d980
fb40
0340
0660
1c30
ENDCHAR
STARTCHAR U543B
ENCODING 21563
SWIDTH 960 0
DWIDTH 12 0
BBX 12 12 0 -2
BITMAP
0600
0600
f7f0
d750
d550
d550
db50
d6b0
d6b0
f5b0
0330
06e0
ENDCHAR
STARTCHAR U543C
ENCODING 21564
SWIDTH 960 0
DWIDTH 12 0
BBX 12 12 0 -2
BITMAP
00c0
1fc0
f340
d6c0
d6c0
d7c0
dec0
d6c0
d6c0
f6d0
06d0
0e70
ENDCHAR
STARTCHAR U543D
ENCODING 21565
SWIDTH 960 0
DWIDTH 12 0
BBX 12 12 0 -2
BITMAP
0180
0680
f680
d7f0
d580
d980
dff0
d180
d180
f180
0180
0180
ENDCHAR
STARTCHAR U543E
ENCODING 21566
SWIDTH 960 0
DWIDTH 12 0
BBX 12 12 0 -2
BITMAP
7fe0
0c00
0c00
7fc0
18c0
18c0
fff0
0000
3fc0
30c0
30c0
3fc0
ENDCHAR
STARTCHAR U5440
ENCODING 21568
SWIDTH 960 0
DWIDTH 12 0
BBX 12 12 0 -2
BITMAP
0000
0ff0
fac0
dac0
dac0
dff0
db40
db40
fac0
0cc0
18c0
01c0
ENDCHAR
STARTCHAR U5442
ENCODING 21570
SWIDTH 960 0
DWIDTH 12 0
BBX 12 12 0 -2
BITMAP
0000
3fc0
30c0
30c0
3fc0
0600
0c00
7fe0
6060
6060
6060
7fe0
ENDCHAR
STARTCHAR U5446
ENCODING 21574
SWIDTH 960 0
DWIDTH 12 0
BBX 12 12 0 -2
BITMAP
0000
3fc0
30c0
30c0
3fc0
0600
fff0
0f00
3ac0
e670
0600
0600
ENDCHAR
STARTCHAR U5448
ENCODING 21576
SWIDTH 960 0
DWIDTH 12 0
BBX 12 12 0 -2
BITMAP
0000
3fc0
30c0
30c0
3fc0
0000
7fe0
0600
3fc0
0600
0600
fff0
ENDCHAR
STARTCHAR U5449
ENCODING 21577
SWIDTH 960 0
DWIDTH 12 0
BBX 12 12 0 -2
BITMAP
1fc0
68c0
68c0
6fc0
6000
7fc0
60c0
00c0
fff0
1b00
31c0
e060
ENDCHAR
STARTCHAR U544A
ENCODING 21578
SWIDTH 960 0
DWIDTH 12 0
BBX 12 12 0 -2
BITMAP
0600
3600
3600
3fe0
3600
6600
fff0
0000
3fc0
30c0
30c0
3fc0
ENDCHAR
STARTCHAR U544E
ENCODING 21582
SWIDTH 960 0
DWIDTH 12 0
BBX 12 12 0 -2
BITMAP
0000
07f0
fa30
da30
dbf0
db00
da80
da80
fcc0
0cc0
1860
3030
ENDCHAR
STARTCHAR U5451
ENCODING 21585
SWIDTH 960 0
DWIDTH 12 0
BBX 12 12 0 -2
BITMAP
01e0
7f00
0600
0600
fff0
0d00
1980
3fc0
e9b0
1980
1980
1f80
ENDCHAR
STARTCHAR U545F
ENCODING 21599
SWIDTH 960 0
DWIDTH 12 0
BBX 12 12 0 -2
BITMAP
0180
0180
f7f0
d180
d180
d560
d660
d340
d1a0
f730
1ff0
0030
ENDCHAR
STARTCHAR U5468
ENCODING 21608
SWIDTH 960 0
DWIDTH 12 0
BBX 12 12 0 -2
BITMAP
0000
7fe0
6660
6fa0
6660
7fe0
6060
6fa0
69a0
6fa0
c060
c0e0
ENDCHAR
STARTCHAR U546A
ENCODING 21610
SWIDTH 960 0
DWIDTH 12 0
BBX 12 12 0 -2
BITMAP
0000
07e0
fa60
da60
da60
dbe0
db40
db40
fac0
06d0
0cd0
3870
ENDCHAR
STARTCHAR U5470
ENCODING 21616
SWIDTH 960 0
DWIDTH 12 0
BBX 12 12 0 -2
BITMAP
1b00
6b70
6fc0
6b00
6b30
6f30
f1f0
0000
3fc0
30c0
30c0
3fc0
ENDCHAR
STARTCHAR U5471
ENCODING 21617
SWIDTH 960 0
DWIDTH 12 0
BBX 12 12 0 -2
BITMAP
00e0
0f80
f540
d540
d540
d540
d540
d540
f5a0
1b60
1fd0
30d8
ENDCHAR
STARTCHAR U5473
ENCODING 21619
SWIDTH 960 0
DWIDTH 12 0
BBX 12 12 0 -2
BITMAP
0300
0300
f7e0
d300
d300
dff0
d300
d780
d540
fb70
0300
0300
ENDCHAR
STARTCHAR U5475
ENCODING 21621
SWIDTH 960 0
DWIDTH 12 0
BBX 12 12 0 -2
BITMAP
0000
1ff0
f060
d7a0
d5a0
d5a0
d5a0
d7a0
d460
f060
0060
00e0
ENDCHAR
STARTCHAR U5476
ENCODING 21622
SWIDTH 960 0
DWIDTH 12 0
BBX 12 12 0 -2
BITMAP
0600
06f0
f630
dfb0
d550
d550
d550
dd60
d660
f550
19b0
3318
ENDCHAR
STARTCHAR U5477
ENCODING 21623
SWIDTH 960 0
DWIDTH 12 0
BBX 12 12 0 -2
BITMAP
0000
0ff0
f5b0
d7f0
d5b0
d5b0
d7f0
d580
f180
c180
0180
0180
ENDCHAR
STARTCHAR U547B
ENCODING 21627
SWIDTH 960 0
DWIDTH 12 0
BBX 12 12 0 -2
BITMAP
0180
0180
f7f0
d5b0
d7f0
d5b0
d5b0
d7f0
f580
c180
0180
0180
ENDCHAR
STARTCHAR U547C
ENCODING 21628
SWIDTH 960 0
DWIDTH 12 0
BBX 12 12 0 -2
BITMAP
00e0
1f80
f360
db60
d540
d500
dff0
d300
f300
0300
0300
0700
ENDCHAR
STARTCHAR U547D
ENCODING 21629
SWIDTH 960 0
DWIDTH 12 0
BBX 12 12 0 -2
BITMAP
0600
0d00
1980
3f40
e070
7de0
6d60
6d60
6d60
7dc0
0300
0300
ENDCHAR
STARTCHAR U5480
ENCODING 21632
SWIDTH 960 0
DWIDTH 12 0
BBX 12 12 0 -2
BITMAP
0000
07e0
fa60
da60
dbe0
da60
da60
dbe0
fa60
c660
0660
1ff0
ENDCHAR
STARTCHAR U5484
ENCODING 21636
SWIDTH 960 0
DWIDTH 12 0
BBX 12 12 0 -2
BITMAP
0180
0db0
f5b0
d5b0
d5b0
d7f0
d180
d5b0
d5b0
f5b0
0db0
0ff0
ENDCHAR
STARTCHAR U5486
ENCODING 21638
SWIDTH 960 0
DWIDTH 12 0
BBX 12 12 0 -2
BITMAP
0600
0600
f7f0
d430
d7d0
dad0
d6d0
d7d0
d660
f600
0630
03f0
ENDCHAR
STARTCHAR U548B
ENCODING 21643
SWIDTH 960 0
DWIDTH 12 0
BBX 12 12 0 -2
BITMAP
0300
0300
fbf8
da80
da80
ddf0
d980
d980
d9f0
f980
0180
0180
ENDCHAR
STARTCHAR U548C
ENCODING 21644
SWIDTH 960 0
DWIDTH 12 0
BBX 12 12 0 -2
BITMAP
0e00
7800
1bf0
1b30
ff30
1b30
3d30
3b30
6b30
6b30
dbf0
1800
ENDCHAR
STARTCHAR U548E
ENCODING 21646
SWIDTH 960 0
DWIDTH 12 0
BBX 12 12 0 -2
BITMAP
30c0
3cc0
34c0
75c0
db60
3630
63f0
c000
3fc0
30c0
30c0
3fc0
ENDCHAR
STARTCHAR U548F
ENCODING 21647
SWIDTH 960 0
DWIDTH 12 0
BBX 12 12 0 -2
BITMAP
0180
00c0
f780
d1b0
d1a0
dfc0
d3c0
d3a0
d6b0
f598
1980
0380
ENDCHAR
STARTCHAR U5490
ENCODING 21648
SWIDTH 960 0
DWIDTH 12 0
BBX 12 12 0 -2
BITMAP
0660
0660
f660
d5f0
d460
dd60
d5a0
d5a0
d460
f460
0c60
0ce0
ENDCHAR
STARTCHAR U5492
ENCODING 21650
SWIDTH 960 0
DWIDTH 12 0
BBX 12 12 0 -2
BITMAP
0000
7de0
6d60
6d60
7de0
0000
1f00
1b00
1b00
1b30
3330
61f0
ENDCHAR
STARTCHAR U54A2
ENCODING 21666
SWIDTH 960 0
DWIDTH 12 0
BBX 12 12 0 -2
BITMAP
7de0
6d60
6d60
7de0
0000
3fc0
0000
fff0
0c00
1fc0
30c0
0780
ENDCHAR
STARTCHAR U54A4
ENCODING 21668
SWIDTH 960 0
DWIDTH 12 0
BBX 12 12 0 -2
BITMAP
0300
1ff0
f830
d9d0
d700
d300
d3f0
df00
d300
f300
0330
01f0
ENDCHAR
STARTCHAR U54A5
ENCODING 21669
SWIDTH 960 0
DWIDTH 12 0
BBX 12 12 0 -2
BITMAP
0000
1ff0
f300
d6c0
dfe0
d360
d300
dfe0
d300
f300
0300
3ff0
ENDCHAR
STARTCHAR U54A8
ENCODING 21672
SWIDTH 960 0
DWIDTH 12 0
BBX 12 12 0 -2
BITMAP
0600
0600
f7f0
0da0
1980
3b40
e660
0c30
3fc0
30c0
30c0
3fc0
ENDCHAR
STARTCHAR U54AB
ENCODING 21675
SWIDTH 960 0
DWIDTH 12 0
BBX 12 12 0 -2
BITMAP
0000
7df0
6d30
6d30
7d30
73f0
70c0
69a0
69b0
6d30
c700
c1f8
ENDCHAR
STARTCHAR U54AC
ENCODING 21676
SWIDTH 960 0
DWIDTH 12 0
BBX 12 12 0 -2
BITMAP
0300
0300
fff0
d6c0
d6c0
d460
dad0
d680
f300
c680
0cc0
3870
ENDCHAR
STARTCHAR U54AF
ENCODING 21679
SWIDTH 960 0
DWIDTH 12 0
BBX 12 12 0 -2
BITMAP
0180
01e0
fb60
db60
ddc0
d9a0
db30
dbe8
dd60
fb60
0360
03e0
ENDCHAR
STARTCHAR U54B2
ENCODING 21682
SWIDTH 960 0
DWIDTH 12 0
BBX 12 12 0 -2
BITMAP
0cc0
06c0
f680
d7e0
d300
d300
dff0
d300
f380
06c0
0c60
3830
ENDCHAR
STARTCHAR U54B3
ENCODING 21683
SWIDTH 960 0
DWIDTH 12 0
BBX 12 12 0 -2
BITMAP
0180
0180
fff0
d980
db60
db40
d980
db60
dec0
fbc0
0760
1c30
ENDCHAR
STARTCHAR U54B8
ENCODING 21688
SWIDTH 960 0
DWIDTH 12 0
BBX 12 12 0 -2
BITMAP
01c0
01a0
7ff0
6180
6eb0
61b0
6ea0
6aa0
6ac0
6ed0
c1b0
c330
ENDCHAR
STARTCHAR U54BC
ENCODING 21692
SWIDTH 960 0
DWIDTH 12 0
BBX 12 12 0 -2
BITMAP
0000
1fc0
18c0
1bc0
1ac0
7ff0
6030
6fd0
68d0
6fd0
6830
6070
ENDCHAR
STARTCHAR U54BD
ENCODING 21693
SWIDTH 960 0
DWIDTH 12 0
BBX 12 12 0 -2
BITMAP
0000
0ff0
f5b0
d5b0
d7f0
d5b0
d5b0
d5d0
d570
f570
0e30
0ff0
ENDCHAR
STARTCHAR U54BE
ENCODING 21694
SWIDTH 960 0
DWIDTH 12 0
BBX 12 12 0 -2
BITMAP
0300
0300
f7e0
d360
d340
dff0
d300
d6e0
df80
f600
0660
03e0
ENDCHAR
STARTCHAR U54C0
ENCODING 21696
SWIDTH 960 0
DWIDTH 12 0
BBX 12 12 0 -2
BITMAP
0600
fff0
0000
3fc0
30c0
30c0
3fc0
0c60
3ac0
eb00
1ec0
7870
ENDCHAR
STARTCHAR U54C1
ENCODING 21697
SWIDTH 960 0
DWIDTH 12 0
BBX 12 12 0 -2
BITMAP
0000
3f80
3180
3180
3180
3f80
0000
fdf0
cd30
cd30
cd30
fdf0
ENDCHAR
STARTCHAR U54C2
ENCODING 21698
SWIDTH 960 0
DWIDTH 12 0
BBX 12 12 0 -2
BITMAP
0000
0ff0
f340
d340
d7f0
d550
d550
d6f0
f430
cc30
0ff0
0c00
ENDCHAR
STARTCHAR U54C4
ENCODING 21700
SWIDTH 960 0
DWIDTH 12 0
BBX 12 12 0 -2
BITMAP
06c0
06c0
f6c0
d7e0
d6c0
d6c0
d6c0
dff0
d680
f6c0
0c60
1860
ENDCHAR
STARTCHAR U54C7
ENCODING 21703
SWIDTH 960 0
DWIDTH 12 0
BBX 12 12 0 -2
BITMAP
0180
0180
f7e0
d180
d180
dff0
d180
d180
d7e0
f180
0180
1ff0
ENDCHAR
STARTCHAR U54C8
ENCODING 21704
SWIDTH 960 0
DWIDTH 12 0
BBX 12 12 0 -2
BITMAP
0180
0180
fb40
db40
da60
ddd0
d800
dbe0
fa60
0660
0660
07e0
ENDCHAR
STARTCHAR U54C9
ENCODING 21705
SWIDTH 960 0
DWIDTH 12 0
BBX 12 12 0 -2
BITMAP
1980
7ec0
19a0
1980
fff0
0180
7da0
6da0
6cc0
6dd0
7d70
0630
ENDCHAR
STARTCHAR U54D8
ENCODING 21720
SWIDTH 960 0
DWIDTH 12 0
BBX 12 12 0 -2
BITMAP
0600
06f0
f400
da00
d6f8
d460
dc60
d460
d460
f460
0c60
0ce0
ENDCHAR
STARTCHAR U54E1
ENCODING 21729
SWIDTH 960 0
DWIDTH 12 0
BBX 12 12 0 -2
BITMAP
1fc0
18c0
1fc0
3fe0
3060
3fe0
3060
3fe0
3060
3fe0
1dc0
7070
ENDCHAR
STARTCHAR U54E2
ENCODING 21730
SWIDTH 960 0
DWIDTH 12 0
BBX 12 12 0 -2
BITMAP
0000
1ff0
f180
d7e0
d180
dff0
d6c0
d6c0
dff0
f6c0
0cc0
18c0
ENDCHAR
STARTCHAR U54E5
ENCODING 21733
SWIDTH 960 0
DWIDTH 12 0
BBX 12 12 0 -2
BITMAP
0000
7fe0
3f40
3340
3f40
00c0
fff0
00c0
3f40
3340
3f40
01c0
ENDCHAR
STARTCHAR U54E6
ENCODING 21734
SWIDTH 960 0
DWIDTH 12 0
BBX 12 12 0 -2
BITMAP
0340
1ee0
f6d0
d6c0
dff0
d6d0
d750
d6e0
dac0
f6d0
0770
0e30
ENDCHAR
STARTCHAR U54E8
ENCODING 21736
SWIDTH 960 0
DWIDTH 12 0
BBX 12 12 0 -2
BITMAP
0300
1b60
f540
d7e0
d460
d460
d7e0
d460
d7e0
f460
0c60
0ce0
ENDCHAR
STARTCHAR U54E9
ENCODING 21737
SWIDTH 960 0
DWIDTH 12 0
BBX 12 12 0 -2
BITMAP
0000
f7f0
d5b0
d7f0
d5b0
d5b0
d7f0
d180
f7f0
c180
0180
1ff8
ENDCHAR
STARTCHAR U54ED
ENCODING 21741
SWIDTH 960 0
DWIDTH 12 0
BBX 12 12 0 -2
BITMAP
0000
fdf0
cd30
cd30
fdf0
06c0
0660
fff0
0600
0d00
39c0
e070
ENDCHAR
STARTCHAR U54EE
ENCODING 21742
SWIDTH 960 0
DWIDTH 12 0
BBX 12 12 0 -2
BITMAP
0300
0340
ffe0
d340
dff0
d300
d7e0
d5c0
d980
f7f0
0180
0380
ENDCHAR
STARTCHAR U54F2
ENCODING 21746
SWIDTH 960 0
DWIDTH 12 0
BBX 12 12 0 -2
BITMAP
3070
37c0
fa00
37f0
3ac0
f6c0
34c0
70c0
3fc0
30c0
30c0
3fc0
ENDCHAR
STARTCHAR U54FA
ENCODING 21754
SWIDTH 960 0
DWIDTH 12 0
BBX 12 12 0 -2
BITMAP
01a0
01b0
fff8
d180
d7f0
d5b0
d7f0
d5b0
d7f0
f5b0
0db0
0db0
ENDCHAR
STARTCHAR U54FD
ENCODING 21757
SWIDTH 960 0
DWIDTH 12 0
BBX 12 12 0 -2
BITMAP
0000
1ff0
f180
d7e0
d5a0
d7e0
d5a0
d7e0
d680
f300
0ec0
3870
ENDCHAR
STARTCHAR U5504
ENCODING 21764
SWIDTH 960 0
DWIDTH 12 0
BBX 12 12 0 -2
BITMAP
0000
07e0
fa60
da60
dbe0
da60
dbe0
da60
da60
fbe0
0360
0e30
ENDCHAR
STARTCHAR U5506
ENCODING 21766
SWIDTH 960 0
DWIDTH 12 0
BBX 12 12 0 -2
BITMAP
0180
0360
ffd0
db40
db50
daf0
dd00
dbe0
db60
fdc0
0760
1c30
ENDCHAR
STARTCHAR U5507
ENCODING 21767
SWIDTH 960 0
DWIDTH 12 0
BBX 12 12 0 -2
BITMAP
0000
7ff0
6000
6ff0
6d60
6dc0
6d40
de70
3fe0
3060
3060
3fe0
ENDCHAR
STARTCHAR U550F
ENCODING 21775
SWIDTH 960 0
DWIDTH 12 0
BBX 12 12 0 -2
BITMAP
0760
01c0
f760
d180
dff8
d680
d7f0
d6b0
fab0
36b0
06b0
0180
ENDCHAR
STARTCHAR U5510
ENCODING 21776
SWIDTH 960 0
DWIDTH 12 0
BBX 12 12 0 -2
BITMAP
0300
7ff0
6300
6fe0
6360
7ff0
6360
6fe0
6000
6fe0
d860
1fe0
ENDCHAR
STARTCHAR U5514
ENCODING 21780
SWIDTH 960 0
DWIDTH 12 0
BBX 12 12 0 -2
BITMAP
0000
0ff0
f980
dbe0
db60
db60
dff8
d800
dbe0
fa60
0660
07e0
ENDCHAR
STARTCHAR U5516
ENCODING 21782
SWIDTH 960 0
DWIDTH 12 0
BBX 12 12 0 -2
BITMAP
0000
1ff0
f340
d340
d7f0
d550
d550
d550
d7f0
f340
0340
1ff0
ENDCHAR
STARTCHAR U552E
ENCODING 21806
SWIDTH 960 0
DWIDTH 12 0
BBX 12 12 0 -2
BITMAP
1980
1b00
3ff0
7300
dfe0
3300
3fe0
3300
3ff0
3060
3060
3fe0
ENDCHAR
STARTCHAR U552F
ENCODING 21807
SWIDTH 960 0
DWIDTH 12 0
BBX 12 12 0 -2
BITMAP
06c0
f580
d7f0
dd80
d580
d7e0
d580
d580
d7e0
f580
0d80
0ff0
ENDCHAR
STARTCHAR U5531
ENCODING 21809
SWIDTH 960 0
DWIDTH 12 0
BBX 12 12 0 -2
BITMAP
0000
07e0
f660
d7e0
d660
d7e0
d000
d7f0
f430
0ff0
0c30
0ff0
ENDCHAR
STARTCHAR U5533
ENCODING 21811
SWIDTH 960 0
DWIDTH 12 0
BBX 12 12 0 -2
BITMAP
0000
1ff0
f000
d7f0
d430
d7f0
d580
d7f0
f980
1b40
3660
1c30
ENDCHAR
STARTCHAR U5538
ENCODING 21816
SWIDTH 960 0
DWIDTH 12 0
BBX 12 12 0 -2
BITMAP
0300
f380
d6c0
d7a0
d830
d7e0
d0c0
d380
fa80
1a60
36d0
03c0
ENDCHAR
STARTCHAR U5539
ENCODING 21817
SWIDTH 960 0
DWIDTH 12 0
BBX 12 12 0 -2
BITMAP
0cc0
0cc0
ff60
d4e0
d5b0
d758
d560
d530
f540
1b60
3330
0e30
ENDCHAR
STARTCHAR U553E
ENCODING 21822
SWIDTH 960 0
DWIDTH 12 0
BBX 12 12 0 -2
BITMAP
00e0
0f80
f180
d7f0
d6a0
dff8
d6a0
d6a0
d7f0
f180
0180
1ff0
ENDCHAR
STARTCHAR U5540
ENCODING 21824
SWIDTH 960 0
DWIDTH 12 0
BBX 12 12 0 -2
BITMAP
0000
0ff0
f4c0
d5e0
d4c0
d7f0
d4c0
d4c0
f5e0
18c0
18c0
37f0
ENDCHAR
STARTCHAR U5544
ENCODING 21828
SWIDTH 960 0
DWIDTH 12 0
BBX 12 12 0 -2
BITMAP
0000
1ff0
f300
d700
ddb0
d360
d6c0
dde0
f350
ced8
38c0
0380
ENDCHAR
STARTCHAR U5545
ENCODING 21829
SWIDTH 960 0
DWIDTH 12 0
BBX 12 12 0 -2
BITMAP
0300
03f0
f300
d7e0
d460
d7e0
d460
d7e0
d300
fff0
0300
0300
ENDCHAR
STARTCHAR U5546
ENCODING 21830
SWIDTH 960 0
DWIDTH 12 0
BBX 12 12 0 -2
BITMAP
0600
fff8
18c0
0d80
7ff0
6db0
69b0
77f0
6db0
6db0
6fb0
6070
ENDCHAR
STARTCHAR U554C
ENCODING 21836
SWIDTH 960 0
DWIDTH 12 0
BBX 12 12 0 -2
BITMAP
0300
1ff0
fab0
dab0
d680
d4f0
d800
d7e0
d300
f300
0300
1ff0
ENDCHAR
STARTCHAR U554F
ENCODING 21839
SWIDTH 960 0
DWIDTH 12 0
BBX 12 12 0 -2
BITMAP
fdf0
cd30
fdf0
cd30
fdf0
c030
dfb0
d9b0
d9b0
dfb0
c030
c070
ENDCHAR
STARTCHAR U5553
ENCODING 21843
SWIDTH 960 0
DWIDTH 12 0
BBX 12 12 0 -2
BITMAP
fd00
03f0
7d60
6ea0
7cc0
61a0
6730
c000
3fc0
30c0
30c0
3fc0
ENDCHAR
STARTCHAR U5556
ENCODING 21846
SWIDTH 960 0
DWIDTH 12 0
BBX 12 12 0 -2
BITMAP
0300
0360
f540
db80
d6c0
dd70
d300
d360
f540
1b80
0ec0
3870
ENDCHAR
STARTCHAR U5557
ENCODING 21847
SWIDTH 960 0
DWIDTH 12 0
BBX 12 12 0 -2
BITMAP
0300
03f0
fb30
da30
dce0
d980
db70
da30
dbb0
fa30
0630
07f0
ENDCHAR
STARTCHAR U555C
ENCODING 21852
SWIDTH 960 0
DWIDTH 12 0
BBX 12 12 0 -2
BITMAP
0000
1ff0
f550
d760
d6d0
d598
d7f0
d1b0
d550
f660
0d50
1998
ENDCHAR
STARTCHAR U555D
ENCODING 21853
SWIDTH 960 0
DWIDTH 12 0
BBX 12 12 0 -2
BITMAP
0380
1e00
f6f0
d6d0
dfd0
d6d0
d750
d770
fac0
3670
0600
0600
ENDCHAR
STARTCHAR U5563
ENCODING 21859
SWIDTH 960 0
DWIDTH 12 0
BBX 12 12 0 -2
BITMAP
0c00
0cf0
f7d0
db50
d7d0
d350
d5d0
d550
d550
f5e0
1ec0
00c0
ENDCHAR
STARTCHAR U557B
ENCODING 21883
SWIDTH 960 0
DWIDTH 12 0
BBX 12 12 0 -2
BITMAP
0600
7fe0
1980
fff0
c630
3fc0
36c0
3780
0600
7fe0
6060
7fe0
ENDCHAR
STARTCHAR U557C
ENCODING 21884
SWIDTH 960 0
DWIDTH 12 0
BBX 12 12 0 -2
BITMAP
0300
1fe0
f4c0
d680
dff0
db30
dff0
d560
d560
f560
0d60
0300
ENDCHAR
STARTCHAR U557E
ENCODING 21886
SWIDTH 960 0
DWIDTH 12 0
BBX 12 12 0 -2
BITMAP
0740
1ec0
f6d0
dfd0
d6e0
d740
d6c0
dac0
d6a0
f6a0
0730
0618
ENDCHAR
STARTCHAR U5580
ENCODING 21888
SWIDTH 960 0
DWIDTH 12 0
BBX 12 12 0 -2
BITMAP
0180
1ff0
fb30
dbd0
d6c0
d580
d340
d660
dff0
f660
0660
07e0
ENDCHAR
STARTCHAR U5583
ENCODING 21891
SWIDTH 960 0
DWIDTH 12 0
BBX 12 12 0 -2
BITMAP
0180
0180
fff0
d180
d7f0
d6d0
d5b0
d7f0
d5b0
f7f0
0db0
0db0
ENDCHAR
STARTCHAR U5584
ENCODING 21892
SWIDTH 960 0
DWIDTH 12 0
BBX 12 12 0 -2
BITMAP
1980
7fe0
0600
3fc0
0600
7fe0
36c0
fff0
0000
3fc0
30c0
3fc0
ENDCHAR
STARTCHAR U5587
ENCODING 21895
SWIDTH 960 0
DWIDTH 12 0
BBX 12 12 0 -2
BITMAP
0c30
0c30
ff50
d4d0
df50
d550
d550
df50
f6d0
dd30
3430
0c70
ENDCHAR
STARTCHAR U5589
ENCODING 21897
SWIDTH 960 0
DWIDTH 12 0
BBX 12 12 0 -2
BITMAP
0600
07e0
f660
d7f0
d580
ddf0
d540
d6c0
d7f0
f5c0
0d60
0e30
ENDCHAR
STARTCHAR U558A
ENCODING 21898
SWIDTH 960 0
DWIDTH 12 0
BBX 12 12 0 -2
BITMAP
00e0
00d0
f7f0
d4c0
d7d0
d4d0
d7d0
d5e0
f7a0
18f0
19b0
3330
ENDCHAR
STARTCHAR U558B
ENCODING 21899
SWIDTH 960 0
DWIDTH 12 0
BBX 12 12 0 -2
BITMAP
0d40
0d40
fff0
d540
d5c0
d400
d7f0
d300
fff0
0f40
3b70
0300
ENDCHAR
STARTCHAR U5598
ENCODING 21912
SWIDTH 960 0
DWIDTH 12 0
BBX 12 12 0 -2
BITMAP
0180
0db0
f5b0
d7f0
d000
dff8
d300
d7f0
d550
f550
0d50
0c70
ENDCHAR
STARTCHAR U5599
ENCODING 21913
SWIDTH 960 0
DWIDTH 12 0
BBX 12 12 0 -2
BITMAP
07f0
f660
d7e0
d180
d7f8
d380
d6c0
d358
f6e0
c350
0ed8
0180
ENDCHAR
STARTCHAR U559A
ENCODING 21914
SWIDTH 960 0
DWIDTH 12 0
BBX 12 12 0 -2
BITMAP
0300
03e0
f6c0
d7f0
d550
d550
d6f0
d5b0
fff8
0340
0670
1c18
ENDCHAR
STARTCHAR U559C
ENCODING 21916
SWIDTH 960 0
DWIDTH 12 0
BBX 12 12 0 -2
BITMAP
0600
fff0
0600
7fe0
30c0
3fc0
1980
fff0
0000
3fc0
30c0
3fc0
ENDCHAR
STARTCHAR U559D
ENCODING 21917
SWIDTH 960 0
DWIDTH 12 0
BBX 12 12 0 -2
BITMAP
0fe0
f460
d7e0
d460
d7e0
d600
d7f0
f5b0
1f30
34d0
07d0
00e0
ENDCHAR
STARTCHAR U559E
ENCODING 21918
SWIDTH 960 0
DWIDTH 12 0
BBX 12 12 0 -2
BITMAP
0600
06f0
f7d0
d5d0
d7d0
d5d0
d7d0
d4d0
d750
f4e0
0f40
0cc0
ENDCHAR
STARTCHAR U559F
ENCODING 21919
SWIDTH 960 0
DWIDTH 12 0
BBX 12 12 0 -2
BITMAP
0000
0ff0
f5b0
d7f0
d5b0
d7f0
d660
d7e0
d660
f7e0
0660
06e0
ENDCHAR
STARTCHAR U55A7
ENCODING 21927
SWIDTH 960 0
DWIDTH 12 0
BBX 12 12 0 -2
BITMAP
0180
fff0
d830
d7e0
d000
d7e0
d460
d7e0
f460
0fe0
0000
1ff0
ENDCHAR
STARTCHAR U55A8
ENCODING 21928
SWIDTH 960 0
DWIDTH 12 0
BBX 12 12 0 -2
BITMAP
0180
1ff0
f000
d7c0
d6c0
d7c0
dff0
d830
f680
0680
0db0
38f0
ENDCHAR
STARTCHAR U55A9
ENCODING 21929
SWIDTH 960 0
DWIDTH 12 0
BBX 12 12 0 -2
BITMAP
0300
0380
f6c0
ddb0
d000
d750
d550
d7a0
d5a0
f7a0
cd50
0d50
ENDCHAR
STARTCHAR U55AA
ENCODING 21930
SWIDTH 960 0
DWIDTH 12 0
BBX 12 12 0 -2
BITMAP
0600
fff0
0600
7ae0
6aa0
7ae0
0600
fff0
3460
36c0
3380
fce0
ENDCHAR
STARTCHAR U55AB
ENCODING 21931
SWIDTH 960 0
DWIDTH 12 0
BBX 12 12 0 -2
BITMAP
0600
fff0
d6d0
df50
d6b0
df60
d7c0
d300
fff0
0680
0cc0
3870
ENDCHAR
STARTCHAR U55AC
ENCODING 21932
SWIDTH 960 0
DWIDTH 12 0
BBX 12 12 0 -2
BITMAP
03c0
3e00
0600
ffe0
1f80
39c0
efb0
7fe0
6fa0
69a0
6fa0
60e0
ENDCHAR
STARTCHAR U55AE
ENCODING 21934
SWIDTH 960 0
DWIDTH 12 0
BBX 12 12 0 -2
BITMAP
7de0
6d60
7de0
3fc0
36c0
3fc0
36c0
3fc0
0600
fff0
0600
0600
ENDCHAR
STARTCHAR U55B0
ENCODING 21936
SWIDTH 960 0
DWIDTH 12 0
BBX 12 12 0 -2
BITMAP
0300
0680
f7c0
d860
d7d0
d4c0
d7c0
d7c0
d560
f5c0
0ee0
3c30
ENDCHAR
STARTCHAR U55B6
ENCODING 21942
SWIDTH 960 0
DWIDTH 12 0
BBX 12 12 0 -2
BITMAP
34c0
1a80
fff0
c030
dfb0
3180
3f80
0c00
7fc0
60c0
60c0
7fc0
ENDCHAR
STARTCHAR U55C4
ENCODING 21956
SWIDTH 960 0
DWIDTH 12 0
BBX 12 12 0 -2
BITMAP
0000
1ff0
f300
d7e0
d460
d7e0
d460
d7e0
d3e0
f6c0
07c0
3c70
ENDCHAR
STARTCHAR U55C5
ENCODING 21957
SWIDTH 960 0
DWIDTH 12 0
BBX 12 12 0 -2
BITMAP
0300
f7e0
d460
d7e0
d460
d7e0
d460
d7e0
f1a0
3ff0
0740
1c70
ENDCHAR
STARTCHAR U55C7
ENCODING 21959
SWIDTH 960 0
DWIDTH 12 0
BBX 12 12 0 -2
BITMAP
0600
7fe0
36c0
36c0
6aa0
fff0
0000
7fe0
69a0
6fa0
6060
7fe0
ENDCHAR
STARTCHAR U55D4
ENCODING 21972
SWIDTH 960 0
DWIDTH 12 0
BBX 12 12 0 -2
BITMAP
0670
07c0
f630
d3f0
d560
d5e0
d560
d5e0
d560
f7f8
0660
1c30
ENDCHAR
STARTCHAR U55DA
ENCODING 21978
SWIDTH 960 0
DWIDTH 12 0
BBX 12 12 0 -2
BITMAP
0300
f7c0
d4c0
d4c0
d7c0
d400
d7f0
f400
0ff0
1ab0
1b50
30e0
ENDCHAR
STARTCHAR U55DC
ENCODING 21980
SWIDTH 960 0
DWIDTH 12 0
BBX 12 12 0 -2
BITMAP
0180
0ff0
f1a0
dff0
d360
d7c0
dd30
d7f0
d460
f7e0
0c60
0fe0
ENDCHAR
STARTCHAR U55DF
ENCODING 21983
SWIDTH 960 0
DWIDTH 12 0
BBX 12 12 0 -2
BITMAP
0660
0340
f7f0
d180
d7e0
d180
dff8
d600
f7e0
1980
3180
0ff0
ENDCHAR
STARTCHAR U55E3
ENCODING 21987
SWIDTH 960 0
DWIDTH 12 0
BBX 12 12 0 -2
BITMAP
0000
fff0
cc30
fdd0
0030
fdd0
d550
d550
fd50
d5d0
d430
d470
ENDCHAR
STARTCHAR U55E4
ENCODING 21988
SWIDTH 960 0
DWIDTH 12 0
BBX 12 12 0 -2
BITMAP
0300
1b60
ffe0
d600
dff0
d300
d7e0
d560
d7e0
f340
03e0
1e30
ENDCHAR
STARTCHAR U55F7
ENCODING 22007
SWIDTH 960 0
DWIDTH 12 0
BBX 12 12 0 -2
BITMAP
06c0
06c0
ff40
d6f8
dfb0
d6b0
df50
d4d0
d760
f560
1bb0
3718
ENDCHAR
STARTCHAR U55F9
ENCODING 22009
SWIDTH 960 0
DWIDTH 12 0
BBX 12 12 0 -2
BITMAP
18c0
0df0
f0c0
dbf0
d550
d3f0
dd50
d5f0
d4c0
f5f0
1b40
31f8
ENDCHAR
STARTCHAR U55FD
ENCODING 22013
SWIDTH 960 0
DWIDTH 12 0
BBX 12 12 0 -2
BITMAP
0d80
1f80
f5e0
dfa0
d560
d540
df40
d6c0
fdc0
35a0
6d60
0e30
ENDCHAR
STARTCHAR U55FE
ENCODING 22014
SWIDTH 960 0
DWIDTH 12 0
BBX 12 12 0 -2
BITMAP
06c0
06c0
ff70
d5a0
d570
d7a0
d560
d5f8
f560
1b60
3350
0e98
ENDCHAR
STARTCHAR U5606
ENCODING 22022
SWIDTH 960 0
DWIDTH 12 0
BBX 12 12 0 -2
BITMAP
06c0
1ff0
f6c0
d7f0
d5b0
d7f0
d180
d7f0
f180
cff0
0760
1c38
ENDCHAR
STARTCHAR U5609
ENCODING 22025
SWIDTH 960 0
DWIDTH 12 0
BBX 12 12 0 -2
BITMAP
0600
fff0
0600
3fc0
30c0
7fe0
0d80
fff0
1800
fdf0
3530
edf0
ENDCHAR
STARTCHAR U5614
ENCODING 22036
SWIDTH 960 0
DWIDTH 12 0
BBX 12 12 0 -2
BITMAP
0000
0ff0
f400
d5e0
d560
d5e0
d400
d7f0
d6d0
f7f0
0c00
0ff0
ENDCHAR
STARTCHAR U5616
ENCODING 22038
SWIDTH 960 0
DWIDTH 12 0
BBX 12 12 0 -2
BITMAP
0300
1fe0
f300
d7e0
d300
dff0
d4c0
d7c0
d4c0
f7c0
06c0
1c60
ENDCHAR
STARTCHAR U5617
ENCODING 22039
SWIDTH 960 0
DWIDTH 12 0
BBX 12 12 0 -2
BITMAP
36c0
1a80
fff0
d9b0
efd0
7f00
6030
3ff0
30c0
3fc0
30c0
3fc0
ENDCHAR
STARTCHAR U5618
ENCODING 22040
SWIDTH 960 0
DWIDTH 12 0
BBX 12 12 0 -2
BITMAP
0300
03e0
f300
d7f0
d500
d7f0
d560
d5e0
d550
f560
1b40
37f0
ENDCHAR
STARTCHAR U561B
ENCODING 22043
SWIDTH 960 0
DWIDTH 12 0
BBX 12 12 0 -2
BITMAP
0300
3ff0
f000
d4c0
dff0
d4c0
d550
f550
3550
6d50
74c0
ccc0
ENDCHAR
STARTCHAR U5629
ENCODING 22057
SWIDTH 960 0
DWIDTH 12 0
BBX 12 12 0 -2
BITMAP
0cc0
3ff0
f4c0
dfe0
d540
dff0
d540
dfe0
f300
3ff0
0300
0300
ENDCHAR
STARTCHAR U562F
ENCODING 22063
SWIDTH 960 0
DWIDTH 12 0
BBX 12 12 0 -2
BITMAP
0300
0fe0
f360
d7f0
d360
d7e0
d550
dd70
fff0
1b30
1d70
3550
ENDCHAR
STARTCHAR U5631
ENCODING 22065
SWIDTH 960 0
DWIDTH 12 0
BBX 12 12 0 -2
BITMAP
0000
0ff8
f418
d7f8
d4f0
d5f0
d550
d7f8
f6a8
1ae8
1ba8
3678
ENDCHAR
STARTCHAR U5632
ENCODING 22066
SWIDTH 960 0
DWIDTH 12 0
BBX 12 12 0 -2
BITMAP
0600
fff0
d6d0
d7d0
d5f0
d7d0
d5d0
d7f0
f6d0
dfb0
06b0
0770
ENDCHAR
STARTCHAR U5634
ENCODING 22068
SWIDTH 960 0
DWIDTH 12 0
BBX 12 12 0 -2
BITMAP
0680
1bf0
fa80
df70
d3e0
d6c0
d7f0
d5b0
d7f0
f5b0
0ff0
1830
ENDCHAR
STARTCHAR U5636
ENCODING 22070
SWIDTH 960 0
DWIDTH 12 0
BBX 12 12 0 -2
BITMAP
0d30
0d60
ffc0
d540
d778
d550
d750
d550
dfd0
f750
0db0
1b30
ENDCHAR
STARTCHAR U5638
ENCODING 22072
SWIDTH 960 0
DWIDTH 12 0
BBX 12 12 0 -2
BITMAP
0c00
0c00
f7f0
dda0
d5a0
dff0
d5a0
d5a0
dff0
f000
1aa0
36d0
ENDCHAR
STARTCHAR U5642
ENCODING 22082
SWIDTH 960 0
DWIDTH 12 0
BBX 12 12 0 -2
BITMAP
0cc0
1ff0
f680
dfe0
daa0
dde0
dfe0
d0c0
dff0
f4c0
06c0
01c0
ENDCHAR
STARTCHAR U564C
ENCODING 22092
SWIDTH 960 0
DWIDTH 12 0
BBX 12 12 0 -2
BITMAP
0660
0340
f7f0
d5b0
d7f0
d5b0
d7f0
d660
f7e0
0660
0660
07e0
ENDCHAR
STARTCHAR U564E
ENCODING 22094
SWIDTH 960 0
DWIDTH 12 0
BBX 12 12 0 -2
BITMAP
0300
0fe0
f300
dff0
d830
d7e0
d000
d7e0
d460
f7e0
06c0
1ff0
ENDCHAR
STARTCHAR U5650
ENCODING 22096
SWIDTH 960 0
DWIDTH 12 0
BBX 12 12 0 -2
BITMAP
0000
7de0
6d60
7de0
0000
7fe0
0600
fff0
0000
7de0
6d60
7de0
ENDCHAR
STARTCHAR U565B
ENCODING 22107
SWIDTH 960 0
DWIDTH 12 0
BBX 12 12 0 -2
BITMAP
0180
06f0
f680
dff8
d5b0
d6b0
d5d0
d7f0
f5b0
cdd0
0eb0
0ff0
ENDCHAR
STARTCHAR U5664
ENCODING 22116
SWIDTH 960 0
DWIDTH 12 0
BBX 12 12 0 -2
BITMAP
06c0
1ff0
f6c0
d760
dad0
d6d8
d7e0
d000
dff0
f5a0
19b0
0380
ENDCHAR
STARTCHAR U5668
ENCODING 22120
SWIDTH 960 0
DWIDTH 12 0
BBX 12 12 0 -2
BITMAP
0000
7de0
6d60
7de0
0600
fff0
0d00
39c0
fdf0
6d60
6d60
7de0
ENDCHAR
STARTCHAR U566A
ENCODING 22122
SWIDTH 960 0
DWIDTH 12 0
BBX 12 12 0 -2
BITMAP
07e0
0660
f7e0
d770
d550
d770
d180
dff0
d3c0
f6a0
1db8
0180
ENDCHAR
ENDFONT
